<svg width="28" height="28" viewBox="0 0 28 28" fill="none" xmlns="http://www.w3.org/2000/svg">
<path d="M21.9842 9.1875C21.8239 11.4116 20.174 13.125 18.3748 13.125C16.5756 13.125 14.9229 11.4122 14.7654 9.1875C14.6014 6.87367 16.2075 5.25 18.3748 5.25C20.5421 5.25 22.1482 6.91578 21.9842 9.1875Z" stroke="#AC865F" stroke-width="1.5" stroke-linecap="round" stroke-linejoin="round"/>
<path d="M18.3748 16.625C14.8108 16.625 11.3835 18.3952 10.5249 21.8427C10.4112 22.2988 10.6972 22.75 11.1659 22.75H25.5842C26.0529 22.75 26.3373 22.2988 26.2252 21.8427C25.3666 18.34 21.9393 16.625 18.3748 16.625Z" stroke="#AC865F" stroke-width="1.5" stroke-miterlimit="10"/>
<path d="M10.9373 10.1686C10.8093 11.9448 9.47604 13.3438 8.03885 13.3438C6.60166 13.3438 5.2662 11.9454 5.14041 10.1686C5.00971 8.3207 6.30745 7 8.03885 7C9.77026 7 11.068 8.35461 10.9373 10.1686Z" stroke="#AC865F" stroke-width="1.5" stroke-linecap="round" stroke-linejoin="round"/>
<path d="M11.2657 16.7344C10.2786 16.2821 9.19137 16.1082 8.03911 16.1082C5.19536 16.1082 2.45552 17.5219 1.76919 20.2754C1.67895 20.6396 1.90755 21 2.28161 21H8.42192" stroke="#AC865F" stroke-width="1.5" stroke-miterlimit="10" stroke-linecap="round"/>
</svg>
