<svg width="30" height="30" viewBox="0 0 30 30" fill="none" xmlns="http://www.w3.org/2000/svg">
<path d="M15 16.875C19.1421 16.875 22.5 13.5171 22.5 9.375C22.5 5.23286 19.1421 1.875 15 1.875C10.8579 1.875 7.5 5.23286 7.5 9.375C7.5 13.5171 10.8579 16.875 15 16.875Z" stroke="#AC865F" stroke-width="1.4" stroke-linecap="round" stroke-linejoin="round"/>
<path d="M8.41699 13.3488L2.8125 23.4375L7.90195 23.4129C8.06502 23.4121 8.22548 23.4538 8.36749 23.5339C8.5095 23.6141 8.62815 23.7299 8.71172 23.8699L11.25 28.125L16.4256 16.739" stroke="#AC865F" stroke-width="1.4" stroke-linecap="round" stroke-linejoin="round"/>
<path d="M21.477 13.125L27.1875 23.4375L22.098 23.4129C21.935 23.4121 21.7745 23.4538 21.6325 23.5339C21.4905 23.6141 21.3719 23.7299 21.2883 23.8699L18.75 28.125L15 19.875" stroke="#AC865F" stroke-width="1.4" stroke-linecap="round" stroke-linejoin="round"/>
<path d="M15 13.125C17.0711 13.125 18.75 11.4461 18.75 9.375C18.75 7.30393 17.0711 5.625 15 5.625C12.9289 5.625 11.25 7.30393 11.25 9.375C11.25 11.4461 12.9289 13.125 15 13.125Z" stroke="#AC865F" stroke-width="1.4" stroke-linecap="round" stroke-linejoin="round"/>
</svg>
