<svg width="28" height="28" viewBox="0 0 28 28" fill="none" xmlns="http://www.w3.org/2000/svg">
<path d="M25.255 2.94275C25.2457 2.89787 25.2238 2.85658 25.1918 2.82373C25.1598 2.79089 25.1192 2.76786 25.0745 2.75736C22.1006 2.03001 15.2308 4.62165 11.5049 8.34478C10.8409 9.00336 10.2354 9.71845 9.69533 10.482C8.54689 10.3781 7.39845 10.4656 6.42064 10.8921C3.65947 12.1062 2.85611 15.277 2.63189 16.6381C2.61974 16.7127 2.62493 16.7891 2.64705 16.8614C2.66918 16.9336 2.70764 16.9998 2.75947 17.0548C2.81129 17.1098 2.87508 17.1521 2.9459 17.1785C3.01672 17.2049 3.09265 17.2146 3.16783 17.2069L7.60134 16.7202C7.60441 17.0546 7.62449 17.3886 7.6615 17.721C7.68464 17.9507 7.78713 18.1651 7.95134 18.3274L9.66798 20.0441C9.83042 20.2084 10.0451 20.3109 10.275 20.3339C10.6054 20.3708 10.9374 20.3908 11.2698 20.3941L10.7836 24.8238C10.776 24.8988 10.7858 24.9747 10.8122 25.0454C10.8386 25.1161 10.8808 25.1797 10.9358 25.2315C10.9907 25.2832 11.0568 25.3217 11.1289 25.3438C11.2011 25.3659 11.2773 25.3712 11.3518 25.3592C12.7135 25.1404 15.8909 24.337 17.0978 21.5764C17.5244 20.5975 17.6119 19.4551 17.5135 18.3121C18.2792 17.7725 18.9964 17.167 19.6567 16.5025C23.3962 12.7838 25.9714 6.06486 25.255 2.94275ZM16.3327 11.6851C16.0061 11.3585 15.7837 10.9425 15.6935 10.4895C15.6034 10.0365 15.6496 9.56692 15.8263 9.1402C16.003 8.71347 16.3023 8.34874 16.6864 8.09212C17.0704 7.83551 17.5219 7.69854 17.9838 7.69854C18.4456 7.69854 18.8971 7.83551 19.2812 8.09212C19.6652 8.34874 19.9645 8.71347 20.1412 9.1402C20.3179 9.56692 20.3642 10.0365 20.274 10.4895C20.1839 10.9425 19.9614 11.3585 19.6348 11.6851C19.4181 11.9022 19.1608 12.0744 18.8775 12.192C18.5942 12.3095 18.2905 12.37 17.9838 12.37C17.6771 12.37 17.3734 12.3095 17.09 12.192C16.8067 12.0744 16.5494 11.9022 16.3327 11.6851Z" stroke="#AC865F" stroke-width="1.5" stroke-linecap="round" stroke-linejoin="round"/>
<path d="M5.99594 19.25C5.45077 19.3169 4.94358 19.5641 4.55492 19.9522C3.59133 20.9191 3.5 24.5 3.5 24.5C3.5 24.5 7.08312 24.4087 8.04727 23.444C8.43696 23.0559 8.68452 22.5479 8.75 22.0019" stroke="#AC865F" stroke-width="1.5" stroke-linecap="round" stroke-linejoin="round"/>
</svg>
