<svg width="30" height="30" viewBox="0 0 30 30" fill="none" xmlns="http://www.w3.org/2000/svg">
<path d="M18.75 26.8453C18.75 26.8453 17.8125 27.1875 15 27.1875C12.1875 27.1875 10.6641 26.25 9.375 25.3125H5.625C4.63044 25.3125 3.67661 24.9174 2.97335 24.2141C2.27009 23.5109 1.875 22.5571 1.875 21.5625V18.75C1.875 17.7554 2.27009 16.8016 2.97335 16.0984C3.67661 15.3951 4.63044 15 5.625 15H7.38281C7.70477 14.9982 8.02096 14.9144 8.30155 14.7566C8.58214 14.5987 8.81788 14.3719 8.98652 14.0977C8.98652 14.0977 9.49219 12.9967 11.0156 10.3582C12.5391 7.71973 15.4688 3.75 15.9375 2.8125C17.6367 2.8125 18.457 4.10156 17.9297 5.60801C17.3273 7.33008 16.5404 8.79434 16.3207 10.7109C16.2891 10.991 16.5047 11.4141 16.7865 11.4141L24.375 12.0117" stroke="#AC865F" stroke-width="1.4" stroke-linecap="round" stroke-linejoin="round"/>
<path d="M24.375 15.8789L19.6875 15.7617C18.5156 15.6539 17.8125 15.0352 17.8125 14.0039C17.8125 12.9727 18.6328 12.3141 19.6875 12.2461L24.375 12.0117C25.4063 12.0117 26.25 12.9727 26.25 14.0039V14.0139C26.2474 14.5094 26.0487 14.9838 25.6973 15.3333C25.346 15.6827 24.8706 15.8789 24.375 15.8789ZM26.25 19.6875L19.6875 19.5703C18.6328 19.5211 17.8125 18.8432 17.8125 17.8125C17.8125 16.7807 18.6328 16.1215 19.6875 16.0547L26.25 15.9375C26.7468 15.939 27.2228 16.1371 27.5741 16.4884C27.9254 16.8397 28.1235 17.3157 28.125 17.8125C28.1235 18.3093 27.9254 18.7853 27.5741 19.1366C27.2228 19.4879 26.7468 19.686 26.25 19.6875ZM23.4375 27.1875L19.6875 27.0117C18.457 26.9039 17.8125 26.3438 17.8125 25.3125C17.8125 24.2812 18.6562 23.5547 19.6875 23.5547L23.4375 23.4375C23.9344 23.4389 24.4105 23.6369 24.7618 23.9882C25.1131 24.3395 25.3111 24.8156 25.3125 25.3125C25.3111 25.8094 25.1131 26.2855 24.7618 26.6368C24.4105 26.9881 23.9344 27.1861 23.4375 27.1875ZM25.3125 23.4375L19.6875 23.3203C18.5742 23.2711 17.8125 22.5938 17.8125 21.5625C17.8125 20.5312 18.5742 19.8727 19.6875 19.8047L25.3125 19.6875C25.8094 19.6889 26.2855 19.8869 26.6368 20.2382C26.9881 20.5895 27.1861 21.0656 27.1875 21.5625C27.1861 22.0594 26.9881 22.5355 26.6368 22.8868C26.2855 23.2381 25.8094 23.4361 25.3125 23.4375Z" stroke="#AC865F" stroke-width="1.4" stroke-miterlimit="10"/>
</svg>
