<svg width="30" height="30" viewBox="0 0 30 30" fill="none" xmlns="http://www.w3.org/2000/svg">
<path d="M21.9604 18.0926L26.8066 21.5039C26.9494 21.5674 27.1057 21.5942 27.2614 21.5818C27.4171 21.5695 27.5673 21.5185 27.6983 21.4334C27.8293 21.3483 27.9369 21.2318 28.0114 21.0945C28.086 20.9572 28.125 20.8035 28.125 20.6473V9.35274C28.125 9.19653 28.086 9.0428 28.0114 8.90552C27.9369 8.76823 27.8293 8.65174 27.6983 8.56663C27.5673 8.48152 27.4171 8.43049 27.2614 8.41817C27.1057 8.40585 26.9494 8.43264 26.8066 8.4961L21.9604 11.9074C21.8375 11.9939 21.7372 12.1087 21.6679 12.2421C21.5987 12.3755 21.5625 12.5236 21.5625 12.6738V17.3262C21.5625 17.4765 21.5987 17.6245 21.6679 17.7579C21.7372 17.8913 21.8375 18.0061 21.9604 18.0926Z" stroke="#AC865F" stroke-width="1.5" stroke-linecap="round" stroke-linejoin="round"/>
<path d="M15.7031 22.5H4.92188C4.11451 22.4977 3.34087 22.1759 2.76997 21.605C2.19907 21.0341 1.87732 20.2605 1.875 19.4531V10.5469C1.87732 9.73951 2.19907 8.96587 2.76997 8.39497C3.34087 7.82407 4.11451 7.50232 4.92188 7.5H15.7313C16.5311 7.50247 17.2975 7.82131 17.8631 8.3869C18.4287 8.95249 18.7475 9.71889 18.75 10.5188V19.4531C18.7477 20.2605 18.4259 21.0341 17.855 21.605C17.2841 22.1759 16.5105 22.4977 15.7031 22.5Z" stroke="#AC865F" stroke-width="1.5" stroke-miterlimit="10"/>
</svg>
