<svg width="26" height="26" viewBox="0 0 26 26" fill="none" xmlns="http://www.w3.org/2000/svg">
<path d="M17.7394 3.52066C18.9954 3.52441 20.1988 4.025 21.0869 4.9131C21.975 5.80119 22.4756 7.00463 22.4793 8.26059V17.7394C22.4756 18.9954 21.975 20.1988 21.0869 21.0869C20.1988 21.975 18.9954 22.4756 17.7394 22.4793H8.26059C7.00463 22.4756 5.80119 21.975 4.9131 21.0869C4.025 20.1988 3.52441 18.9954 3.52066 17.7394V8.26059C3.52441 7.00463 4.025 5.80119 4.9131 4.9131C5.80119 4.025 7.00463 3.52441 8.26059 3.52066H17.7394ZM17.7394 1.625H8.26059C4.61094 1.625 1.625 4.61094 1.625 8.26059V17.7394C1.625 21.3891 4.61094 24.375 8.26059 24.375H17.7394C21.3891 24.375 24.375 21.3891 24.375 17.7394V8.26059C24.375 4.61094 21.3891 1.625 17.7394 1.625Z" fill="white"/>
<path d="M19.1613 8.25977C18.8801 8.25977 18.6052 8.17637 18.3713 8.02014C18.1375 7.8639 17.9553 7.64183 17.8476 7.38202C17.74 7.12221 17.7119 6.83631 17.7667 6.5605C17.8216 6.28468 17.957 6.03133 18.1559 5.83247C18.3547 5.63362 18.6081 5.4982 18.8839 5.44334C19.1597 5.38847 19.4456 5.41663 19.7054 5.52425C19.9652 5.63187 20.1873 5.81411 20.3435 6.04794C20.4998 6.28177 20.5832 6.55667 20.5832 6.83789C20.5836 7.02473 20.5471 7.2098 20.4757 7.38249C20.4044 7.55519 20.2997 7.71209 20.1676 7.8442C20.0355 7.97632 19.8786 8.08104 19.7059 8.15235C19.5332 8.22366 19.3481 8.26017 19.1613 8.25977ZM13 9.20734C13.75 9.20734 14.4831 9.42973 15.1066 9.84638C15.7302 10.263 16.2162 10.8552 16.5032 11.5481C16.7902 12.241 16.8653 13.0034 16.719 13.7389C16.5727 14.4745 16.2115 15.1501 15.6812 15.6804C15.1509 16.2107 14.4753 16.5718 13.7398 16.7182C13.0042 16.8645 12.2418 16.7894 11.5489 16.5024C10.8561 16.2154 10.2639 15.7294 9.84721 15.1058C9.43055 14.4822 9.20817 13.7491 9.20817 12.9992C9.20924 11.9939 9.60908 11.03 10.32 10.3191C11.0308 9.60826 11.9947 9.20842 13 9.20734ZM13 7.31168C11.8751 7.31168 10.7755 7.64525 9.8402 8.2702C8.90489 8.89515 8.17591 9.78341 7.74544 10.8227C7.31496 11.8619 7.20233 13.0055 7.42179 14.1088C7.64124 15.212 8.18292 16.2254 8.97833 17.0208C9.77374 17.8163 10.7872 18.3579 11.8904 18.5774C12.9937 18.7969 14.1373 18.6842 15.1765 18.2537C16.2158 17.8233 17.104 17.0943 17.729 16.159C18.3539 15.2237 18.6875 14.1241 18.6875 12.9992C18.6875 11.4908 18.0883 10.0441 17.0217 8.97751C15.9551 7.9109 14.5084 7.31168 13 7.31168Z" fill="white"/>
</svg>
