<svg width="1440" height="660" viewBox="0 0 1440 660" fill="none" xmlns="http://www.w3.org/2000/svg">
<g opacity="0.1">
<path d="M1202.66 933.514L1201.18 933.09C1201.18 932.878 1202.24 929.698 1204.57 923.974C1218.56 886.663 1277.51 743.781 1384.81 649.656C1508.64 541.328 1592.61 524.157 1593.46 523.945L1593.67 525.429C1592.82 525.641 1509.27 542.6 1385.65 650.716C1327.55 701.594 1283.66 766.676 1253.55 821.582C1283.66 769.856 1327.55 709.862 1386.29 663.86C1512.24 565.495 1592.61 550.868 1593.46 550.656L1593.67 552.14C1592.82 552.352 1512.88 566.979 1387.35 665.132C1276.66 751.412 1219.62 888.359 1205.84 924.398C1203.93 930.122 1202.87 933.09 1202.66 933.514Z" fill="url(#paint0_linear_158_458)"/>
<path d="M1207.96 919.522L1206.48 919.098C1206.9 917.614 1252.49 763.072 1389.26 628.457C1503.55 515.889 1592.82 489.602 1593.67 489.39L1594.09 490.874C1593.24 491.086 1504.4 517.373 1390.32 629.517C1253.76 763.708 1208.39 917.826 1207.96 919.522Z" fill="url(#paint1_linear_158_458)"/>
<path d="M1214.11 893.023L1212.63 892.387C1212.84 891.751 1225.14 857.409 1250.58 808.014C1281.75 744.629 1329.46 658.348 1384.81 596.658C1482.56 487.694 1592.18 432.788 1593.46 432.152L1594.09 433.636C1593.03 434.272 1483.41 489.178 1386.08 597.718C1343.88 644.78 1306.14 706.258 1276.66 760.74C1304.02 714.102 1340.28 660.892 1386.5 611.074C1492.95 495.962 1592.61 461.195 1593.67 460.983L1594.09 462.467C1593.03 462.891 1493.8 497.446 1387.77 612.134C1325.22 679.759 1280.48 753.744 1252.28 808.65C1228.32 856.985 1214.32 892.175 1214.11 893.023Z" fill="url(#paint2_linear_158_458)"/>
<path d="M1198.42 978.88L1196.94 978.456C1197.36 977.184 1243.16 849.777 1332.86 750.776C1421.07 653.26 1539.6 598.142 1593.46 586.27L1593.88 587.754C1540.23 599.414 1422.13 654.32 1333.92 751.624C1244.43 850.625 1199.06 977.608 1198.42 978.88Z" fill="url(#paint3_linear_158_458)"/>
<path d="M1210.08 978.88L1208.6 978.244C1209.23 976.76 1272 830.697 1364.66 742.721C1481.07 632.061 1592.4 599.202 1593.46 598.99L1593.88 600.474C1592.82 600.898 1481.92 633.545 1365.72 743.993C1273.48 831.757 1210.72 977.608 1210.08 978.88Z" fill="url(#paint4_linear_158_458)"/>
<path d="M1238.71 979.092L1237.44 978.244C1238.07 977.396 1305.71 882.636 1403.68 788.723C1504.82 691.419 1592.61 646.264 1593.46 645.84L1594.09 647.324C1593.24 647.748 1505.67 692.902 1404.74 789.995C1306.99 883.696 1239.34 978.244 1238.71 979.092Z" fill="url(#paint5_linear_158_458)"/>
<path d="M1226.62 979.092L1225.14 978.244C1225.77 976.972 1295.54 854.653 1408.77 755.44C1522 656.228 1592.82 632.061 1593.46 631.849L1593.88 633.333C1593.24 633.545 1522.63 657.712 1409.61 756.712C1296.6 855.713 1227.26 977.82 1226.62 979.092Z" fill="url(#paint6_linear_158_458)"/>
<path d="M1215.17 979.092L1213.69 978.244C1214.54 976.76 1289.81 838.329 1376.75 758.62C1463.9 678.911 1591.97 614.889 1593.24 614.253L1593.88 615.737C1592.61 616.373 1464.75 680.183 1377.81 759.68C1291.08 839.389 1215.81 977.608 1215.17 979.092Z" fill="url(#paint7_linear_158_458)"/>
<path d="M1214.11 892.811L1212.63 892.387C1212.63 892.175 1213.48 888.995 1215.17 883.271C1225.35 847.233 1266.91 709.65 1347.27 568.887C1440.57 405.441 1591.76 301.777 1593.24 300.717L1594.09 301.989C1592.61 303.049 1441.63 406.501 1348.55 569.735C1297.66 658.984 1262.25 746.749 1240.62 808.438C1262.88 751.2 1299.99 670.643 1356.6 586.694C1463.69 428.336 1591.97 360.711 1593.24 360.075L1593.88 361.559C1592.61 362.195 1464.53 429.608 1357.66 587.542C1266.27 722.793 1226.2 849.141 1216.23 883.695C1214.96 889.419 1214.11 892.599 1214.11 892.811Z" fill="url(#paint8_linear_158_458)"/>
<path d="M1214.11 892.811L1212.63 892.387C1244.01 733.605 1225.99 636.937 1204.99 525.005C1191.85 454.623 1178.28 381.91 1175.31 285.453C1171.49 155.502 1202.66 53.9579 1229.38 -8.36786C1258.43 -75.9934 1288.96 -113.304 1289.17 -113.728L1290.45 -112.668C1290.24 -112.244 1259.91 -75.1454 1230.86 -7.73188C1204.15 54.3819 1172.98 155.714 1176.79 285.241C1179.76 381.698 1193.33 454.199 1206.27 524.581C1218.56 590.934 1230.02 651.776 1230.65 723.43C1231.29 685.483 1229.8 642.66 1224.71 596.87L1224.29 590.934C1214.54 504.865 1201.39 387.21 1212.42 261.074C1225.56 112.468 1270.94 -13.6677 1347.27 -113.516L1348.55 -112.456C1172.55 117.768 1207.33 425.58 1225.99 590.934L1226.62 597.082C1245.49 764.556 1214.32 891.539 1214.11 892.811Z" fill="url(#paint9_linear_158_458)"/>
<path d="M1214.11 892.811L1212.63 892.387C1213.05 891.115 1252.49 771.764 1237.44 582.243C1231.92 513.981 1226.41 377.882 1251.22 233.091C1276.24 87.2406 1324.59 -29.3551 1395.2 -113.728L1396.47 -112.668C1215.81 102.504 1230.23 473.491 1238.92 582.031C1248.46 702.018 1236.38 793.811 1225.77 845.537C1238.71 792.963 1257.16 697.778 1261.19 569.099C1265.43 435.968 1278.78 321.916 1302.32 220.372C1334.55 81.5168 1386.29 -30.839 1455.63 -113.516L1456.9 -112.456C1336.04 31.4867 1272.64 254.715 1262.67 569.311C1256.31 772.188 1214.54 891.751 1214.11 892.811Z" fill="url(#paint10_linear_158_458)"/>
<path d="M1214.11 892.811L1212.63 892.387C1212.84 891.751 1220.05 861.437 1234.68 814.374C1247.83 761.164 1264.15 682.939 1275.39 586.906C1288.33 476.671 1306.77 346.931 1346.21 222.068C1387.77 90.2086 1446.93 -19.6034 1527.3 -113.516L1528.57 -112.456C1347.27 99.5363 1303.59 359.863 1277.09 587.119C1267.33 671.067 1253.55 741.237 1241.47 793.175C1256.52 746.537 1277.72 687.603 1304.87 625.913C1341.13 543.66 1380.99 472.643 1423.4 414.769C1476.41 342.267 1533.66 290.541 1593.24 260.438L1593.88 261.922C1459.23 329.76 1362.97 497.658 1306.14 626.549C1274.54 697.99 1251.22 765.616 1235.95 815.01C1223.87 864.404 1214.32 892.387 1214.11 892.811Z" fill="url(#paint11_linear_158_458)"/>
<path d="M1207.96 912.526L1206.48 912.102C1206.69 911.466 1208.6 904.047 1212.42 891.115C1228.96 831.121 1277.09 652.836 1310.17 491.298C1338.79 351.171 1370.6 249.203 1412.8 160.802C1456.69 69.0093 1514.15 -10.6998 1593.46 -90.1969L1594.52 -89.1369C1442.06 63.4975 1368.05 215.496 1311.65 491.298C1287.9 607.258 1256.52 731.909 1234.47 815.222C1266.49 708.59 1321.62 537.088 1377.6 421.34C1463.47 243.691 1592.4 181.365 1593.67 180.729L1594.3 182.213C1593.03 182.849 1464.53 244.963 1378.87 422.188C1306.14 572.703 1234.47 818.19 1213.9 891.115C1210.08 904.683 1207.96 912.103 1207.96 912.526Z" fill="url(#paint12_linear_158_458)"/>
<path d="M1207.96 912.527L1206.48 912.103C1207.54 908.075 1316.53 511.437 1395.2 317.252C1473.86 122.855 1592.4 47.5981 1593.46 46.9622L1594.3 48.2341C1593.03 48.8701 1475.14 123.915 1396.68 317.888C1318.01 512.073 1209.02 908.499 1207.96 912.527Z" fill="url(#paint13_linear_158_458)"/>
<path d="M1161.31 420.281C1161.31 420.069 1159.83 414.345 1157.71 404.169C1144.35 353.291 1117 306.441 1087.95 257.047C1058.47 207.016 1027.94 155.078 1007.79 92.7525C965.81 -37.4108 975.776 -112.456 975.988 -113.304L977.472 -113.092C977.472 -112.456 967.294 -37.6228 1009.28 92.1165C1029.42 154.442 1059.74 206.168 1089.22 256.199C1114.88 299.869 1139.47 341.631 1154.1 386.15C1147.74 352.443 1139.05 296.477 1136.5 231.395C1132.9 133.243 1143.5 -6.0359 1213.9 -113.516L1215.17 -112.668C1144.99 -5.61192 1134.6 133.667 1138.2 231.395C1140.96 309.833 1153.04 374.914 1159.4 403.745C1160.89 409.045 1161.95 414.557 1163.01 419.857L1161.31 420.281Z" fill="url(#paint14_linear_158_458)"/>
<path d="M1161.31 420.281C1161.31 420.069 1159.83 414.557 1157.5 404.593C1141.59 341.631 1118.27 295.841 1093.67 247.507C1073.1 207.016 1051.9 165.042 1035.15 111.832C998.04 -6.67186 1006.52 -112.032 1006.73 -113.092L1008.22 -112.88C1008.22 -111.82 999.737 -6.67184 1036.84 111.62C1053.6 164.618 1074.8 206.592 1095.37 247.083C1116.57 288.845 1136.72 328.7 1152.2 379.366C1144.99 343.963 1135.44 288.845 1130.57 226.096C1122.51 126.459 1124.84 -13.4556 1180.82 -113.304L1182.31 -112.456C1126.54 -13.0316 1124.21 126.459 1132.26 226.096C1138.62 306.865 1152.62 375.126 1159.4 404.593C1160.68 409.681 1161.95 414.981 1163.22 420.281H1161.31Z" fill="url(#paint15_linear_158_458)"/>
<path d="M1158.77 409.681C1158.56 409.257 1153.04 393.145 1145.83 366.01C1134.6 331.88 1120.81 296.265 1107.45 261.286C1085.4 204.048 1062.71 145.115 1050.2 91.6925C1027.09 -7.94382 1032.18 -112.032 1032.18 -113.092H1033.66C1033.66 -112.032 1028.57 -8.15581 1051.69 91.2686C1063.99 144.479 1086.89 203.624 1108.73 260.65C1119.54 288.633 1130.57 317.252 1140.32 345.235C1132.9 315.132 1124.63 276.338 1118.48 232.667C1105.33 138.967 1099.82 3.07979 1147.53 -113.304L1149.01 -112.668C1101.3 3.50377 1107.03 139.179 1119.96 232.455C1127.6 286.937 1138.62 333.788 1147.11 365.586C1151.98 380.638 1156.44 395.265 1160.04 409.257L1158.77 409.681Z" fill="url(#paint16_linear_158_458)"/>
<path d="M1154.1 391.662C1153.68 390.814 1121.02 307.501 1100.46 204.048C1081.58 108.44 1069.71 -24.0553 1120.18 -113.516L1121.66 -112.668C1071.41 -23.6313 1083.28 108.652 1102.15 203.836C1122.51 307.077 1155.38 390.39 1155.59 391.238L1154.1 391.662Z" fill="url(#paint17_linear_158_458)"/>
<path d="M1151.98 384.242C1081.16 199.385 1063.35 74.0972 1060.8 1.38382C1058.05 -77.4773 1072.26 -113.092 1072.47 -113.516L1073.95 -112.88C1073.74 -112.456 1059.74 -77.0533 1062.5 1.38382C1065.05 73.8852 1082.86 199.173 1153.47 383.606L1151.98 384.242Z" fill="url(#paint18_linear_158_458)"/>
<path d="M1186.55 502.957C1097.28 276.55 950.543 157.622 757.797 48.4461C579.469 -52.6742 547.875 -112.032 547.663 -112.668L549.147 -113.304C549.359 -112.668 580.954 -53.5222 758.857 47.1741C836.253 91.0565 926.371 146.387 1005.89 224.188C1054.02 271.25 1094.73 323.188 1129.08 381.274C1099.4 327.852 1058.26 264.89 1005.89 209.772C946.939 147.87 877.601 95.9324 810.383 45.6902C739.985 -7.09586 673.404 -56.9141 627.179 -112.456L628.451 -113.516C674.676 -58.186 741.046 -8.36783 811.444 44.4182C878.661 94.6604 947.999 146.811 1007.16 208.712C1126.96 334.636 1187.39 500.838 1188.03 502.322L1186.55 502.957Z" fill="url(#paint19_linear_158_458)"/>
<path d="M1187.18 502.957L1184.85 496.598C1134.38 361.347 1014.79 170.342 861.698 48.2341C718.994 -65.3937 694.185 -112.244 693.973 -112.88L695.457 -113.516C695.669 -113.092 720.478 -66.2417 862.758 46.9622C931.036 101.444 998.465 174.582 1057.84 258.53C1109.79 332.092 1153.47 411.801 1181.88 484.302C1176.37 465.435 1160.89 423.036 1119.33 344.175C1073.53 257.682 1005.89 173.946 940.578 92.9645C881.63 19.8271 826.075 -49.0703 792.784 -112.668L794.269 -113.304C827.559 -49.7063 883.114 19.1912 942.062 92.1165C1007.37 173.098 1075.01 257.047 1120.81 343.539C1181.25 457.803 1186.55 496.174 1186.55 496.386L1187.18 502.957Z" fill="url(#paint20_linear_158_458)"/>
<path d="M1180.61 485.574C1156.86 380.426 1084.98 274.43 1021.58 180.729C988.287 131.759 957.117 85.3327 939.517 48.0221C890.112 -56.7021 878.449 -112.456 878.449 -112.88L879.934 -113.092C880.146 -112.456 891.596 -56.9141 940.79 47.3861C958.389 84.6967 989.559 130.911 1022.85 179.881C1086.25 273.582 1158.13 379.79 1182.09 485.15L1180.61 485.574Z" fill="url(#paint21_linear_158_458)"/>
<path d="M1186.33 978.88L1184.85 978.668C1185.06 977.82 1200.33 898.323 1203.72 797.415C1206.9 704.562 1200.75 573.975 1151.98 480.486C1053.81 291.813 890.748 180.729 729.172 89.1486C551.904 -11.7597 487.868 -111.608 487.231 -112.668L488.504 -113.516C489.14 -112.456 552.965 -12.8197 730.02 87.6647C833.284 146.175 910.68 199.385 974.08 254.927C1051.26 322.552 1109.79 396.113 1153.26 479.638C1202.03 573.551 1208.39 704.138 1205.21 797.415C1201.81 898.323 1186.55 978.032 1186.33 978.88Z" fill="url(#paint22_linear_158_458)"/>
<path d="M1144.35 978.669L1142.87 978.457C1147.11 919.735 1128.45 843.418 1090.7 763.285C1054.02 685.483 1001.86 611.922 947.787 561.468C906.651 523.097 846.643 482.395 783.03 439.36C674.889 366.223 552.54 283.122 498.045 191.965C413.016 49.5066 394.145 -111.396 393.933 -113.091L395.417 -113.303C395.629 -111.608 414.501 49.0826 499.106 191.117C553.388 282.062 675.737 364.951 783.666 438.088C847.279 481.123 907.287 521.825 948.635 560.408C1002.92 611.074 1055.08 684.847 1091.98 762.649C1129.93 842.994 1148.59 919.735 1144.35 978.669Z" fill="url(#paint23_linear_158_458)"/>
<path d="M1142.65 978.668C1127.6 788.723 1013.52 626.761 803.386 497.022C673.616 416.889 561.446 347.779 490.624 233.303L491.896 232.455C562.506 346.507 674.465 415.617 804.234 495.75C891.808 549.808 963.69 610.438 1017.76 675.943C1093.04 766.888 1135.44 868.856 1144.14 978.456L1142.65 978.668Z" fill="url(#paint24_linear_158_458)"/>
<path d="M1149.23 978.668H1147.53C1148.17 790.207 1095.79 663.012 966.447 539.42C910.892 486.422 844.735 442.54 780.698 399.929C706.271 350.535 629.3 299.445 567.807 233.515C487.231 147.022 445.883 57.3498 425.315 -2.43204C403.051 -67.3017 400.082 -112.456 400.082 -112.88H401.566C401.566 -112.456 404.747 -67.5137 426.799 -2.85602C447.155 56.9258 488.504 146.175 568.868 232.455C630.36 298.385 707.119 349.263 781.546 398.657C845.583 441.268 911.952 485.15 967.507 538.36C1036.84 604.714 1084.34 673.823 1112.97 749.505C1138.2 815.434 1149.65 888.359 1149.23 978.668Z" fill="url(#paint25_linear_158_458)"/>
<path d="M1182.09 978.88L1180.61 978.668C1180.82 977.82 1192.48 890.903 1187.82 780.667C1183.37 678.911 1163.65 536.24 1094.52 433.424C991.679 280.79 882.265 213.376 776.244 148.294C743.802 128.367 710.299 107.804 677.433 84.9088C537.909 -11.5477 482.566 -111.608 481.93 -112.456L483.414 -113.304C484.05 -112.244 539.181 -12.6077 678.281 83.6368C711.147 106.32 744.65 126.883 777.092 146.811C883.114 212.104 992.739 279.518 1095.79 432.576C1165.13 535.604 1185.06 678.699 1189.3 780.667C1193.97 890.903 1182.31 977.82 1182.09 978.88Z" fill="url(#paint26_linear_158_458)"/>
<path d="M1177 978.88L1175.52 978.668C1175.52 978.032 1184.85 915.282 1182.31 829.85C1180.19 750.988 1167.46 636.301 1119.12 537.088C1042.99 380.638 884.174 260.862 699.485 131.335C516.917 3.29174 473.872 -111.608 473.448 -112.88L474.933 -113.516C475.357 -112.456 518.401 2.23179 700.545 129.851C785.999 189.845 875.692 254.079 950.967 322.128C1030.06 393.781 1085.61 463.951 1120.6 536.028C1168.95 635.453 1181.67 750.564 1183.79 829.426C1186.12 915.282 1177 978.244 1177 978.88Z" fill="url(#paint27_linear_158_458)"/>
<path d="M1153.47 978.668L1151.98 978.456C1151.98 978.032 1157.5 934.574 1149.65 868.22C1142.44 807.166 1122.51 713.678 1067.17 615.313C1022.64 536.028 950.332 487.058 858.729 425.156C785.575 375.55 702.454 319.372 611.488 233.303C516.493 143.843 466.027 54.5939 440.158 -4.76392C412.168 -68.9976 406.655 -112.456 406.655 -113.092L408.14 -113.304C408.14 -112.88 413.865 -69.4216 441.642 -5.39989C467.299 53.746 517.977 142.783 612.548 232.243C703.514 318.1 786.423 374.278 859.577 423.884C951.18 485.998 1023.7 534.968 1068.44 614.678C1123.78 713.254 1143.93 806.954 1151.14 868.22C1158.98 934.574 1153.47 978.244 1153.47 978.668Z" fill="url(#paint28_linear_158_458)"/>
<path d="M1156.86 978.668L1155.38 978.456C1174.88 776.216 1107.88 594.114 966.659 465.223C904.954 408.833 844.734 367.071 786.635 326.58C717.721 278.458 646.475 228.852 570.14 154.018C430.616 17.0713 415.349 -111.82 415.137 -113.092L416.621 -113.304C416.833 -112.032 432.1 16.4353 571.2 152.746C647.323 227.58 718.569 277.186 787.483 325.096C845.582 365.587 905.802 407.561 967.719 463.951C1109.36 593.478 1176.58 776.004 1156.86 978.668Z" fill="url(#paint29_linear_158_458)"/>
<path d="M1170.43 978.88L1168.95 978.668C1169.16 976.972 1196.3 813.738 1137.14 623.157C1084.98 455.471 1000.37 392.934 831.587 268.706C802.326 247.083 769.035 222.492 733.412 195.569C612.336 103.776 545.543 24.915 510.768 -25.1152C473.024 -79.5972 463.906 -112.456 463.906 -112.88L465.391 -113.304C465.391 -112.88 474.508 -80.2332 512.04 -26.1751C546.815 23.643 613.396 102.504 734.26 194.085C769.883 221.008 802.962 245.599 832.436 267.222C1001.43 391.874 1086.25 454.411 1138.41 622.521C1198 813.526 1170.64 977.184 1170.43 978.88Z" fill="url(#paint30_linear_158_458)"/>
<path d="M1160.89 978.668L1159.41 978.456C1180.19 807.802 1148.8 663.648 1060.81 525.005C1006.31 439.36 889.9 359.651 766.491 275.278C715.389 240.299 662.378 204.048 613.821 167.162C529.428 102.928 482.778 30.2148 458.606 -19.6034C432.312 -73.4495 425.951 -112.88 425.951 -113.304L427.435 -113.516C427.435 -113.092 433.797 -74.0854 460.09 -20.2394C484.263 29.3668 530.7 101.868 614.881 165.89C663.438 202.776 716.449 239.027 767.551 274.006C890.96 358.379 1007.58 438.088 1062.29 524.157C1104.49 590.51 1133.11 656.228 1149.65 725.337C1168.31 803.986 1171.92 886.875 1160.89 978.668Z" fill="url(#paint31_linear_158_458)"/>
<path d="M1164.92 978.88L1163.43 978.668C1163.86 976.548 1196.51 770.068 1111.7 581.607C1041.09 424.944 880.782 322.976 739.349 233.091C707.967 213.164 678.281 194.297 649.868 175.005C558.902 113.528 505.891 38.4825 477.689 -13.4556C446.731 -70.0575 437.401 -112.456 437.401 -112.88L438.886 -113.304C438.886 -112.88 448.216 -70.4815 478.962 -14.3036C507.163 37.6345 559.962 112.256 650.716 173.522C679.13 192.601 708.815 211.468 740.198 231.607C881.842 321.704 1042.57 423.672 1113.18 580.759C1198.21 769.644 1165.34 976.76 1164.92 978.88Z" fill="url(#paint32_linear_158_458)"/>
<path d="M722.81 222.492C603.006 138.967 535.153 52.262 499.53 -5.82388C460.726 -68.7856 450.124 -112.456 450.124 -112.88L451.608 -113.304C451.608 -112.88 462.21 -69.2096 500.802 -6.67184C536.425 51.202 604.067 137.695 723.659 221.22L722.81 222.492Z" fill="url(#paint33_linear_158_458)"/>
<path d="M669.164 462.467C668.951 462.255 662.166 458.651 650.292 449.96C615.305 424.732 535.153 357.743 437.401 216.132C308.48 28.9428 298.514 -111.608 298.514 -113.092H299.998C299.998 -111.608 309.964 28.5189 438.674 215.072C506.951 314.072 566.747 376.61 608.307 413.709C573.108 379.578 525.611 323.824 473.449 237.119C366.367 58.8338 351.524 -111.396 351.524 -113.092L353.009 -113.304C353.221 -111.608 368.064 58.1978 474.721 236.059C552.116 365.163 619.546 424.944 650.928 448.264C663.014 456.955 669.588 460.559 669.8 460.771L669.164 462.467Z" fill="url(#paint34_linear_158_458)"/>
<path d="M669.163 462.255C667.891 461.619 536.637 390.602 368.487 207.44C230.024 56.5019 195.885 -111.184 195.673 -112.88L197.157 -113.092C197.581 -111.396 231.508 55.8659 369.76 206.592C494.864 343.115 599.613 417.101 645.202 446.144C596.857 411.801 484.05 324.672 393.932 200.021C276.461 37.4226 263.526 -111.608 263.526 -113.092L265.011 -113.304C265.223 -111.82 277.945 36.7866 395.205 198.961C512.464 361.347 668.315 459.923 670.011 460.771L669.163 462.255Z" fill="url(#paint35_linear_158_458)"/>
<path d="M669.163 462.467C668.739 462.255 659.621 457.803 643.93 449.111C575.864 412.013 385.663 302.413 259.497 168.434C104.07 3.71571 81.382 -111.82 81.1699 -112.88L82.6542 -113.092C82.8663 -112.032 105.555 3.07973 260.558 167.374C359.581 272.31 498.045 362.407 585.83 414.345C521.582 373.218 428.707 305.805 337.741 210.832C176.377 41.8743 146.055 -111.396 145.843 -112.88L147.327 -113.092C147.539 -111.608 177.861 41.2383 339.013 209.772C463.27 339.723 591.556 418.161 644.778 447.628C660.469 456.107 669.587 460.771 670.011 460.983L669.163 462.467Z" fill="url(#paint36_linear_158_458)"/>
<path d="M669.375 462.467C666.407 461.195 360.642 341.631 195.885 192.389C31.1282 42.7223 -28.4557 -111.184 -29.0918 -112.88L-27.6075 -113.516C-26.9714 -111.82 32.6125 41.8743 196.945 191.117C330.744 312.588 558.053 414.345 639.689 448.687C529.427 396.749 395.205 328.7 238.293 186.877C71.4162 35.9386 29.6439 -111.396 29.2198 -112.88L30.7041 -113.304C31.1282 -111.82 72.9005 35.0906 239.354 185.605C410.472 340.359 554.448 407.137 670.011 460.983L669.375 462.467Z" fill="url(#paint37_linear_158_458)"/>
<path d="M669.375 462.467C651.776 455.471 633.116 448.264 613.396 440.632C503.346 398.233 366.367 345.235 214.121 244.963C41.5183 131.335 -28.4557 -33.8069 -29.0918 -35.5028L-27.6075 -36.1388C-26.9714 -34.4429 43.0026 130.063 214.969 243.267C367.215 343.539 503.982 396.325 614.032 438.724C633.752 446.356 652.624 453.563 670.224 460.559L669.375 462.467Z" fill="url(#paint38_linear_158_458)"/>
<path d="M669.375 462.467C608.519 440.632 558.689 428.336 510.344 416.465C423.406 395.053 341.134 374.702 209.668 302.201C18.8297 196.629 -28.6677 91.6924 -29.0918 90.8445L-27.6075 90.2085C-27.1834 91.2685 20.102 195.569 210.516 300.717C341.77 373.218 423.83 393.569 510.768 414.981C559.113 426.852 608.943 439.148 670.011 460.983L669.375 462.467Z" fill="url(#paint39_linear_158_458)"/>
<path d="M669.375 462.467C614.032 445.507 554.872 431.516 497.833 417.948C385.027 391.237 268.191 363.466 166.411 310.68C25.4029 237.543 -28.4558 149.566 -28.8799 148.718L-27.6076 147.87C-27.1835 148.718 26.6752 236.271 167.259 309.196C269.039 361.983 385.663 389.754 498.469 416.465C555.508 430.032 614.668 444.024 670.223 460.983L669.375 462.467Z" fill="url(#paint40_linear_158_458)"/>
<path d="M669.375 462.467C618.697 446.143 562.506 436.604 497.621 425.368C397.325 408.197 283.883 388.482 155.809 338.239C28.3716 287.997 -28.4557 196.205 -29.0918 195.357L-27.8195 194.509C-27.1834 195.357 29.4319 286.937 156.233 336.755C283.883 386.998 397.537 406.713 497.621 423.884C562.718 435.12 618.909 444.872 669.587 460.983L669.375 462.467Z" fill="url(#paint41_linear_158_458)"/>
<path d="M659.197 459.287C589.859 442.752 532.184 436.816 470.904 430.456C391.388 422.188 309.116 413.709 196.309 380.638C16.7093 327.852 -28.6677 255.986 -29.0918 255.351L-27.8195 254.503C-27.3955 255.139 17.7695 326.58 196.521 379.154C309.116 412.225 391.388 420.704 470.904 428.972C532.184 435.332 590.072 441.268 659.409 457.803L659.197 459.287Z" fill="url(#paint42_linear_158_458)"/>
<path d="M655.168 459.287C593.252 445.295 546.179 444.024 486.595 442.328C425.315 440.632 348.979 438.512 230.024 420.916C126.335 405.653 61.4502 376.398 25.191 354.563C-13.8248 330.82 -28.8798 310.468 -29.0918 310.256L-27.8195 309.408C-27.1834 310.256 32.6125 390.178 230.448 419.432C349.192 437.028 425.527 439.148 486.807 440.844C546.603 442.54 593.676 443.812 655.805 457.803L655.168 459.287Z" fill="url(#paint43_linear_158_458)"/>
<path d="M655.38 459.287C567.595 450.171 494.864 452.503 424.678 454.835C350.252 457.167 279.854 459.499 196.309 448.475C53.3925 429.608 -28.0317 370.462 -28.8799 369.826L-28.0317 368.554C-27.1835 369.19 54.0286 428.124 196.309 446.779C279.642 457.803 350.04 455.471 424.466 453.139C494.864 450.807 567.595 448.475 655.38 457.591V459.287Z" fill="url(#paint44_linear_158_458)"/>
<path d="M224.087 489.39C206.487 489.39 189.1 488.33 171.924 486.21C38.1255 468.191 -28.2438 421.34 -28.8799 420.704L-28.0317 419.432C-27.3956 419.856 38.5495 466.707 171.924 484.514C237.233 493.206 305.723 482.818 378.453 471.795C456.273 460.135 536.637 447.839 621.454 457.591L621.242 459.075C536.637 449.323 456.273 461.619 378.665 473.279C325.231 481.546 273.704 489.39 224.087 489.39Z" fill="url(#paint45_linear_158_458)"/>
<path d="M193.977 511.225C53.8166 511.225 -28.0317 459.711 -28.8799 459.075L-28.0317 457.803C-27.1835 458.439 60.3899 513.557 210.092 509.317C298.301 506.773 338.801 495.962 381.846 484.302C413.228 475.822 445.459 467.131 498.469 460.771L498.681 462.255C445.883 468.615 413.652 477.306 382.482 485.786C339.437 497.446 298.725 508.469 210.304 510.801C204.791 511.013 199.278 511.225 193.977 511.225Z" fill="url(#paint46_linear_158_458)"/>
<path d="M178.709 525.429C42.7903 525.429 -28.0318 492.57 -28.668 492.146L-28.0318 490.662C-27.3957 491.086 45.3348 524.793 185.071 523.733V525.429C182.95 525.429 180.83 525.429 178.709 525.429Z" fill="url(#paint47_linear_158_458)"/>
<path d="M1017.12 712.83C1015.64 711.346 875.48 561.891 700.545 525.429C589.223 502.321 482.99 523.945 380.361 544.932C320.566 557.227 264.374 568.675 211.152 569.947C201.61 570.159 192.492 570.371 183.586 570.371C36.429 570.371 -28.0318 537.724 -28.668 537.3L-28.0318 535.816C-27.3957 536.24 44.9107 572.703 211.152 568.251C264.162 566.767 320.566 555.319 380.149 543.236C482.99 522.249 589.223 500.625 700.969 523.733C821.621 548.748 925.522 627.185 979.381 674.459C962.205 658.348 939.729 638.42 913.012 617.645C854.488 572.067 763.522 513.133 663.438 492.146C569.503 472.431 482.99 493.418 391.388 515.465C331.804 529.88 270.312 544.72 206.063 547.9C29.8557 556.379 -28.0318 525.429 -28.668 525.217L-27.8198 523.733C-27.1837 523.945 30.2798 554.684 206.063 546.204C270.312 543.236 331.804 528.184 391.176 513.769C482.99 491.51 569.715 470.523 664.074 490.45C764.582 511.649 855.548 570.583 914.284 616.373C977.896 665.979 1018.18 711.134 1018.61 711.558L1017.12 712.83Z" fill="url(#paint48_linear_158_458)"/>
<path d="M1017.34 712.83C1016.91 712.406 968.355 675.307 895.624 639.268C828.619 605.986 726.627 566.979 621.666 569.947C524.974 572.491 462.21 587.754 401.354 602.594C336.893 618.281 275.825 632.909 185.283 626.761C22.0103 615.949 -28.4558 578.003 -28.8799 577.579L-27.8197 576.307C-27.3956 576.731 22.8584 614.465 185.283 625.277C275.825 631.213 336.681 616.585 400.93 601.11C459.029 587.118 524.762 571.219 621.666 568.463C727.051 565.707 829.255 604.714 896.472 637.997C942.91 661.104 979.593 684.423 1000.16 698.626C956.904 664.284 837.737 577.579 700.757 549.172C598.553 527.972 496.137 550.868 397.325 572.915C329.471 588.178 265.223 602.382 207.123 600.474C67.3873 595.81 -27.8197 555.744 -28.6678 555.32L-28.0317 553.836C-27.1835 554.26 67.8114 594.114 207.123 598.778C265.011 600.686 329.047 586.482 396.901 571.219C496.137 548.96 598.553 526.065 701.182 547.476C872.936 583.091 1017.12 710.286 1018.61 711.558L1017.34 712.83Z" fill="url(#paint49_linear_158_458)"/>
<path d="M1017.34 713.042C1016.91 712.83 966.446 686.119 890.959 663.86C821.409 643.296 715.388 622.097 606.823 638.208C544.27 647.536 493.804 656.228 449.275 664.072C340.71 682.939 274.977 694.174 185.071 688.239C59.7538 679.547 -28.0317 616.373 -28.8799 615.737L-28.0317 614.465C-27.1835 615.101 60.1779 678.063 185.071 686.543C274.977 692.691 340.498 681.243 448.851 662.588C493.38 654.956 543.846 646.052 606.399 636.725C715.388 620.401 821.409 641.6 891.383 662.376C944.818 678.275 985.742 696.294 1005.46 705.41C986.59 693.75 946.302 670.219 893.928 648.172C826.286 619.765 724.294 587.966 621.666 597.93C544.058 605.562 488.291 618.917 434.22 631.849C361.278 649.232 298.301 664.284 201.61 659.832C35.793 651.988 -28.2438 598.142 -28.8799 597.506L-27.8197 596.234C-27.1835 596.87 36.4291 650.292 201.822 657.924C298.301 662.376 361.066 647.324 434.008 629.941C485.535 617.645 543.846 603.654 621.666 596.022C724.506 585.846 826.923 617.857 894.776 646.264C968.143 677.215 1017.97 710.922 1018.4 711.346L1017.34 713.042Z" fill="url(#paint50_linear_158_458)"/>
<path d="M290.88 748.656C164.079 748.656 57.2093 713.89 -28.8799 644.356L-27.8197 643.084C118.277 761.164 325.231 778.759 586.891 695.446C706.058 657.5 815.472 663.224 886.506 674.671C921.069 680.183 950.119 687.815 971.747 694.386C951.391 687.179 924.462 678.699 892.656 671.491C826.074 656.016 724.294 642.236 616.577 663.648C592.616 668.523 567.807 673.823 543.634 679.123C450.124 699.262 353.644 720.249 257.801 720.249C256.953 720.249 256.105 720.249 255.257 720.249C145.631 719.614 52.7564 690.783 -28.8799 632.273L-28.0317 631.001C153.688 761.588 351.736 718.766 542.998 677.427C566.959 672.339 591.768 666.827 615.941 661.952C723.87 640.328 825.862 654.32 892.656 669.795C964.962 686.543 1012.46 708.802 1012.88 709.014L1012.25 710.498C1011.82 710.286 962.63 688.663 886.082 676.367C815.472 664.919 706.059 659.196 587.315 697.142C478.961 731.485 379.938 748.656 290.88 748.656Z" fill="url(#paint51_linear_158_458)"/>
<path d="M304.238 788.723C274.341 788.723 244.655 785.543 215.393 778.335C55.725 739.329 -28.0317 662.8 -28.8799 661.952L-27.8197 660.68C-26.9715 661.528 56.5731 737.633 215.605 776.851C341.982 808.014 475.569 763.072 616.789 715.586C636.721 708.802 657.289 702.018 677.645 695.446C837.313 643.508 1001.01 703.29 1002.49 703.926L1001.86 705.41C1000.16 704.774 837.101 645.204 678.069 696.93C657.713 703.502 637.145 710.498 617.213 717.07C508.435 753.744 404.11 788.723 304.238 788.723Z" fill="url(#paint52_linear_158_458)"/>
<path d="M1593.03 566.767C1436.33 614.465 1337.73 711.346 1282.6 784.271C1250.58 826.458 1229.17 865.888 1216.02 893.447C1227.26 859.316 1249.74 799.535 1287.69 730.637C1341.76 632.485 1439.09 495.962 1595.15 402.897L1592.4 398.445C1435.27 492.146 1337.31 629.517 1283.03 728.305C1249.52 789.359 1227.9 843.417 1215.38 879.032C1233.41 770.28 1228.53 685.695 1215.17 611.073C1213.48 601.534 1211.57 591.994 1209.45 582.455C1202.03 547.476 1192.91 514.193 1184 481.334C1182.09 474.55 1180.4 467.979 1178.49 461.407C1158.98 388.694 1142.02 318.1 1146.68 230.971C1153.47 103.564 1182.31 17.4952 1205.21 -32.323C1230.23 -86.805 1253.76 -110.972 1253.98 -111.184L1250.16 -115C1249.1 -113.94 1225.77 -90.1969 1200.75 -35.5029C1177.64 14.7393 1148.59 101.656 1141.59 230.123C1138.2 294.781 1146.47 350.535 1158.98 404.381C1132.26 336.756 1100.03 284.393 1068.65 233.303C1011.19 140.239 957.117 52.4739 950.756 -113.092L945.455 -112.88C951.816 54.1698 1006.31 142.571 1063.99 236.271C1103.43 300.293 1144.14 366.434 1173.61 462.467C1175.31 469.039 1177.22 475.61 1178.91 482.394C1179.55 484.514 1180.19 486.846 1180.82 488.966C1159.41 435.756 1130.36 385.09 1093.67 337.603C1026.24 250.475 932.732 173.309 815.897 108.228C621.03 -0.100182 501.65 -113.94 500.378 -115L496.773 -111.184C498.046 -110.124 617.85 4.13966 813.353 112.892C1029.42 232.879 1160.25 389.33 1203.51 578.427C1206.05 590.086 1208.39 601.958 1210.51 614.253C1210.93 617.221 1211.57 620.401 1211.99 623.369C1225.35 704.562 1227.9 798.051 1201.81 921.642C1201.81 921.854 1201.81 921.854 1201.81 921.854C1198 939.874 1193.54 958.741 1188.46 978.032L1193.54 979.304C1197.57 963.617 1201.39 948.565 1204.57 933.726C1205.84 930.122 1228.74 863.556 1286.84 787.027C1341.55 714.95 1439.3 618.917 1594.52 571.643L1593.03 566.767Z" fill="url(#paint53_linear_158_458)"/>
<path d="M858.093 558.499C797.661 514.829 738.713 485.786 679.129 462.467C676.373 460.771 620.606 423.672 557.629 336.331C498.257 254.078 420.226 109.076 385.875 -113.516L380.574 -112.668C414.925 110.984 493.38 256.622 553.176 339.511C597.917 401.413 639.053 438.512 660.682 455.683C623.574 441.904 586.255 430.032 548.087 417.737C445.035 384.878 338.59 350.959 215.605 274.43C100.678 202.988 41.0944 139.391 11.4084 98.4762C-20.6099 54.1698 -25.6989 26.3988 -25.6989 25.9748L-31 26.8228C-30.788 27.8827 -25.911 55.6537 6.95556 100.808C36.8535 142.147 97.0735 206.592 213.061 278.67C336.681 355.411 443.338 389.542 546.603 422.4C581.378 433.424 615.517 444.448 649.231 456.743C554.449 442.964 466.239 463.527 373.365 485.362C260.982 511.649 133.757 541.54 -28.0314 514.193L-28.8796 519.493C17.1336 527.336 60.1782 530.516 101.102 530.516C205.003 530.516 293.637 509.741 374.637 490.662C476.205 466.919 572.048 444.448 676.797 467.343C736.169 490.662 794.904 519.493 854.912 562.739C920.221 610.013 972.384 659.196 1013.52 707.53C892.232 657.288 784.302 697.99 659.834 744.629C595.373 768.796 528.792 794.023 453.304 809.498C371.244 826.458 294.061 824.974 225.359 813.738C224.299 813.526 223.451 813.314 222.39 812.89V813.102C109.16 794.235 19.8901 748.232 -26.7592 712.618L-29.9398 716.858C-13.1885 729.577 49.364 773.459 152.204 802.714C175.529 809.286 198.854 814.586 222.178 818.614C280.066 833.877 336.257 843.629 390.54 852.957C514.797 874.368 632.056 894.295 728.111 980.788L731.716 976.76C634.601 889.419 516.493 869.068 391.6 847.657C352.584 840.873 312.72 834.089 271.796 825.186C290.88 826.882 309.964 827.942 329.048 827.73C371.244 827.73 413.228 823.49 454.789 814.798C530.7 799.111 597.493 774.095 662.166 749.716C788.755 702.018 898.169 660.892 1021.58 716.646C1102.37 814.798 1137.35 909.559 1141.17 978.88L1146.47 978.668C1140.32 872.036 1061.44 705.622 858.093 558.499Z" fill="url(#paint54_linear_158_458)"/>
</g>
<defs>
<linearGradient id="paint0_linear_158_458" x1="190.865" y1="1329.66" x2="1906.83" y2="470.055" gradientUnits="userSpaceOnUse">
<stop stop-color="#F0CA62"/>
<stop offset="0.209" stop-color="#C59142"/>
<stop offset="0.4259" stop-color="#A76D0C"/>
<stop offset="0.4485" stop-color="#B27C1F"/>
<stop offset="0.5367" stop-color="#DBB666"/>
<stop offset="0.6002" stop-color="#F5D993"/>
<stop offset="0.6323" stop-color="#FFE7A4"/>
<stop offset="0.8017" stop-color="#B77C2B"/>
<stop offset="0.8598" stop-color="#9E5700"/>
<stop offset="0.8895" stop-color="#A15C04"/>
<stop offset="0.9223" stop-color="#AA6910"/>
<stop offset="0.9566" stop-color="#B97F23"/>
<stop offset="0.9917" stop-color="#CE9E3E"/>
<stop offset="1" stop-color="#D4A645"/>
</linearGradient>
<linearGradient id="paint1_linear_158_458" x1="182.432" y1="1312.82" x2="1898.4" y2="453.215" gradientUnits="userSpaceOnUse">
<stop stop-color="#F0CA62"/>
<stop offset="0.209" stop-color="#C59142"/>
<stop offset="0.4259" stop-color="#A76D0C"/>
<stop offset="0.4485" stop-color="#B27C1F"/>
<stop offset="0.5367" stop-color="#DBB666"/>
<stop offset="0.6002" stop-color="#F5D993"/>
<stop offset="0.6323" stop-color="#FFE7A4"/>
<stop offset="0.8017" stop-color="#B77C2B"/>
<stop offset="0.8598" stop-color="#9E5700"/>
<stop offset="0.8895" stop-color="#A15C04"/>
<stop offset="0.9223" stop-color="#AA6910"/>
<stop offset="0.9566" stop-color="#B97F23"/>
<stop offset="0.9917" stop-color="#CE9E3E"/>
<stop offset="1" stop-color="#D4A645"/>
</linearGradient>
<linearGradient id="paint2_linear_158_458" x1="166.884" y1="1281.79" x2="1882.85" y2="422.188" gradientUnits="userSpaceOnUse">
<stop stop-color="#F0CA62"/>
<stop offset="0.209" stop-color="#C59142"/>
<stop offset="0.4259" stop-color="#A76D0C"/>
<stop offset="0.4485" stop-color="#B27C1F"/>
<stop offset="0.5367" stop-color="#DBB666"/>
<stop offset="0.6002" stop-color="#F5D993"/>
<stop offset="0.6323" stop-color="#FFE7A4"/>
<stop offset="0.8017" stop-color="#B77C2B"/>
<stop offset="0.8598" stop-color="#9E5700"/>
<stop offset="0.8895" stop-color="#A15C04"/>
<stop offset="0.9223" stop-color="#AA6910"/>
<stop offset="0.9566" stop-color="#B97F23"/>
<stop offset="0.9917" stop-color="#CE9E3E"/>
<stop offset="1" stop-color="#D4A645"/>
</linearGradient>
<linearGradient id="paint3_linear_158_458" x1="211.436" y1="1370.71" x2="1927.4" y2="511.114" gradientUnits="userSpaceOnUse">
<stop stop-color="#F0CA62"/>
<stop offset="0.209" stop-color="#C59142"/>
<stop offset="0.4259" stop-color="#A76D0C"/>
<stop offset="0.4485" stop-color="#B27C1F"/>
<stop offset="0.5367" stop-color="#DBB666"/>
<stop offset="0.6002" stop-color="#F5D993"/>
<stop offset="0.6323" stop-color="#FFE7A4"/>
<stop offset="0.8017" stop-color="#B77C2B"/>
<stop offset="0.8598" stop-color="#9E5700"/>
<stop offset="0.8895" stop-color="#A15C04"/>
<stop offset="0.9223" stop-color="#AA6910"/>
<stop offset="0.9566" stop-color="#B97F23"/>
<stop offset="0.9917" stop-color="#CE9E3E"/>
<stop offset="1" stop-color="#D4A645"/>
</linearGradient>
<linearGradient id="paint4_linear_158_458" x1="216.122" y1="1380.08" x2="1932.09" y2="520.479" gradientUnits="userSpaceOnUse">
<stop stop-color="#F0CA62"/>
<stop offset="0.209" stop-color="#C59142"/>
<stop offset="0.4259" stop-color="#A76D0C"/>
<stop offset="0.4485" stop-color="#B27C1F"/>
<stop offset="0.5367" stop-color="#DBB666"/>
<stop offset="0.6002" stop-color="#F5D993"/>
<stop offset="0.6323" stop-color="#FFE7A4"/>
<stop offset="0.8017" stop-color="#B77C2B"/>
<stop offset="0.8598" stop-color="#9E5700"/>
<stop offset="0.8895" stop-color="#A15C04"/>
<stop offset="0.9223" stop-color="#AA6910"/>
<stop offset="0.9566" stop-color="#B97F23"/>
<stop offset="0.9917" stop-color="#CE9E3E"/>
<stop offset="1" stop-color="#D4A645"/>
</linearGradient>
<linearGradient id="paint5_linear_158_458" x1="229.387" y1="1406.56" x2="1945.35" y2="546.958" gradientUnits="userSpaceOnUse">
<stop stop-color="#F0CA62"/>
<stop offset="0.209" stop-color="#C59142"/>
<stop offset="0.4259" stop-color="#A76D0C"/>
<stop offset="0.4485" stop-color="#B27C1F"/>
<stop offset="0.5367" stop-color="#DBB666"/>
<stop offset="0.6002" stop-color="#F5D993"/>
<stop offset="0.6323" stop-color="#FFE7A4"/>
<stop offset="0.8017" stop-color="#B77C2B"/>
<stop offset="0.8598" stop-color="#9E5700"/>
<stop offset="0.8895" stop-color="#A15C04"/>
<stop offset="0.9223" stop-color="#AA6910"/>
<stop offset="0.9566" stop-color="#B97F23"/>
<stop offset="0.9917" stop-color="#CE9E3E"/>
<stop offset="1" stop-color="#D4A645"/>
</linearGradient>
<linearGradient id="paint6_linear_158_458" x1="225.117" y1="1398.03" x2="1941.08" y2="538.432" gradientUnits="userSpaceOnUse">
<stop stop-color="#F0CA62"/>
<stop offset="0.209" stop-color="#C59142"/>
<stop offset="0.4259" stop-color="#A76D0C"/>
<stop offset="0.4485" stop-color="#B27C1F"/>
<stop offset="0.5367" stop-color="#DBB666"/>
<stop offset="0.6002" stop-color="#F5D993"/>
<stop offset="0.6323" stop-color="#FFE7A4"/>
<stop offset="0.8017" stop-color="#B77C2B"/>
<stop offset="0.8598" stop-color="#9E5700"/>
<stop offset="0.8895" stop-color="#A15C04"/>
<stop offset="0.9223" stop-color="#AA6910"/>
<stop offset="0.9566" stop-color="#B97F23"/>
<stop offset="0.9917" stop-color="#CE9E3E"/>
<stop offset="1" stop-color="#D4A645"/>
</linearGradient>
<linearGradient id="paint7_linear_158_458" x1="220.754" y1="1389.31" x2="1936.72" y2="529.715" gradientUnits="userSpaceOnUse">
<stop stop-color="#F0CA62"/>
<stop offset="0.209" stop-color="#C59142"/>
<stop offset="0.4259" stop-color="#A76D0C"/>
<stop offset="0.4485" stop-color="#B27C1F"/>
<stop offset="0.5367" stop-color="#DBB666"/>
<stop offset="0.6002" stop-color="#F5D993"/>
<stop offset="0.6323" stop-color="#FFE7A4"/>
<stop offset="0.8017" stop-color="#B77C2B"/>
<stop offset="0.8598" stop-color="#9E5700"/>
<stop offset="0.8895" stop-color="#A15C04"/>
<stop offset="0.9223" stop-color="#AA6910"/>
<stop offset="0.9566" stop-color="#B97F23"/>
<stop offset="0.9917" stop-color="#CE9E3E"/>
<stop offset="1" stop-color="#D4A645"/>
</linearGradient>
<linearGradient id="paint8_linear_158_458" x1="140.55" y1="1229.22" x2="1856.52" y2="369.618" gradientUnits="userSpaceOnUse">
<stop stop-color="#F0CA62"/>
<stop offset="0.209" stop-color="#C59142"/>
<stop offset="0.4259" stop-color="#A76D0C"/>
<stop offset="0.4485" stop-color="#B27C1F"/>
<stop offset="0.5367" stop-color="#DBB666"/>
<stop offset="0.6002" stop-color="#F5D993"/>
<stop offset="0.6323" stop-color="#FFE7A4"/>
<stop offset="0.8017" stop-color="#B77C2B"/>
<stop offset="0.8598" stop-color="#9E5700"/>
<stop offset="0.8895" stop-color="#A15C04"/>
<stop offset="0.9223" stop-color="#AA6910"/>
<stop offset="0.9566" stop-color="#B97F23"/>
<stop offset="0.9917" stop-color="#CE9E3E"/>
<stop offset="1" stop-color="#D4A645"/>
</linearGradient>
<linearGradient id="paint9_linear_158_458" x1="27.1207" y1="1002.78" x2="1743.08" y2="143.181" gradientUnits="userSpaceOnUse">
<stop stop-color="#F0CA62"/>
<stop offset="0.209" stop-color="#C59142"/>
<stop offset="0.4259" stop-color="#A76D0C"/>
<stop offset="0.4485" stop-color="#B27C1F"/>
<stop offset="0.5367" stop-color="#DBB666"/>
<stop offset="0.6002" stop-color="#F5D993"/>
<stop offset="0.6323" stop-color="#FFE7A4"/>
<stop offset="0.8017" stop-color="#B77C2B"/>
<stop offset="0.8598" stop-color="#9E5700"/>
<stop offset="0.8895" stop-color="#A15C04"/>
<stop offset="0.9223" stop-color="#AA6910"/>
<stop offset="0.9566" stop-color="#B97F23"/>
<stop offset="0.9917" stop-color="#CE9E3E"/>
<stop offset="1" stop-color="#D4A645"/>
</linearGradient>
<linearGradient id="paint10_linear_158_458" x1="37.7344" y1="1023.97" x2="1753.7" y2="164.375" gradientUnits="userSpaceOnUse">
<stop stop-color="#F0CA62"/>
<stop offset="0.209" stop-color="#C59142"/>
<stop offset="0.4259" stop-color="#A76D0C"/>
<stop offset="0.4485" stop-color="#B27C1F"/>
<stop offset="0.5367" stop-color="#DBB666"/>
<stop offset="0.6002" stop-color="#F5D993"/>
<stop offset="0.6323" stop-color="#FFE7A4"/>
<stop offset="0.8017" stop-color="#B77C2B"/>
<stop offset="0.8598" stop-color="#9E5700"/>
<stop offset="0.8895" stop-color="#A15C04"/>
<stop offset="0.9223" stop-color="#AA6910"/>
<stop offset="0.9566" stop-color="#B97F23"/>
<stop offset="0.9917" stop-color="#CE9E3E"/>
<stop offset="1" stop-color="#D4A645"/>
</linearGradient>
<linearGradient id="paint11_linear_158_458" x1="50.9949" y1="1050.44" x2="1766.96" y2="190.838" gradientUnits="userSpaceOnUse">
<stop stop-color="#F0CA62"/>
<stop offset="0.209" stop-color="#C59142"/>
<stop offset="0.4259" stop-color="#A76D0C"/>
<stop offset="0.4485" stop-color="#B27C1F"/>
<stop offset="0.5367" stop-color="#DBB666"/>
<stop offset="0.6002" stop-color="#F5D993"/>
<stop offset="0.6323" stop-color="#FFE7A4"/>
<stop offset="0.8017" stop-color="#B77C2B"/>
<stop offset="0.8598" stop-color="#9E5700"/>
<stop offset="0.8895" stop-color="#A15C04"/>
<stop offset="0.9223" stop-color="#AA6910"/>
<stop offset="0.9566" stop-color="#B97F23"/>
<stop offset="0.9917" stop-color="#CE9E3E"/>
<stop offset="1" stop-color="#D4A645"/>
</linearGradient>
<linearGradient id="paint12_linear_158_458" x1="65.6425" y1="1079.68" x2="1781.61" y2="220.087" gradientUnits="userSpaceOnUse">
<stop stop-color="#F0CA62"/>
<stop offset="0.209" stop-color="#C59142"/>
<stop offset="0.4259" stop-color="#A76D0C"/>
<stop offset="0.4485" stop-color="#B27C1F"/>
<stop offset="0.5367" stop-color="#DBB666"/>
<stop offset="0.6002" stop-color="#F5D993"/>
<stop offset="0.6323" stop-color="#FFE7A4"/>
<stop offset="0.8017" stop-color="#B77C2B"/>
<stop offset="0.8598" stop-color="#9E5700"/>
<stop offset="0.8895" stop-color="#A15C04"/>
<stop offset="0.9223" stop-color="#AA6910"/>
<stop offset="0.9566" stop-color="#B97F23"/>
<stop offset="0.9917" stop-color="#CE9E3E"/>
<stop offset="1" stop-color="#D4A645"/>
</linearGradient>
<linearGradient id="paint13_linear_158_458" x1="93.0847" y1="1134.46" x2="1809.05" y2="274.865" gradientUnits="userSpaceOnUse">
<stop stop-color="#F0CA62"/>
<stop offset="0.209" stop-color="#C59142"/>
<stop offset="0.4259" stop-color="#A76D0C"/>
<stop offset="0.4485" stop-color="#B27C1F"/>
<stop offset="0.5367" stop-color="#DBB666"/>
<stop offset="0.6002" stop-color="#F5D993"/>
<stop offset="0.6323" stop-color="#FFE7A4"/>
<stop offset="0.8017" stop-color="#B77C2B"/>
<stop offset="0.8598" stop-color="#9E5700"/>
<stop offset="0.8895" stop-color="#A15C04"/>
<stop offset="0.9223" stop-color="#AA6910"/>
<stop offset="0.9566" stop-color="#B97F23"/>
<stop offset="0.9917" stop-color="#CE9E3E"/>
<stop offset="1" stop-color="#D4A645"/>
</linearGradient>
<linearGradient id="paint14_linear_158_458" x1="-104.052" y1="740.931" x2="1611.91" y2="-118.668" gradientUnits="userSpaceOnUse">
<stop stop-color="#F0CA62"/>
<stop offset="0.209" stop-color="#C59142"/>
<stop offset="0.4259" stop-color="#A76D0C"/>
<stop offset="0.4485" stop-color="#B27C1F"/>
<stop offset="0.5367" stop-color="#DBB666"/>
<stop offset="0.6002" stop-color="#F5D993"/>
<stop offset="0.6323" stop-color="#FFE7A4"/>
<stop offset="0.8017" stop-color="#B77C2B"/>
<stop offset="0.8598" stop-color="#9E5700"/>
<stop offset="0.8895" stop-color="#A15C04"/>
<stop offset="0.9223" stop-color="#AA6910"/>
<stop offset="0.9566" stop-color="#B97F23"/>
<stop offset="0.9917" stop-color="#CE9E3E"/>
<stop offset="1" stop-color="#D4A645"/>
</linearGradient>
<linearGradient id="paint15_linear_158_458" x1="-100.965" y1="747.092" x2="1615" y2="-112.507" gradientUnits="userSpaceOnUse">
<stop stop-color="#F0CA62"/>
<stop offset="0.209" stop-color="#C59142"/>
<stop offset="0.4259" stop-color="#A76D0C"/>
<stop offset="0.4485" stop-color="#B27C1F"/>
<stop offset="0.5367" stop-color="#DBB666"/>
<stop offset="0.6002" stop-color="#F5D993"/>
<stop offset="0.6323" stop-color="#FFE7A4"/>
<stop offset="0.8017" stop-color="#B77C2B"/>
<stop offset="0.8598" stop-color="#9E5700"/>
<stop offset="0.8895" stop-color="#A15C04"/>
<stop offset="0.9223" stop-color="#AA6910"/>
<stop offset="0.9566" stop-color="#B97F23"/>
<stop offset="0.9917" stop-color="#CE9E3E"/>
<stop offset="1" stop-color="#D4A645"/>
</linearGradient>
<linearGradient id="paint16_linear_158_458" x1="-100.803" y1="747.417" x2="1615.16" y2="-112.183" gradientUnits="userSpaceOnUse">
<stop stop-color="#F0CA62"/>
<stop offset="0.209" stop-color="#C59142"/>
<stop offset="0.4259" stop-color="#A76D0C"/>
<stop offset="0.4485" stop-color="#B27C1F"/>
<stop offset="0.5367" stop-color="#DBB666"/>
<stop offset="0.6002" stop-color="#F5D993"/>
<stop offset="0.6323" stop-color="#FFE7A4"/>
<stop offset="0.8017" stop-color="#B77C2B"/>
<stop offset="0.8598" stop-color="#9E5700"/>
<stop offset="0.8895" stop-color="#A15C04"/>
<stop offset="0.9223" stop-color="#AA6910"/>
<stop offset="0.9566" stop-color="#B97F23"/>
<stop offset="0.9917" stop-color="#CE9E3E"/>
<stop offset="1" stop-color="#D4A645"/>
</linearGradient>
<linearGradient id="paint17_linear_158_458" x1="-96.1425" y1="756.717" x2="1619.82" y2="-102.881" gradientUnits="userSpaceOnUse">
<stop stop-color="#F0CA62"/>
<stop offset="0.209" stop-color="#C59142"/>
<stop offset="0.4259" stop-color="#A76D0C"/>
<stop offset="0.4485" stop-color="#B27C1F"/>
<stop offset="0.5367" stop-color="#DBB666"/>
<stop offset="0.6002" stop-color="#F5D993"/>
<stop offset="0.6323" stop-color="#FFE7A4"/>
<stop offset="0.8017" stop-color="#B77C2B"/>
<stop offset="0.8598" stop-color="#9E5700"/>
<stop offset="0.8895" stop-color="#A15C04"/>
<stop offset="0.9223" stop-color="#AA6910"/>
<stop offset="0.9566" stop-color="#B97F23"/>
<stop offset="0.9917" stop-color="#CE9E3E"/>
<stop offset="1" stop-color="#D4A645"/>
</linearGradient>
<linearGradient id="paint18_linear_158_458" x1="-102.609" y1="743.809" x2="1613.36" y2="-115.792" gradientUnits="userSpaceOnUse">
<stop stop-color="#F0CA62"/>
<stop offset="0.209" stop-color="#C59142"/>
<stop offset="0.4259" stop-color="#A76D0C"/>
<stop offset="0.4485" stop-color="#B27C1F"/>
<stop offset="0.5367" stop-color="#DBB666"/>
<stop offset="0.6002" stop-color="#F5D993"/>
<stop offset="0.6323" stop-color="#FFE7A4"/>
<stop offset="0.8017" stop-color="#B77C2B"/>
<stop offset="0.8598" stop-color="#9E5700"/>
<stop offset="0.8895" stop-color="#A15C04"/>
<stop offset="0.9223" stop-color="#AA6910"/>
<stop offset="0.9566" stop-color="#B97F23"/>
<stop offset="0.9917" stop-color="#CE9E3E"/>
<stop offset="1" stop-color="#D4A645"/>
</linearGradient>
<linearGradient id="paint19_linear_158_458" x1="-127.89" y1="693.342" x2="1588.08" y2="-166.257" gradientUnits="userSpaceOnUse">
<stop stop-color="#F0CA62"/>
<stop offset="0.209" stop-color="#C59142"/>
<stop offset="0.4259" stop-color="#A76D0C"/>
<stop offset="0.4485" stop-color="#B27C1F"/>
<stop offset="0.5367" stop-color="#DBB666"/>
<stop offset="0.6002" stop-color="#F5D993"/>
<stop offset="0.6323" stop-color="#FFE7A4"/>
<stop offset="0.8017" stop-color="#B77C2B"/>
<stop offset="0.8598" stop-color="#9E5700"/>
<stop offset="0.8895" stop-color="#A15C04"/>
<stop offset="0.9223" stop-color="#AA6910"/>
<stop offset="0.9566" stop-color="#B97F23"/>
<stop offset="0.9917" stop-color="#CE9E3E"/>
<stop offset="1" stop-color="#D4A645"/>
</linearGradient>
<linearGradient id="paint20_linear_158_458" x1="-113.166" y1="722.733" x2="1602.81" y2="-136.87" gradientUnits="userSpaceOnUse">
<stop stop-color="#F0CA62"/>
<stop offset="0.209" stop-color="#C59142"/>
<stop offset="0.4259" stop-color="#A76D0C"/>
<stop offset="0.4485" stop-color="#B27C1F"/>
<stop offset="0.5367" stop-color="#DBB666"/>
<stop offset="0.6002" stop-color="#F5D993"/>
<stop offset="0.6323" stop-color="#FFE7A4"/>
<stop offset="0.8017" stop-color="#B77C2B"/>
<stop offset="0.8598" stop-color="#9E5700"/>
<stop offset="0.8895" stop-color="#A15C04"/>
<stop offset="0.9223" stop-color="#AA6910"/>
<stop offset="0.9566" stop-color="#B97F23"/>
<stop offset="0.9917" stop-color="#CE9E3E"/>
<stop offset="1" stop-color="#D4A645"/>
</linearGradient>
<linearGradient id="paint21_linear_158_458" x1="-98.8005" y1="751.415" x2="1617.17" y2="-108.185" gradientUnits="userSpaceOnUse">
<stop stop-color="#F0CA62"/>
<stop offset="0.209" stop-color="#C59142"/>
<stop offset="0.4259" stop-color="#A76D0C"/>
<stop offset="0.4485" stop-color="#B27C1F"/>
<stop offset="0.5367" stop-color="#DBB666"/>
<stop offset="0.6002" stop-color="#F5D993"/>
<stop offset="0.6323" stop-color="#FFE7A4"/>
<stop offset="0.8017" stop-color="#B77C2B"/>
<stop offset="0.8598" stop-color="#9E5700"/>
<stop offset="0.8895" stop-color="#A15C04"/>
<stop offset="0.9223" stop-color="#AA6910"/>
<stop offset="0.9566" stop-color="#B97F23"/>
<stop offset="0.9917" stop-color="#CE9E3E"/>
<stop offset="1" stop-color="#D4A645"/>
</linearGradient>
<linearGradient id="paint22_linear_158_458" x1="-38.7113" y1="871.366" x2="1677.25" y2="11.7672" gradientUnits="userSpaceOnUse">
<stop stop-color="#F0CA62"/>
<stop offset="0.209" stop-color="#C59142"/>
<stop offset="0.4259" stop-color="#A76D0C"/>
<stop offset="0.4485" stop-color="#B27C1F"/>
<stop offset="0.5367" stop-color="#DBB666"/>
<stop offset="0.6002" stop-color="#F5D993"/>
<stop offset="0.6323" stop-color="#FFE7A4"/>
<stop offset="0.8017" stop-color="#B77C2B"/>
<stop offset="0.8598" stop-color="#9E5700"/>
<stop offset="0.8895" stop-color="#A15C04"/>
<stop offset="0.9223" stop-color="#AA6910"/>
<stop offset="0.9566" stop-color="#B97F23"/>
<stop offset="0.9917" stop-color="#CE9E3E"/>
<stop offset="1" stop-color="#D4A645"/>
</linearGradient>
<linearGradient id="paint23_linear_158_458" x1="-52.3463" y1="844.145" x2="1663.62" y2="-15.4536" gradientUnits="userSpaceOnUse">
<stop stop-color="#F0CA62"/>
<stop offset="0.209" stop-color="#C59142"/>
<stop offset="0.4259" stop-color="#A76D0C"/>
<stop offset="0.4485" stop-color="#B27C1F"/>
<stop offset="0.5367" stop-color="#DBB666"/>
<stop offset="0.6002" stop-color="#F5D993"/>
<stop offset="0.6323" stop-color="#FFE7A4"/>
<stop offset="0.8017" stop-color="#B77C2B"/>
<stop offset="0.8598" stop-color="#9E5700"/>
<stop offset="0.8895" stop-color="#A15C04"/>
<stop offset="0.9223" stop-color="#AA6910"/>
<stop offset="0.9566" stop-color="#B97F23"/>
<stop offset="0.9917" stop-color="#CE9E3E"/>
<stop offset="1" stop-color="#D4A645"/>
</linearGradient>
<linearGradient id="paint24_linear_158_458" x1="26.651" y1="1001.85" x2="1742.62" y2="142.246" gradientUnits="userSpaceOnUse">
<stop stop-color="#F0CA62"/>
<stop offset="0.209" stop-color="#C59142"/>
<stop offset="0.4259" stop-color="#A76D0C"/>
<stop offset="0.4485" stop-color="#B27C1F"/>
<stop offset="0.5367" stop-color="#DBB666"/>
<stop offset="0.6002" stop-color="#F5D993"/>
<stop offset="0.6323" stop-color="#FFE7A4"/>
<stop offset="0.8017" stop-color="#B77C2B"/>
<stop offset="0.8598" stop-color="#9E5700"/>
<stop offset="0.8895" stop-color="#A15C04"/>
<stop offset="0.9223" stop-color="#AA6910"/>
<stop offset="0.9566" stop-color="#B97F23"/>
<stop offset="0.9917" stop-color="#CE9E3E"/>
<stop offset="1" stop-color="#D4A645"/>
</linearGradient>
<linearGradient id="paint25_linear_158_458" x1="-51.2273" y1="846.377" x2="1664.74" y2="-13.2218" gradientUnits="userSpaceOnUse">
<stop stop-color="#F0CA62"/>
<stop offset="0.209" stop-color="#C59142"/>
<stop offset="0.4259" stop-color="#A76D0C"/>
<stop offset="0.4485" stop-color="#B27C1F"/>
<stop offset="0.5367" stop-color="#DBB666"/>
<stop offset="0.6002" stop-color="#F5D993"/>
<stop offset="0.6323" stop-color="#FFE7A4"/>
<stop offset="0.8017" stop-color="#B77C2B"/>
<stop offset="0.8598" stop-color="#9E5700"/>
<stop offset="0.8895" stop-color="#A15C04"/>
<stop offset="0.9223" stop-color="#AA6910"/>
<stop offset="0.9566" stop-color="#B97F23"/>
<stop offset="0.9917" stop-color="#CE9E3E"/>
<stop offset="1" stop-color="#D4A645"/>
</linearGradient>
<linearGradient id="paint26_linear_158_458" x1="-39.6639" y1="869.461" x2="1676.3" y2="9.86184" gradientUnits="userSpaceOnUse">
<stop stop-color="#F0CA62"/>
<stop offset="0.209" stop-color="#C59142"/>
<stop offset="0.4259" stop-color="#A76D0C"/>
<stop offset="0.4485" stop-color="#B27C1F"/>
<stop offset="0.5367" stop-color="#DBB666"/>
<stop offset="0.6002" stop-color="#F5D993"/>
<stop offset="0.6323" stop-color="#FFE7A4"/>
<stop offset="0.8017" stop-color="#B77C2B"/>
<stop offset="0.8598" stop-color="#9E5700"/>
<stop offset="0.8895" stop-color="#A15C04"/>
<stop offset="0.9223" stop-color="#AA6910"/>
<stop offset="0.9566" stop-color="#B97F23"/>
<stop offset="0.9917" stop-color="#CE9E3E"/>
<stop offset="1" stop-color="#D4A645"/>
</linearGradient>
<linearGradient id="paint27_linear_158_458" x1="-41.0469" y1="866.704" x2="1674.92" y2="7.10496" gradientUnits="userSpaceOnUse">
<stop stop-color="#F0CA62"/>
<stop offset="0.209" stop-color="#C59142"/>
<stop offset="0.4259" stop-color="#A76D0C"/>
<stop offset="0.4485" stop-color="#B27C1F"/>
<stop offset="0.5367" stop-color="#DBB666"/>
<stop offset="0.6002" stop-color="#F5D993"/>
<stop offset="0.6323" stop-color="#FFE7A4"/>
<stop offset="0.8017" stop-color="#B77C2B"/>
<stop offset="0.8598" stop-color="#9E5700"/>
<stop offset="0.8895" stop-color="#A15C04"/>
<stop offset="0.9223" stop-color="#AA6910"/>
<stop offset="0.9566" stop-color="#B97F23"/>
<stop offset="0.9917" stop-color="#CE9E3E"/>
<stop offset="1" stop-color="#D4A645"/>
</linearGradient>
<linearGradient id="paint28_linear_158_458" x1="-50.1356" y1="848.556" x2="1665.83" y2="-11.0427" gradientUnits="userSpaceOnUse">
<stop stop-color="#F0CA62"/>
<stop offset="0.209" stop-color="#C59142"/>
<stop offset="0.4259" stop-color="#A76D0C"/>
<stop offset="0.4485" stop-color="#B27C1F"/>
<stop offset="0.5367" stop-color="#DBB666"/>
<stop offset="0.6002" stop-color="#F5D993"/>
<stop offset="0.6323" stop-color="#FFE7A4"/>
<stop offset="0.8017" stop-color="#B77C2B"/>
<stop offset="0.8598" stop-color="#9E5700"/>
<stop offset="0.8895" stop-color="#A15C04"/>
<stop offset="0.9223" stop-color="#AA6910"/>
<stop offset="0.9566" stop-color="#B97F23"/>
<stop offset="0.9917" stop-color="#CE9E3E"/>
<stop offset="1" stop-color="#D4A645"/>
</linearGradient>
<linearGradient id="paint29_linear_158_458" x1="-48.9451" y1="850.935" x2="1667.02" y2="-8.6647" gradientUnits="userSpaceOnUse">
<stop stop-color="#F0CA62"/>
<stop offset="0.209" stop-color="#C59142"/>
<stop offset="0.4259" stop-color="#A76D0C"/>
<stop offset="0.4485" stop-color="#B27C1F"/>
<stop offset="0.5367" stop-color="#DBB666"/>
<stop offset="0.6002" stop-color="#F5D993"/>
<stop offset="0.6323" stop-color="#FFE7A4"/>
<stop offset="0.8017" stop-color="#B77C2B"/>
<stop offset="0.8598" stop-color="#9E5700"/>
<stop offset="0.8895" stop-color="#A15C04"/>
<stop offset="0.9223" stop-color="#AA6910"/>
<stop offset="0.9566" stop-color="#B97F23"/>
<stop offset="0.9917" stop-color="#CE9E3E"/>
<stop offset="1" stop-color="#D4A645"/>
</linearGradient>
<linearGradient id="paint30_linear_158_458" x1="-42.665" y1="863.47" x2="1673.3" y2="3.87076" gradientUnits="userSpaceOnUse">
<stop stop-color="#F0CA62"/>
<stop offset="0.209" stop-color="#C59142"/>
<stop offset="0.4259" stop-color="#A76D0C"/>
<stop offset="0.4485" stop-color="#B27C1F"/>
<stop offset="0.5367" stop-color="#DBB666"/>
<stop offset="0.6002" stop-color="#F5D993"/>
<stop offset="0.6323" stop-color="#FFE7A4"/>
<stop offset="0.8017" stop-color="#B77C2B"/>
<stop offset="0.8598" stop-color="#9E5700"/>
<stop offset="0.8895" stop-color="#A15C04"/>
<stop offset="0.9223" stop-color="#AA6910"/>
<stop offset="0.9566" stop-color="#B97F23"/>
<stop offset="0.9917" stop-color="#CE9E3E"/>
<stop offset="1" stop-color="#D4A645"/>
</linearGradient>
<linearGradient id="paint31_linear_158_458" x1="-47.4772" y1="853.862" x2="1668.49" y2="-5.73793" gradientUnits="userSpaceOnUse">
<stop stop-color="#F0CA62"/>
<stop offset="0.209" stop-color="#C59142"/>
<stop offset="0.4259" stop-color="#A76D0C"/>
<stop offset="0.4485" stop-color="#B27C1F"/>
<stop offset="0.5367" stop-color="#DBB666"/>
<stop offset="0.6002" stop-color="#F5D993"/>
<stop offset="0.6323" stop-color="#FFE7A4"/>
<stop offset="0.8017" stop-color="#B77C2B"/>
<stop offset="0.8598" stop-color="#9E5700"/>
<stop offset="0.8895" stop-color="#A15C04"/>
<stop offset="0.9223" stop-color="#AA6910"/>
<stop offset="0.9566" stop-color="#B97F23"/>
<stop offset="0.9917" stop-color="#CE9E3E"/>
<stop offset="1" stop-color="#D4A645"/>
</linearGradient>
<linearGradient id="paint32_linear_158_458" x1="-45.8833" y1="857.043" x2="1670.08" y2="-2.55643" gradientUnits="userSpaceOnUse">
<stop stop-color="#F0CA62"/>
<stop offset="0.209" stop-color="#C59142"/>
<stop offset="0.4259" stop-color="#A76D0C"/>
<stop offset="0.4485" stop-color="#B27C1F"/>
<stop offset="0.5367" stop-color="#DBB666"/>
<stop offset="0.6002" stop-color="#F5D993"/>
<stop offset="0.6323" stop-color="#FFE7A4"/>
<stop offset="0.8017" stop-color="#B77C2B"/>
<stop offset="0.8598" stop-color="#9E5700"/>
<stop offset="0.8895" stop-color="#A15C04"/>
<stop offset="0.9223" stop-color="#AA6910"/>
<stop offset="0.9566" stop-color="#B97F23"/>
<stop offset="0.9917" stop-color="#CE9E3E"/>
<stop offset="1" stop-color="#D4A645"/>
</linearGradient>
<linearGradient id="paint33_linear_158_458" x1="-240.369" y1="468.805" x2="1475.59" y2="-390.793" gradientUnits="userSpaceOnUse">
<stop stop-color="#F0CA62"/>
<stop offset="0.209" stop-color="#C59142"/>
<stop offset="0.4259" stop-color="#A76D0C"/>
<stop offset="0.4485" stop-color="#B27C1F"/>
<stop offset="0.5367" stop-color="#DBB666"/>
<stop offset="0.6002" stop-color="#F5D993"/>
<stop offset="0.6323" stop-color="#FFE7A4"/>
<stop offset="0.8017" stop-color="#B77C2B"/>
<stop offset="0.8598" stop-color="#9E5700"/>
<stop offset="0.8895" stop-color="#A15C04"/>
<stop offset="0.9223" stop-color="#AA6910"/>
<stop offset="0.9566" stop-color="#B97F23"/>
<stop offset="0.9917" stop-color="#CE9E3E"/>
<stop offset="1" stop-color="#D4A645"/>
</linearGradient>
<linearGradient id="paint34_linear_158_458" x1="-212.948" y1="523.544" x2="1503.02" y2="-336.054" gradientUnits="userSpaceOnUse">
<stop stop-color="#F0CA62"/>
<stop offset="0.209" stop-color="#C59142"/>
<stop offset="0.4259" stop-color="#A76D0C"/>
<stop offset="0.4485" stop-color="#B27C1F"/>
<stop offset="0.5367" stop-color="#DBB666"/>
<stop offset="0.6002" stop-color="#F5D993"/>
<stop offset="0.6323" stop-color="#FFE7A4"/>
<stop offset="0.8017" stop-color="#B77C2B"/>
<stop offset="0.8598" stop-color="#9E5700"/>
<stop offset="0.8895" stop-color="#A15C04"/>
<stop offset="0.9223" stop-color="#AA6910"/>
<stop offset="0.9566" stop-color="#B97F23"/>
<stop offset="0.9917" stop-color="#CE9E3E"/>
<stop offset="1" stop-color="#D4A645"/>
</linearGradient>
<linearGradient id="paint35_linear_158_458" x1="-223.241" y1="503.001" x2="1492.73" y2="-356.601" gradientUnits="userSpaceOnUse">
<stop stop-color="#F0CA62"/>
<stop offset="0.209" stop-color="#C59142"/>
<stop offset="0.4259" stop-color="#A76D0C"/>
<stop offset="0.4485" stop-color="#B27C1F"/>
<stop offset="0.5367" stop-color="#DBB666"/>
<stop offset="0.6002" stop-color="#F5D993"/>
<stop offset="0.6323" stop-color="#FFE7A4"/>
<stop offset="0.8017" stop-color="#B77C2B"/>
<stop offset="0.8598" stop-color="#9E5700"/>
<stop offset="0.8895" stop-color="#A15C04"/>
<stop offset="0.9223" stop-color="#AA6910"/>
<stop offset="0.9566" stop-color="#B97F23"/>
<stop offset="0.9917" stop-color="#CE9E3E"/>
<stop offset="1" stop-color="#D4A645"/>
</linearGradient>
<linearGradient id="paint36_linear_158_458" x1="-234.716" y1="480.091" x2="1481.25" y2="-379.51" gradientUnits="userSpaceOnUse">
<stop stop-color="#F0CA62"/>
<stop offset="0.209" stop-color="#C59142"/>
<stop offset="0.4259" stop-color="#A76D0C"/>
<stop offset="0.4485" stop-color="#B27C1F"/>
<stop offset="0.5367" stop-color="#DBB666"/>
<stop offset="0.6002" stop-color="#F5D993"/>
<stop offset="0.6323" stop-color="#FFE7A4"/>
<stop offset="0.8017" stop-color="#B77C2B"/>
<stop offset="0.8598" stop-color="#9E5700"/>
<stop offset="0.8895" stop-color="#A15C04"/>
<stop offset="0.9223" stop-color="#AA6910"/>
<stop offset="0.9566" stop-color="#B97F23"/>
<stop offset="0.9917" stop-color="#CE9E3E"/>
<stop offset="1" stop-color="#D4A645"/>
</linearGradient>
<linearGradient id="paint37_linear_158_458" x1="-245.729" y1="458.105" x2="1470.24" y2="-401.494" gradientUnits="userSpaceOnUse">
<stop stop-color="#F0CA62"/>
<stop offset="0.209" stop-color="#C59142"/>
<stop offset="0.4259" stop-color="#A76D0C"/>
<stop offset="0.4485" stop-color="#B27C1F"/>
<stop offset="0.5367" stop-color="#DBB666"/>
<stop offset="0.6002" stop-color="#F5D993"/>
<stop offset="0.6323" stop-color="#FFE7A4"/>
<stop offset="0.8017" stop-color="#B77C2B"/>
<stop offset="0.8598" stop-color="#9E5700"/>
<stop offset="0.8895" stop-color="#A15C04"/>
<stop offset="0.9223" stop-color="#AA6910"/>
<stop offset="0.9566" stop-color="#B97F23"/>
<stop offset="0.9917" stop-color="#CE9E3E"/>
<stop offset="1" stop-color="#D4A645"/>
</linearGradient>
<linearGradient id="paint38_linear_158_458" x1="-230.232" y1="489.044" x2="1485.73" y2="-370.555" gradientUnits="userSpaceOnUse">
<stop stop-color="#F0CA62"/>
<stop offset="0.209" stop-color="#C59142"/>
<stop offset="0.4259" stop-color="#A76D0C"/>
<stop offset="0.4485" stop-color="#B27C1F"/>
<stop offset="0.5367" stop-color="#DBB666"/>
<stop offset="0.6002" stop-color="#F5D993"/>
<stop offset="0.6323" stop-color="#FFE7A4"/>
<stop offset="0.8017" stop-color="#B77C2B"/>
<stop offset="0.8598" stop-color="#9E5700"/>
<stop offset="0.8895" stop-color="#A15C04"/>
<stop offset="0.9223" stop-color="#AA6910"/>
<stop offset="0.9566" stop-color="#B97F23"/>
<stop offset="0.9917" stop-color="#CE9E3E"/>
<stop offset="1" stop-color="#D4A645"/>
</linearGradient>
<linearGradient id="paint39_linear_158_458" x1="-204.965" y1="539.482" x2="1511" y2="-320.118" gradientUnits="userSpaceOnUse">
<stop stop-color="#F0CA62"/>
<stop offset="0.209" stop-color="#C59142"/>
<stop offset="0.4259" stop-color="#A76D0C"/>
<stop offset="0.4485" stop-color="#B27C1F"/>
<stop offset="0.5367" stop-color="#DBB666"/>
<stop offset="0.6002" stop-color="#F5D993"/>
<stop offset="0.6323" stop-color="#FFE7A4"/>
<stop offset="0.8017" stop-color="#B77C2B"/>
<stop offset="0.8598" stop-color="#9E5700"/>
<stop offset="0.8895" stop-color="#A15C04"/>
<stop offset="0.9223" stop-color="#AA6910"/>
<stop offset="0.9566" stop-color="#B97F23"/>
<stop offset="0.9917" stop-color="#CE9E3E"/>
<stop offset="1" stop-color="#D4A645"/>
</linearGradient>
<linearGradient id="paint40_linear_158_458" x1="-193.397" y1="562.574" x2="1522.57" y2="-297.025" gradientUnits="userSpaceOnUse">
<stop stop-color="#F0CA62"/>
<stop offset="0.209" stop-color="#C59142"/>
<stop offset="0.4259" stop-color="#A76D0C"/>
<stop offset="0.4485" stop-color="#B27C1F"/>
<stop offset="0.5367" stop-color="#DBB666"/>
<stop offset="0.6002" stop-color="#F5D993"/>
<stop offset="0.6323" stop-color="#FFE7A4"/>
<stop offset="0.8017" stop-color="#B77C2B"/>
<stop offset="0.8598" stop-color="#9E5700"/>
<stop offset="0.8895" stop-color="#A15C04"/>
<stop offset="0.9223" stop-color="#AA6910"/>
<stop offset="0.9566" stop-color="#B97F23"/>
<stop offset="0.9917" stop-color="#CE9E3E"/>
<stop offset="1" stop-color="#D4A645"/>
</linearGradient>
<linearGradient id="paint41_linear_158_458" x1="-184.077" y1="581.179" x2="1531.89" y2="-278.42" gradientUnits="userSpaceOnUse">
<stop stop-color="#F0CA62"/>
<stop offset="0.209" stop-color="#C59142"/>
<stop offset="0.4259" stop-color="#A76D0C"/>
<stop offset="0.4485" stop-color="#B27C1F"/>
<stop offset="0.5367" stop-color="#DBB666"/>
<stop offset="0.6002" stop-color="#F5D993"/>
<stop offset="0.6323" stop-color="#FFE7A4"/>
<stop offset="0.8017" stop-color="#B77C2B"/>
<stop offset="0.8598" stop-color="#9E5700"/>
<stop offset="0.8895" stop-color="#A15C04"/>
<stop offset="0.9223" stop-color="#AA6910"/>
<stop offset="0.9566" stop-color="#B97F23"/>
<stop offset="0.9917" stop-color="#CE9E3E"/>
<stop offset="1" stop-color="#D4A645"/>
</linearGradient>
<linearGradient id="paint42_linear_158_458" x1="-173.699" y1="601.897" x2="1542.27" y2="-257.702" gradientUnits="userSpaceOnUse">
<stop stop-color="#F0CA62"/>
<stop offset="0.209" stop-color="#C59142"/>
<stop offset="0.4259" stop-color="#A76D0C"/>
<stop offset="0.4485" stop-color="#B27C1F"/>
<stop offset="0.5367" stop-color="#DBB666"/>
<stop offset="0.6002" stop-color="#F5D993"/>
<stop offset="0.6323" stop-color="#FFE7A4"/>
<stop offset="0.8017" stop-color="#B77C2B"/>
<stop offset="0.8598" stop-color="#9E5700"/>
<stop offset="0.8895" stop-color="#A15C04"/>
<stop offset="0.9223" stop-color="#AA6910"/>
<stop offset="0.9566" stop-color="#B97F23"/>
<stop offset="0.9917" stop-color="#CE9E3E"/>
<stop offset="1" stop-color="#D4A645"/>
</linearGradient>
<linearGradient id="paint43_linear_158_458" x1="-163.09" y1="623.074" x2="1552.87" y2="-236.525" gradientUnits="userSpaceOnUse">
<stop stop-color="#F0CA62"/>
<stop offset="0.209" stop-color="#C59142"/>
<stop offset="0.4259" stop-color="#A76D0C"/>
<stop offset="0.4485" stop-color="#B27C1F"/>
<stop offset="0.5367" stop-color="#DBB666"/>
<stop offset="0.6002" stop-color="#F5D993"/>
<stop offset="0.6323" stop-color="#FFE7A4"/>
<stop offset="0.8017" stop-color="#B77C2B"/>
<stop offset="0.8598" stop-color="#9E5700"/>
<stop offset="0.8895" stop-color="#A15C04"/>
<stop offset="0.9223" stop-color="#AA6910"/>
<stop offset="0.9566" stop-color="#B97F23"/>
<stop offset="0.9917" stop-color="#CE9E3E"/>
<stop offset="1" stop-color="#D4A645"/>
</linearGradient>
<linearGradient id="paint44_linear_158_458" x1="-151.244" y1="646.722" x2="1564.72" y2="-212.877" gradientUnits="userSpaceOnUse">
<stop stop-color="#F0CA62"/>
<stop offset="0.209" stop-color="#C59142"/>
<stop offset="0.4259" stop-color="#A76D0C"/>
<stop offset="0.4485" stop-color="#B27C1F"/>
<stop offset="0.5367" stop-color="#DBB666"/>
<stop offset="0.6002" stop-color="#F5D993"/>
<stop offset="0.6323" stop-color="#FFE7A4"/>
<stop offset="0.8017" stop-color="#B77C2B"/>
<stop offset="0.8598" stop-color="#9E5700"/>
<stop offset="0.8895" stop-color="#A15C04"/>
<stop offset="0.9223" stop-color="#AA6910"/>
<stop offset="0.9566" stop-color="#B97F23"/>
<stop offset="0.9917" stop-color="#CE9E3E"/>
<stop offset="1" stop-color="#D4A645"/>
</linearGradient>
<linearGradient id="paint45_linear_158_458" x1="-144.448" y1="660.288" x2="1571.52" y2="-199.311" gradientUnits="userSpaceOnUse">
<stop stop-color="#F0CA62"/>
<stop offset="0.209" stop-color="#C59142"/>
<stop offset="0.4259" stop-color="#A76D0C"/>
<stop offset="0.4485" stop-color="#B27C1F"/>
<stop offset="0.5367" stop-color="#DBB666"/>
<stop offset="0.6002" stop-color="#F5D993"/>
<stop offset="0.6323" stop-color="#FFE7A4"/>
<stop offset="0.8017" stop-color="#B77C2B"/>
<stop offset="0.8598" stop-color="#9E5700"/>
<stop offset="0.8895" stop-color="#A15C04"/>
<stop offset="0.9223" stop-color="#AA6910"/>
<stop offset="0.9566" stop-color="#B97F23"/>
<stop offset="0.9917" stop-color="#CE9E3E"/>
<stop offset="1" stop-color="#D4A645"/>
</linearGradient>
<linearGradient id="paint46_linear_158_458" x1="-148.454" y1="652.292" x2="1567.51" y2="-207.309" gradientUnits="userSpaceOnUse">
<stop stop-color="#F0CA62"/>
<stop offset="0.209" stop-color="#C59142"/>
<stop offset="0.4259" stop-color="#A76D0C"/>
<stop offset="0.4485" stop-color="#B27C1F"/>
<stop offset="0.5367" stop-color="#DBB666"/>
<stop offset="0.6002" stop-color="#F5D993"/>
<stop offset="0.6323" stop-color="#FFE7A4"/>
<stop offset="0.8017" stop-color="#B77C2B"/>
<stop offset="0.8598" stop-color="#9E5700"/>
<stop offset="0.8895" stop-color="#A15C04"/>
<stop offset="0.9223" stop-color="#AA6910"/>
<stop offset="0.9566" stop-color="#B97F23"/>
<stop offset="0.9917" stop-color="#CE9E3E"/>
<stop offset="1" stop-color="#D4A645"/>
</linearGradient>
<linearGradient id="paint47_linear_158_458" x1="-160.684" y1="627.878" x2="1555.28" y2="-231.723" gradientUnits="userSpaceOnUse">
<stop stop-color="#F0CA62"/>
<stop offset="0.209" stop-color="#C59142"/>
<stop offset="0.4259" stop-color="#A76D0C"/>
<stop offset="0.4485" stop-color="#B27C1F"/>
<stop offset="0.5367" stop-color="#DBB666"/>
<stop offset="0.6002" stop-color="#F5D993"/>
<stop offset="0.6323" stop-color="#FFE7A4"/>
<stop offset="0.8017" stop-color="#B77C2B"/>
<stop offset="0.8598" stop-color="#9E5700"/>
<stop offset="0.8895" stop-color="#A15C04"/>
<stop offset="0.9223" stop-color="#AA6910"/>
<stop offset="0.9566" stop-color="#B97F23"/>
<stop offset="0.9917" stop-color="#CE9E3E"/>
<stop offset="1" stop-color="#D4A645"/>
</linearGradient>
<linearGradient id="paint48_linear_158_458" x1="-33.088" y1="882.59" x2="1682.88" y2="22.9907" gradientUnits="userSpaceOnUse">
<stop stop-color="#F0CA62"/>
<stop offset="0.209" stop-color="#C59142"/>
<stop offset="0.4259" stop-color="#A76D0C"/>
<stop offset="0.4485" stop-color="#B27C1F"/>
<stop offset="0.5367" stop-color="#DBB666"/>
<stop offset="0.6002" stop-color="#F5D993"/>
<stop offset="0.6323" stop-color="#FFE7A4"/>
<stop offset="0.8017" stop-color="#B77C2B"/>
<stop offset="0.8598" stop-color="#9E5700"/>
<stop offset="0.8895" stop-color="#A15C04"/>
<stop offset="0.9223" stop-color="#AA6910"/>
<stop offset="0.9566" stop-color="#B97F23"/>
<stop offset="0.9917" stop-color="#CE9E3E"/>
<stop offset="1" stop-color="#D4A645"/>
</linearGradient>
<linearGradient id="paint49_linear_158_458" x1="-27.0654" y1="894.613" x2="1688.9" y2="35.0151" gradientUnits="userSpaceOnUse">
<stop stop-color="#F0CA62"/>
<stop offset="0.209" stop-color="#C59142"/>
<stop offset="0.4259" stop-color="#A76D0C"/>
<stop offset="0.4485" stop-color="#B27C1F"/>
<stop offset="0.5367" stop-color="#DBB666"/>
<stop offset="0.6002" stop-color="#F5D993"/>
<stop offset="0.6323" stop-color="#FFE7A4"/>
<stop offset="0.8017" stop-color="#B77C2B"/>
<stop offset="0.8598" stop-color="#9E5700"/>
<stop offset="0.8895" stop-color="#A15C04"/>
<stop offset="0.9223" stop-color="#AA6910"/>
<stop offset="0.9566" stop-color="#B97F23"/>
<stop offset="0.9917" stop-color="#CE9E3E"/>
<stop offset="1" stop-color="#D4A645"/>
</linearGradient>
<linearGradient id="paint50_linear_158_458" x1="-18.5201" y1="911.671" x2="1697.45" y2="52.0716" gradientUnits="userSpaceOnUse">
<stop stop-color="#F0CA62"/>
<stop offset="0.209" stop-color="#C59142"/>
<stop offset="0.4259" stop-color="#A76D0C"/>
<stop offset="0.4485" stop-color="#B27C1F"/>
<stop offset="0.5367" stop-color="#DBB666"/>
<stop offset="0.6002" stop-color="#F5D993"/>
<stop offset="0.6323" stop-color="#FFE7A4"/>
<stop offset="0.8017" stop-color="#B77C2B"/>
<stop offset="0.8598" stop-color="#9E5700"/>
<stop offset="0.8895" stop-color="#A15C04"/>
<stop offset="0.9223" stop-color="#AA6910"/>
<stop offset="0.9566" stop-color="#B97F23"/>
<stop offset="0.9917" stop-color="#CE9E3E"/>
<stop offset="1" stop-color="#D4A645"/>
</linearGradient>
<linearGradient id="paint51_linear_158_458" x1="-12.6417" y1="923.405" x2="1703.32" y2="63.8061" gradientUnits="userSpaceOnUse">
<stop stop-color="#F0CA62"/>
<stop offset="0.209" stop-color="#C59142"/>
<stop offset="0.4259" stop-color="#A76D0C"/>
<stop offset="0.4485" stop-color="#B27C1F"/>
<stop offset="0.5367" stop-color="#DBB666"/>
<stop offset="0.6002" stop-color="#F5D993"/>
<stop offset="0.6323" stop-color="#FFE7A4"/>
<stop offset="0.8017" stop-color="#B77C2B"/>
<stop offset="0.8598" stop-color="#9E5700"/>
<stop offset="0.8895" stop-color="#A15C04"/>
<stop offset="0.9223" stop-color="#AA6910"/>
<stop offset="0.9566" stop-color="#B97F23"/>
<stop offset="0.9917" stop-color="#CE9E3E"/>
<stop offset="1" stop-color="#D4A645"/>
</linearGradient>
<linearGradient id="paint52_linear_158_458" x1="-8.68414" y1="931.305" x2="1707.28" y2="71.7078" gradientUnits="userSpaceOnUse">
<stop stop-color="#F0CA62"/>
<stop offset="0.209" stop-color="#C59142"/>
<stop offset="0.4259" stop-color="#A76D0C"/>
<stop offset="0.4485" stop-color="#B27C1F"/>
<stop offset="0.5367" stop-color="#DBB666"/>
<stop offset="0.6002" stop-color="#F5D993"/>
<stop offset="0.6323" stop-color="#FFE7A4"/>
<stop offset="0.8017" stop-color="#B77C2B"/>
<stop offset="0.8598" stop-color="#9E5700"/>
<stop offset="0.8895" stop-color="#A15C04"/>
<stop offset="0.9223" stop-color="#AA6910"/>
<stop offset="0.9566" stop-color="#B97F23"/>
<stop offset="0.9917" stop-color="#CE9E3E"/>
<stop offset="1" stop-color="#D4A645"/>
</linearGradient>
<linearGradient id="paint53_linear_158_458" x1="-37.0019" y1="874.774" x2="1678.96" y2="15.1755" gradientUnits="userSpaceOnUse">
<stop stop-color="#F0CA62"/>
<stop offset="0.209" stop-color="#C59142"/>
<stop offset="0.4259" stop-color="#A76D0C"/>
<stop offset="0.4485" stop-color="#B27C1F"/>
<stop offset="0.5367" stop-color="#DBB666"/>
<stop offset="0.6002" stop-color="#F5D993"/>
<stop offset="0.6323" stop-color="#FFE7A4"/>
<stop offset="0.8017" stop-color="#B77C2B"/>
<stop offset="0.8598" stop-color="#9E5700"/>
<stop offset="0.8895" stop-color="#A15C04"/>
<stop offset="0.9223" stop-color="#AA6910"/>
<stop offset="0.9566" stop-color="#B97F23"/>
<stop offset="0.9917" stop-color="#CE9E3E"/>
<stop offset="1" stop-color="#D4A645"/>
</linearGradient>
<linearGradient id="paint54_linear_158_458" x1="-66.7807" y1="815.331" x2="1649.19" y2="-44.2695" gradientUnits="userSpaceOnUse">
<stop stop-color="#F0CA62"/>
<stop offset="0.209" stop-color="#C59142"/>
<stop offset="0.4259" stop-color="#A76D0C"/>
<stop offset="0.4485" stop-color="#B27C1F"/>
<stop offset="0.5367" stop-color="#DBB666"/>
<stop offset="0.6002" stop-color="#F5D993"/>
<stop offset="0.6323" stop-color="#FFE7A4"/>
<stop offset="0.8017" stop-color="#B77C2B"/>
<stop offset="0.8598" stop-color="#9E5700"/>
<stop offset="0.8895" stop-color="#A15C04"/>
<stop offset="0.9223" stop-color="#AA6910"/>
<stop offset="0.9566" stop-color="#B97F23"/>
<stop offset="0.9917" stop-color="#CE9E3E"/>
<stop offset="1" stop-color="#D4A645"/>
</linearGradient>
</defs>
</svg>
