<svg width="191" height="21" viewBox="0 0 191 21" fill="none" xmlns="http://www.w3.org/2000/svg">
<path fill-rule="evenodd" clip-rule="evenodd" d="M0 13.8495C0 13.8495 12.9854 4.43261 31.2306 2.59517C53.5852 0.413216 63.6119 2.25066 70.5155 3.62874C77.4191 5.00681 87.117 7.64813 93.8563 10.1746C100.596 12.7011 112.759 16.6056 121.471 18.3282C133.799 20.7399 148.592 21.3141 158.619 20.8547C168.645 20.3954 175.056 19.8212 181.795 18.9024C188.534 17.9837 191 17.4095 191 17.4095C191 17.4095 178.343 19.0173 171.111 19.247C163.879 19.5915 150.236 20.3954 136.429 18.3282C120.485 15.9166 111.937 12.5863 102.897 9.83009C93.1988 6.9591 82.0215 3.16937 71.8305 1.44677C61.6394 -0.160984 51.6127 -0.160982 43.3941 0.183538C35.3399 0.528057 30.08 1.44678 22.6833 3.05454C15.2866 4.66229 9.04045 7.30361 3.94492 10.0598C0.821859 11.8972 0 13.8495 0 13.8495Z" fill="url(#paint0_linear_104_11250)"/>
<defs>
<linearGradient id="paint0_linear_104_11250" x1="63" y1="-9.27453e-06" x2="139.5" y2="21" gradientUnits="userSpaceOnUse">
<stop stop-color="#FCE6A1"/>
<stop offset="1" stop-color="#A06019"/>
</linearGradient>
</defs>
</svg>
