<svg width="23" height="23" viewBox="0 0 23 23" fill="none" xmlns="http://www.w3.org/2000/svg">
<path d="M21.2552 9.9493L21.1537 9.5185H11.7902V13.4815H17.3848C16.8039 16.2397 14.1086 17.6916 11.907 17.6916C10.3051 17.6916 8.61646 17.0178 7.49881 15.9347C6.90913 15.3541 6.43975 14.663 6.11755 13.9008C5.79534 13.1386 5.62663 12.3203 5.62107 11.4928C5.62107 9.82352 6.37127 8.15377 7.46287 7.05543C8.55447 5.95709 10.2031 5.34256 11.8423 5.34256C13.7196 5.34256 15.065 6.33938 15.5681 6.79398L18.3843 3.99266C17.5582 3.26672 15.2887 1.4375 11.7516 1.4375C9.02256 1.4375 6.40586 2.48283 4.49309 4.38932C2.60547 6.2666 1.62842 8.98123 1.62842 11.5C1.62842 14.0188 2.55291 16.5977 4.38213 18.4898C6.33668 20.5077 9.10477 21.5625 11.9551 21.5625C14.5484 21.5625 17.0065 20.5464 18.7585 18.7028C20.4808 16.8879 21.3716 14.3768 21.3716 11.7444C21.3716 10.6362 21.2602 9.97805 21.2552 9.9493Z" fill="white"/>
</svg>
