<svg width="63" height="52" viewBox="0 0 63 52" fill="none" xmlns="http://www.w3.org/2000/svg">
<g clip-path="url(#clip0_104_11274)">
<path d="M19.8343 30.2141C19.4347 30.6084 19.035 30.9535 18.6353 31.2985C17.6861 32.1364 16.6868 32.9743 15.6377 33.7629C15.188 34.0587 14.7384 34.4037 14.1888 34.4037C13.3895 34.4037 13.2396 33.7629 13.2396 33.1222C13.2396 31.7421 13.8891 29.7705 14.2887 28.4397C12.9898 29.6227 11.8407 30.9042 10.6916 32.1857C10.142 32.7772 9.64243 33.4179 9.04291 34.0094C8.94299 34.108 8.79311 34.2558 8.59327 34.2558C7.99374 34.2558 8.14362 33.4179 8.14362 33.0236C8.14362 31.4956 8.0437 29.9677 7.7939 28.489L4.99612 35.2416C4.8962 35.4388 4.74632 35.5866 4.54648 35.5866C4.29668 35.5866 4.04688 35.3895 4.04688 35.0937C4.04688 34.8473 6.59485 28.7847 6.89461 28.0947C7.09446 27.6018 7.2943 27.0596 7.49414 26.616C7.59406 26.4189 7.74394 26.271 7.99374 26.271C8.84307 26.271 9.14283 31.4956 9.19279 32.3828C10.0421 31.3971 14.2887 26.616 15.288 26.616C15.5378 26.616 15.7876 26.8132 15.7876 27.0596C15.7876 27.2568 15.3879 28.489 15.288 28.7355C14.8883 30.017 14.2388 31.89 14.2388 33.1715C14.2388 33.2701 14.2388 33.3193 14.2388 33.4179C15.3379 33.1222 18.8851 29.3762 19.4846 29.3762C19.7344 29.3762 19.9842 29.6227 19.9842 29.8691C20.0342 30.017 19.9343 30.1155 19.8343 30.2141Z" fill="white"/>
<path d="M20.3338 29.672C19.5844 29.8692 18.5352 32.3829 18.5352 33.1222C18.5352 33.3687 18.5851 33.418 18.8349 33.418C19.9341 33.418 20.3837 31.0521 20.3837 30.2142C20.3837 30.017 20.3837 29.8692 20.3338 29.672ZM22.6819 31.1014C22.2323 31.1014 21.8326 31.0028 21.4329 30.8057C21.3829 32.0872 20.2338 34.4038 18.735 34.4038C17.9357 34.4038 17.5859 33.9109 17.5859 33.1715C17.5859 31.9393 19.0847 28.5876 20.5336 28.5876C20.7334 28.5876 21.233 28.6369 21.1331 28.9327H21.233C21.3829 29.672 21.9325 30.1156 22.6819 30.1156C23.6811 30.1156 24.9801 29.327 25.2798 29.327C25.5296 29.327 25.7794 29.5734 25.7794 29.8199C25.7794 30.4606 23.2315 31.1014 22.6819 31.1014Z" fill="white"/>
<path d="M25.9796 29.6227C25.43 30.3127 24.6307 32.0379 24.6307 32.9251C24.6307 33.0236 24.6307 33.0729 24.6307 33.1222C25.48 32.58 26.1794 30.8549 26.4792 29.8691C26.3293 29.8199 26.1295 29.7213 25.9796 29.6227ZM24.7306 24.2502C23.9312 24.2502 23.0319 24.6938 23.0319 25.581C23.0319 26.9118 24.7805 27.9469 25.8797 28.489C26.0295 28.3905 26.2294 28.2919 26.3793 28.2919C26.5291 28.2919 26.729 28.3905 26.8289 28.5383C26.9288 27.9469 27.0287 27.4047 27.0287 26.8132C27.0287 25.3838 26.3293 24.2502 24.7306 24.2502ZM29.9265 30.5592C29.0771 30.5592 28.2278 30.4113 27.4284 30.1649C27.0787 31.1507 25.8297 34.1573 24.5807 34.1573C23.8812 34.1573 23.6314 33.5165 23.6314 32.9251C23.6314 31.7421 24.3809 30.1649 25.1303 29.2777C23.7813 28.5383 22.0327 27.3061 22.0327 25.6303C22.0327 24.1516 23.4816 23.2644 24.8305 23.2644C27.0288 23.2644 28.0779 25.0388 28.0779 27.0104C28.0779 27.7497 27.928 28.5383 27.7282 29.2777C28.4276 29.4748 29.177 29.6227 29.8765 29.6227C30.476 29.6227 30.9756 29.5241 31.5252 29.327C31.5751 29.327 31.6751 29.2777 31.725 29.2777C32.0248 29.2777 32.2246 29.5241 32.2246 29.7706C32.2246 30.362 30.3261 30.5592 29.9265 30.5592Z" fill="white"/>
<path d="M30.2259 32.9743V33.0729C30.4757 33.0236 30.7255 32.925 30.9254 32.7771C32.0745 32.0871 32.8738 31.052 33.2735 29.4748C32.0745 29.8198 30.176 31.7914 30.2259 32.9743ZM38.0697 31.8899C37.3203 32.8757 35.5217 34.5023 34.2228 34.5023C32.9737 34.5023 32.7239 33.4179 32.7239 32.3828C32.1744 32.9743 31.0753 34.0094 30.2259 34.0094C29.6264 34.0094 29.1768 33.5658 29.1768 32.9743C29.1768 31.2492 31.6748 28.4397 33.4733 28.4397C33.8231 28.4397 34.0729 28.6861 33.973 29.0312C34.1228 29.1297 34.2228 29.2776 34.2228 29.4255C34.2228 29.5733 34.1728 29.6719 34.1228 29.8198C33.873 30.7563 33.6732 31.7421 33.6732 32.7278C33.6732 33.0729 33.7231 33.5658 34.1728 33.5658C35.222 33.5658 36.471 32.235 37.1704 31.4956C37.3703 31.3478 37.5201 31.1013 37.67 31.1013C37.9198 31.1013 38.1696 31.2985 38.1696 31.5942C38.2196 31.7421 38.1197 31.7914 38.0697 31.8899Z" fill="white"/>
<path d="M32.6742 39.5298C32.0747 41.7971 30.9755 42.6843 28.6774 43.1279C28.4775 43.1772 28.2777 43.1772 28.0778 43.1772C27.9779 43.1772 27.878 43.1772 27.7781 43.1279C27.7281 43.1772 27.6782 43.1772 27.5782 43.1772C27.3784 43.1772 27.1286 43.0293 27.1286 42.7829C27.1286 42.7336 28.8772 37.4597 29.0271 37.1639C29.127 36.9668 29.2269 36.8682 29.4268 36.8682C29.6266 36.8682 29.8764 37.0654 29.8764 37.3118C29.8764 37.509 28.3776 41.6985 28.1778 42.3886C30.3261 42.0929 31.3253 41.6493 31.8249 39.4805C31.8748 39.2834 31.8748 39.1355 31.8748 38.9384C31.8748 36.8189 29.2269 35.5374 27.3284 35.5374C25.7797 35.5374 23.5814 36.1289 23.5814 37.6568C23.5814 38.9384 25.8296 39.382 25.8296 39.9241C25.8296 40.1706 25.6298 40.3677 25.38 40.3677C25.33 40.3677 25.2301 40.3677 25.1801 40.3184C24.1809 39.8256 22.6821 38.9384 22.6821 37.7061C22.6821 35.5374 25.2301 34.7488 27.3284 34.7488C29.6266 34.7488 32.7242 36.326 32.7242 38.8891C32.7741 39.0369 32.7242 39.3327 32.6742 39.5298Z" fill="white" stroke="#010202" stroke-width="0.2835" stroke-miterlimit="10"/>
<path d="M36.1211 39.3821C35.4716 39.5792 34.5723 41.6987 34.5723 42.2901C34.5723 42.4873 34.6223 42.5366 34.8221 42.5366C35.7214 42.5366 36.1211 40.5157 36.1211 39.8257C36.171 39.6778 36.1211 39.5792 36.1211 39.3821ZM38.1195 40.6143C37.7198 40.6143 37.3701 40.5157 37.0703 40.3679C37.0204 41.4522 36.0212 43.4238 34.7722 43.4238C34.0727 43.4238 33.7729 42.9802 33.7729 42.3887C33.7729 41.3536 35.0719 38.4949 36.271 38.4949C36.4208 38.4949 36.8705 38.5442 36.7706 38.7906H36.8705C37.0204 39.4314 37.47 39.7764 38.1195 39.7764C38.9688 39.7764 40.068 39.0863 40.3178 39.0863C40.5676 39.0863 40.7674 39.2835 40.7674 39.5299C40.7674 40.0721 38.5691 40.6143 38.1195 40.6143Z" fill="white" stroke="#010202" stroke-width="0.2835" stroke-miterlimit="10"/>
<path d="M47.8122 41.2551C47.1628 42.0437 45.2643 43.4238 44.2151 43.4238C43.5156 43.4238 43.116 42.9309 43.116 42.2902C43.116 41.5015 43.6655 40.8115 43.6655 40.0229V39.9736C42.3666 40.1707 40.0684 43.0788 39.5188 43.0788C39.269 43.0788 39.1191 42.8816 39.1191 42.6845C39.1191 42.6352 39.1191 42.5859 39.1191 42.5366L40.0184 38.8892C40.0684 38.6921 40.2682 38.5442 40.4681 38.5442C40.6679 38.5442 40.9177 38.6921 40.9177 38.9385C40.9177 39.2342 40.4181 40.9101 40.3182 41.3044C41.0676 40.565 42.6164 39.1357 43.6655 39.1357C44.2151 39.1357 44.4649 39.4314 44.4649 39.9243C44.4649 40.7129 43.9653 41.4522 43.9653 42.2409C43.9653 42.438 44.0153 42.5859 44.2151 42.5859C45.1643 42.5859 46.4633 41.3044 47.1628 40.7129C47.2627 40.6143 47.3626 40.565 47.5125 40.565C47.7623 40.565 47.9621 40.7622 47.9621 40.9594C47.9621 41.1072 47.9122 41.2058 47.8122 41.2551Z" fill="white" stroke="#010202" stroke-width="0.2835" stroke-miterlimit="10"/>
<path d="M55.656 41.2551C55.0065 42.0437 53.108 43.4238 52.0588 43.4238C51.3594 43.4238 50.9597 42.9309 50.9597 42.2902C50.9597 41.5015 51.5093 40.8115 51.5093 40.0229V39.9736C50.2103 40.1707 47.9121 43.0788 47.3626 43.0788C47.1128 43.0788 46.9629 42.8816 46.9629 42.6845C46.9629 42.6352 46.9629 42.5859 46.9629 42.5366L47.8622 38.8892C47.9121 38.6921 48.112 38.5442 48.3118 38.5442C48.5117 38.5442 48.7615 38.6921 48.7615 38.9385C48.7615 39.2342 48.2619 40.9101 48.1619 41.3044C48.9113 40.565 50.4601 39.1357 51.5093 39.1357C52.0588 39.1357 52.3086 39.4314 52.3086 39.9243C52.3086 40.7129 51.809 41.4522 51.809 42.2409C51.809 42.438 51.859 42.5859 52.0588 42.5859C53.0081 42.5859 54.3071 41.3044 55.0065 40.7129C55.1064 40.6143 55.2064 40.565 55.3562 40.565C55.606 40.565 55.8059 40.7622 55.8059 40.9594C55.7559 41.1072 55.706 41.2058 55.656 41.2551Z" fill="white" stroke="#010202" stroke-width="0.2835" stroke-miterlimit="10"/>
<path d="M55.3558 42.1915V42.2408C55.5557 42.1915 55.7555 42.0929 55.9554 41.9944C56.9046 41.4029 57.604 40.5157 57.9538 39.1849C56.9546 39.5299 55.3059 41.1565 55.3558 42.1915ZM62.0505 41.3043C61.401 42.1422 59.9022 43.5716 58.8031 43.5716C57.7539 43.5716 57.5041 42.6351 57.5041 41.7972C57.0545 42.3394 56.1052 43.1773 55.3558 43.1773C54.8063 43.1773 54.4565 42.783 54.4565 42.2901C54.4565 40.8114 56.6048 38.4456 58.1536 38.4456C58.4534 38.4456 58.6532 38.6427 58.6033 38.9384C58.7531 38.9877 58.8031 39.1356 58.8031 39.2835C58.8031 39.382 58.7531 39.5299 58.7531 39.6285C58.5033 40.4171 58.3535 41.255 58.3535 42.093C58.3535 42.3887 58.4034 42.783 58.7531 42.783C59.6025 42.783 60.7016 41.6493 61.3011 41.0086C61.501 40.8607 61.6009 40.6636 61.7008 40.6636C61.9006 40.6636 62.1504 40.8607 62.1504 41.0579C62.1504 41.1565 62.1005 41.2057 62.0505 41.3043Z" fill="white" stroke="#010202" stroke-width="0.2835" stroke-miterlimit="10"/>
<path fill-rule="evenodd" clip-rule="evenodd" d="M36.0215 24.053C36.0215 24.053 36.8208 26.6653 38.5695 28.2426C40.3181 29.8198 41.667 30.8056 46.663 30.9535C51.6591 31.1013 56.0556 27.2568 57.2047 26.3696C58.8534 25.1374 60.602 21.8843 60.602 21.8843C60.602 21.8843 58.104 25.0881 55.9557 26.4682C54.307 27.5525 51.2094 28.9326 49.211 29.4255C46.4632 30.1156 42.7661 29.7705 40.8177 28.9819C38.8692 28.1933 37.7701 26.9611 36.9208 25.6302C36.2213 24.4966 36.0215 24.053 36.0215 24.053Z" fill="#9A1915"/>
<path fill-rule="evenodd" clip-rule="evenodd" d="M50.5097 13.0616C50.4098 13.0123 49.3606 12.2237 49.3107 12.1251C49.5105 11.4844 49.6604 10.7943 49.9102 10.2028C49.9102 10.4493 49.9602 10.6957 49.9602 10.9422C49.9602 10.9915 49.9602 11.0408 49.9602 11.0901C50.0601 11.0901 50.0101 11.0901 50.11 11.0408C50.16 11.3365 50.3099 11.4844 50.4098 11.6815C50.4098 11.6815 50.4598 11.6815 50.4598 11.7308C50.3598 11.4844 50.3099 11.3858 50.3099 11.1886C50.3099 11.1886 50.3099 11.1886 50.3598 11.1886C50.3598 11.3365 50.8594 12.2237 51.1592 12.1251C51.5589 12.0265 51.6089 11.8787 52.1085 11.8787C52.1085 11.8294 52.1584 11.8294 52.1584 11.7801C51.7088 11.8294 51.1092 11.4351 51.1592 11.0408C51.1592 10.9915 51.1592 10.9915 51.1592 10.9422C51.3591 11.0901 51.5089 11.1393 51.7587 11.1886V11.1393C51.409 11.0901 51.2092 10.9915 51.0593 10.5479C51.0593 10.4986 51.0593 10.4493 51.0593 10.4C51.2092 10.4 51.359 10.4 51.5089 10.4C51.6588 10.5479 51.7587 10.6957 51.9586 10.7943C52.0085 10.745 51.9586 10.745 52.0585 10.745C52.0085 10.6464 51.9586 10.6464 51.9086 10.4986C52.2583 10.6464 52.708 10.7943 53.1077 10.9422C52.6081 11.7308 51.8587 12.4209 51.1093 12.963C50.9094 13.0616 50.7096 13.0616 50.5097 13.0616ZM42.566 0.887207H42.4161C42.4161 0.887207 42.3662 0.887207 42.3662 0.936496C42.0165 1.62654 42.3662 2.46446 42.566 3.00664C42.6659 3.40095 42.8158 3.74597 42.9158 4.14029C43.4154 5.07678 44.3646 6.21043 44.5644 7.39337C44.5644 7.6891 44.5644 7.98484 44.5145 8.32986C44.3646 9.11849 44.4645 10.2028 44.5644 10.9422C44.5644 11.2379 44.5644 11.4844 44.5644 11.7801C44.7143 12.1744 44.8642 12.618 45.064 13.0123C45.0141 13.5545 44.9641 14.0967 44.8642 14.5896C44.7143 15.4275 44.8642 16.2654 45.064 17.054C45.164 17.2512 45.2139 17.4976 45.3138 17.6948C45.3638 18.0891 45.4138 18.4834 45.4637 18.8777C45.6636 19.6171 45.9134 20.4057 46.1132 21.1943C46.2631 21.5886 46.8127 22.673 46.7627 23.1659C46.363 24.3488 45.9633 25.5318 45.5636 26.6654C45.8634 27.0104 46.2131 26.9119 46.7627 27.0597C46.8127 27.7005 46.8127 28.2919 46.8626 28.9327C47.1124 30.4607 46.8127 32.2844 46.5629 33.5659C46.413 34.2066 46.413 35.636 46.8127 35.7839C47.2123 35.9318 47.5121 35.5374 47.7619 35.5867C47.9118 35.6853 48.0617 35.7839 48.2115 35.8825C48.7112 36.0303 49.3606 35.7346 49.5105 35.4882C49.5105 35.291 49.5105 35.0938 49.5605 34.8967C49.6604 34.3545 49.6104 33.7137 49.7104 33.0237C49.7104 32.7773 49.7104 32.5308 49.7104 32.2844C49.7603 31.9886 49.7104 31.4957 49.8103 31.1507C50.21 29.6228 50.6096 28.0948 50.8095 26.419C51.1092 26.3697 51.409 26.3697 51.7088 26.3204H51.7587C51.6588 25.7782 51.5589 25.236 51.409 24.7431C51.3591 24.0038 51.3091 23.2645 51.2092 22.4758C51.2591 21.9829 51.2591 21.5393 51.3091 21.0464C51.409 20.11 51.5089 19.2228 51.6089 18.2863C51.5589 17.9905 51.5589 17.6455 51.5089 17.3498C51.5089 17.0047 51.5089 16.6104 51.459 16.2654C51.2092 15.5261 50.9594 14.7867 50.6596 14.0474C50.8095 13.9981 50.9094 13.9488 51.0593 13.9488C51.409 13.7517 51.8087 13.5052 52.1584 13.3081C53.0577 12.5687 53.907 11.8294 54.8063 11.0901C54.8063 10.1043 53.7571 9.21706 53.2076 8.67489C53.0577 8.52702 52.5581 8.08342 52.5081 7.88626C52.5081 7.88626 52.5081 7.88626 52.5581 7.88626C52.658 7.83697 53.6572 8.18199 54.1069 7.98484L54.1568 7.93555C53.907 7.98484 53.3075 7.93555 52.9578 7.78768C52.8079 7.73839 52.8579 7.59052 52.658 7.59052C52.5081 7.44266 52.5081 7.09763 52.2583 6.99906C52.2583 6.85119 52.2583 6.94977 52.3083 6.85119C52.3083 6.85119 52.3083 6.85119 52.3083 6.8019C52.1584 6.75261 52.1085 6.75261 52.0085 6.85119C51.9586 6.70332 51.7088 6.50616 51.6089 6.30901C51.7088 6.40759 51.8587 6.45688 51.9586 6.55545C51.9586 6.55545 51.9586 6.55545 52.0085 6.55545C52.1085 6.50616 52.0585 6.55545 52.0585 6.40759C52.4082 6.55545 52.708 6.65403 53.0577 6.85119C53.0577 6.85119 53.0577 6.85119 53.1077 6.85119C53.1077 6.85119 53.1077 6.8019 53.1576 6.8019C53.0577 6.70332 52.8579 6.60474 52.708 6.60474C52.708 6.55545 52.7579 6.50616 52.7579 6.40759C52.658 6.25972 52.5581 6.16114 52.4582 6.06256C52.5081 6.06256 52.5581 6.01327 52.6081 5.96398C52.5081 5.81612 52.0585 5.61896 51.9086 5.27394C52.0085 5.22465 52.1085 5.17536 52.2084 5.12607C52.2084 5.07678 52.2084 5.07678 52.2583 5.02749C52.1584 5.02749 52.0585 5.02749 52.0085 4.9782C51.9086 5.02749 51.9586 5.02749 51.8587 5.07678C51.7587 5.02749 51.7587 4.92891 51.6588 4.87962C51.6588 4.83033 51.6588 4.78105 51.6588 4.73176C51.6588 4.73176 51.6588 4.73176 51.7088 4.73176C51.7587 4.78105 51.8087 4.87962 51.8587 4.92891C51.9086 4.92891 51.9586 4.92891 52.0085 4.9782C51.9086 4.83034 51.8587 4.63318 51.7587 4.48531C51.9086 4.5346 52.1584 4.58389 52.3583 4.58389C52.4082 4.43602 52.3583 4.28815 52.2583 4.14029C52.2583 4.14029 51.5089 3.94313 51.3591 3.74598C51.3091 3.6474 51.409 3.54882 51.3091 3.45024C50.9094 2.76019 50.7595 2.07015 50.11 1.57725C49.5605 1.13365 48.4114 1.23223 47.7119 1.52797C47.5621 1.57725 47.4122 1.67583 47.2123 1.72512C46.6128 1.57725 45.9633 1.42939 45.3638 1.28152C44.8142 1.18294 44.2647 1.08436 43.7151 0.985785C43.2155 1.03507 42.9157 0.985785 42.566 0.887207ZM48.861 30.8057C48.6612 31.7422 48.2115 32.6294 48.1616 33.8123C48.1616 33.8123 48.1616 33.8123 48.1116 33.8616H48.0617C47.7619 33.418 48.1616 32.6787 48.0617 32.0872C48.0117 31.7422 47.9617 31.3479 47.8618 31.0028C48.0117 29.8199 48.5113 28.7355 48.7611 27.6512H48.8111C48.861 28.6863 48.861 29.7706 48.861 30.8057ZM53.3575 10.7943C53.3075 10.8436 53.2575 10.8929 53.2076 10.9422C52.9578 10.8929 52.4582 10.5479 52.3583 10.5972C52.2583 10.4986 52.3083 10.5479 52.3583 10.4493C52.1584 10.2521 52.0085 10.2521 51.9086 10.055C51.8587 10.0057 51.8587 10.0057 51.9086 10.0057C51.7587 9.61138 51.5589 9.5128 51.459 9.01991C51.8087 9.16778 53.2575 10.4986 53.3575 10.7943ZM46.2131 6.21043C45.9134 6.06256 45.8135 5.52038 45.6136 5.27394C45.0141 4.48531 43.915 3.54882 43.7651 2.36588C44.0648 2.36588 44.4146 2.31659 44.7143 2.31659C45.4637 2.36588 46.1132 2.51375 46.8626 2.56304C46.9625 3.05593 46.6128 3.45024 46.5629 3.89384C46.4629 4.78105 46.8626 5.61896 46.8626 6.3583C46.6628 6.3583 46.363 6.30901 46.2131 6.21043Z" fill="#9A1915"/>
<path fill-rule="evenodd" clip-rule="evenodd" d="M0.949219 48.2047C0.949219 48.2047 4.89609 44.163 10.4417 43.3743C17.2363 42.4378 20.2839 43.2265 22.3822 43.8179C24.4805 44.4094 27.4282 45.5431 29.4766 46.6274C31.525 47.7118 35.222 49.3876 37.8699 50.1269C41.6169 51.162 46.1134 51.4085 49.161 51.2113C52.2085 51.0142 54.157 50.7677 56.2054 50.3734C58.2537 49.9791 59.0031 49.7326 59.0031 49.7326C59.0031 49.7326 55.1562 50.4227 52.9579 50.5213C50.7597 50.6691 46.613 51.0142 42.4163 50.1269C37.5702 49.0919 34.9722 47.6625 32.2244 46.4796C29.2767 45.2473 25.8794 43.6208 22.7819 42.8815C19.6844 42.1914 16.6368 42.1914 14.1388 42.3393C11.6907 42.4871 10.092 42.8815 7.84375 43.5715C5.59553 44.2615 3.69704 45.3952 2.14827 46.5781C1.19902 47.3668 0.949219 48.2047 0.949219 48.2047Z" fill="#9A1915"/>
</g>
<defs>
<clipPath id="clip0_104_11274">
<rect width="63" height="52" fill="white"/>
</clipPath>
</defs>
</svg>
