<svg width="160" height="32" viewBox="0 0 160 32" fill="none" xmlns="http://www.w3.org/2000/svg">
<path d="M16 0.323608L19.4971 11.0866L19.5196 11.1557H19.5922H30.9091L21.7536 17.8076L21.6948 17.8503L21.7172 17.9194L25.2144 28.6825L16.0588 22.0306L16 21.9878L15.9412 22.0306L6.78565 28.6825L10.2828 17.9194L10.3052 17.8503L10.2464 17.8076L1.09086 11.1557H12.4078H12.4804L12.5029 11.0866L16 0.323608Z" fill="#AC865F" stroke="#AC865F" stroke-width="0.2"/>
<path d="M48 0.323608L51.4971 11.0866L51.5196 11.1557H51.5922H62.9091L53.7536 17.8076L53.6948 17.8503L53.7172 17.9194L57.2144 28.6825L48.0588 22.0306L48 21.9878L47.9412 22.0306L38.7856 28.6825L42.2828 17.9194L42.3052 17.8503L42.2464 17.8076L33.0909 11.1557H44.4078H44.4804L44.5029 11.0866L48 0.323608Z" fill="#AC865F" stroke="#AC865F" stroke-width="0.2"/>
<path d="M80 0.323608L83.4971 11.0866L83.5196 11.1557H83.5922H94.9091L85.7536 17.8076L85.6948 17.8503L85.7172 17.9194L89.2144 28.6825L80.0588 22.0306L80 21.9878L79.9412 22.0306L70.7856 28.6825L74.2828 17.9194L74.3052 17.8503L74.2464 17.8076L65.0909 11.1557H76.4078H76.4804L76.5029 11.0866L80 0.323608Z" fill="#AC865F" stroke="#AC865F" stroke-width="0.2"/>
<path d="M112 0.323608L115.497 11.0866L115.52 11.1557H115.592H126.909L117.754 17.8076L117.695 17.8503L117.717 17.9194L121.214 28.6825L112.059 22.0306L112 21.9878L111.941 22.0306L102.786 28.6825L106.283 17.9194L106.305 17.8503L106.246 17.8076L97.0909 11.1557H108.408H108.48L108.503 11.0866L112 0.323608Z" fill="#AC865F" stroke="#AC865F" stroke-width="0.2"/>
<path d="M144 0.323608L147.497 11.0866L147.52 11.1557H147.592H158.909L149.754 17.8076L149.695 17.8503L149.717 17.9194L153.214 28.6825L144.059 22.0306L144 21.9878L143.941 22.0306L134.786 28.6825L138.283 17.9194L138.305 17.8503L138.246 17.8076L129.091 11.1557H140.408H140.48L140.503 11.0866L144 0.323608Z" fill="#AC865F" stroke="#AC865F" stroke-width="0.2"/>
</svg>
