<svg width="640" height="350" viewBox="0 0 640 350" fill="none" xmlns="http://www.w3.org/2000/svg">
<g opacity="0.06" clip-path="url(#clip0_104_9253)">
<path d="M450.782 443.896L450.067 443.717C450.067 443.627 450.578 442.281 451.7 439.858C458.436 424.062 486.809 363.571 538.451 323.723C598.054 277.862 638.469 270.592 638.877 270.502L638.98 271.13C638.571 271.22 598.36 278.4 538.859 324.172C510.895 345.711 489.769 373.264 475.276 396.509C489.769 374.611 510.895 349.212 539.165 329.736C599.789 288.093 638.469 281.9 638.877 281.811L638.98 282.439C638.571 282.529 600.095 288.721 539.676 330.275C486.401 366.802 458.947 424.78 452.313 440.037C451.394 442.46 450.884 443.717 450.782 443.896Z" fill="url(#paint0_linear_104_9253)"/>
<path d="M453.333 437.973L452.619 437.794C452.823 437.165 474.766 371.739 540.594 314.748C595.604 267.092 638.571 255.963 638.979 255.873L639.183 256.502C638.775 256.591 596.012 267.72 541.104 315.197C475.378 372.008 453.537 437.255 453.333 437.973Z" fill="url(#paint1_linear_104_9253)"/>
<path d="M456.293 426.754L455.579 426.485C455.681 426.216 461.6 411.677 473.847 390.765C488.85 363.93 511.813 327.403 538.451 301.286C585.5 255.155 638.265 231.91 638.877 231.641L639.184 232.269C638.673 232.539 585.909 255.783 539.063 301.735C518.753 321.659 500.587 347.686 486.401 370.751C499.566 351.007 517.018 328.48 539.267 307.389C590.501 258.655 638.469 243.937 638.979 243.847L639.184 244.475C638.673 244.655 590.909 259.284 539.88 307.838C509.772 336.467 488.238 367.79 474.664 391.035C463.131 411.497 456.395 426.395 456.293 426.754Z" fill="url(#paint2_linear_104_9253)"/>
<path d="M448.741 463.103L448.026 462.923C448.23 462.385 470.275 408.446 513.447 366.533C555.903 325.249 612.954 301.914 638.878 296.888L639.082 297.516C613.261 302.453 556.414 325.697 513.957 366.892C470.888 408.805 449.047 462.564 448.741 463.103Z" fill="url(#paint3_linear_104_9253)"/>
<path d="M474.868 463.192L474.256 462.743C475.072 461.846 556.312 371.738 638.776 328.3L639.184 328.839C556.822 372.367 475.685 462.295 474.868 463.192Z" fill="url(#paint4_linear_104_9253)"/>
<path d="M454.354 463.103L453.639 462.833C453.945 462.205 484.155 400.368 528.755 363.123C584.786 316.274 638.367 302.363 638.877 302.273L639.081 302.901C638.571 303.081 585.194 316.902 529.265 363.661C484.869 400.817 454.66 462.564 454.354 463.103Z" fill="url(#paint5_linear_104_9253)"/>
<path d="M468.132 463.192L467.52 462.833C467.826 462.474 500.383 422.357 547.534 382.598C596.216 341.403 638.469 322.287 638.877 322.107L639.184 322.736C638.775 322.915 596.625 342.032 548.044 383.136C500.995 422.805 468.438 462.833 468.132 463.192Z" fill="url(#paint6_linear_104_9253)"/>
<path d="M462.314 463.192L461.6 462.833C461.906 462.295 495.484 410.51 549.984 368.508C604.483 326.505 638.571 316.274 638.877 316.184L639.081 316.812C638.775 316.902 604.79 327.133 550.392 369.046C495.994 410.959 462.621 462.654 462.314 463.192Z" fill="url(#paint7_linear_104_9253)"/>
<path d="M456.803 463.192L456.089 462.833C456.497 462.205 492.728 403.599 534.573 369.854C576.519 336.108 638.163 309.004 638.775 308.735L639.081 309.363C638.469 309.633 576.927 336.647 535.083 370.303C493.341 404.048 457.109 462.564 456.803 463.192Z" fill="url(#paint8_linear_104_9253)"/>
<path d="M477.522 463.282L477.011 462.833C477.93 462.026 567.13 382.598 638.775 332.877L639.286 333.416C567.64 383.047 478.44 462.474 477.522 463.282Z" fill="url(#paint9_linear_104_9253)"/>
<path d="M482.114 463.282L481.604 462.743C482.522 462.025 570.701 391.663 638.775 337.544L639.285 338.083C571.212 392.201 482.93 462.564 482.114 463.282Z" fill="url(#paint10_linear_104_9253)"/>
<path d="M486.4 463.282L485.89 462.744C486.707 462.205 567.844 404.856 638.673 343.198L639.183 343.647C568.354 405.304 487.217 462.744 486.4 463.282Z" fill="url(#paint11_linear_104_9253)"/>
<path d="M456.293 426.665L455.579 426.485C455.579 426.396 455.987 425.049 456.803 422.626C461.702 407.369 481.706 349.122 520.386 289.529C565.293 220.333 638.061 176.446 638.775 175.997L639.184 176.536C638.469 176.984 565.803 220.782 520.999 289.888C496.504 327.672 479.461 364.828 469.05 390.945C479.767 366.713 497.627 332.608 524.877 297.068C576.417 230.026 638.163 201.396 638.775 201.127L639.082 201.755C638.469 202.024 576.825 230.564 525.387 297.427C481.4 354.686 462.11 408.177 457.314 422.806C456.701 425.229 456.293 426.575 456.293 426.665Z" fill="url(#paint12_linear_104_9253)"/>
<path d="M456.293 426.665L455.579 426.485C470.684 359.264 462.009 318.338 451.905 270.951C445.577 241.154 439.045 210.371 437.616 169.535C435.779 114.519 450.782 71.5297 463.642 45.1436C477.624 16.5138 492.32 0.718071 492.422 0.538574L493.035 0.987317C492.933 1.16681 478.338 16.8728 464.356 45.4129C451.496 71.7092 436.494 114.609 438.331 169.445C439.76 210.281 446.291 240.975 452.517 270.771C458.437 298.863 463.948 324.621 464.254 354.956C464.56 338.891 463.846 320.761 461.396 301.376L461.192 298.863C456.497 262.425 450.17 212.614 455.477 159.214C461.805 96.3003 483.645 42.8999 520.387 0.628323L520.999 1.07707C436.29 98.544 453.027 228.859 462.009 298.863L462.315 301.465C471.398 372.367 456.395 426.126 456.293 426.665Z" fill="url(#paint13_linear_104_9253)"/>
<path d="M456.293 426.665L455.579 426.485C455.783 425.947 474.766 375.418 467.52 295.183C464.866 266.284 462.212 208.665 474.153 147.367C486.196 85.6202 509.466 36.2585 543.452 0.538574L544.064 0.987317C457.11 92.0821 464.05 249.142 468.234 295.093C472.827 345.891 467.009 384.752 461.906 406.651C468.132 384.393 477.011 344.096 478.95 289.619C480.991 233.257 487.421 184.972 498.75 141.982C514.263 83.197 539.165 35.6303 572.539 0.628323L573.151 1.07707C514.977 62.0163 484.461 156.522 479.665 289.708C476.603 375.598 456.497 426.216 456.293 426.665Z" fill="url(#paint14_linear_104_9253)"/>
<path d="M456.293 426.665L455.579 426.485C455.681 426.216 459.151 413.382 466.193 393.458C472.521 370.931 480.379 337.814 485.788 297.158C492.014 250.488 500.893 195.562 519.876 142.7C539.88 86.8768 568.354 40.387 607.035 0.628418L607.647 1.07716C520.386 90.8257 499.362 201.037 486.605 297.247C481.91 332.788 475.276 362.495 469.459 384.483C476.705 364.738 486.911 339.788 499.974 313.671C517.427 278.849 536.614 248.783 557.026 224.282C582.541 193.588 610.097 171.689 638.775 158.945L639.082 159.573C574.274 188.293 527.939 259.373 500.587 313.941C485.38 344.186 474.153 372.816 466.805 393.727C460.988 414.638 456.395 426.485 456.293 426.665Z" fill="url(#paint15_linear_104_9253)"/>
<path d="M453.334 435.011L452.619 434.832C452.721 434.563 453.64 431.421 455.477 425.947C463.437 400.548 486.605 325.069 502.526 256.681C516.304 197.357 531.613 154.188 551.923 116.763C573.049 77.9019 600.707 44.1564 638.878 10.5007L639.388 10.9495C566.007 75.5684 530.389 139.918 503.241 256.681C491.81 305.773 476.705 358.546 466.091 393.817C481.502 348.673 508.037 276.067 534.981 227.064C576.315 151.855 638.367 125.469 638.98 125.199L639.286 125.828C638.674 126.097 576.826 152.393 535.594 227.423C500.587 291.144 466.091 395.073 456.191 425.947C454.354 431.691 453.334 434.832 453.334 435.011Z" fill="url(#paint16_linear_104_9253)"/>
<path d="M453.334 435.011L452.619 434.832C453.129 433.126 505.588 265.207 543.452 182.997C581.316 100.698 638.367 68.8371 638.878 68.5679L639.286 69.1064C638.674 69.3756 581.928 101.147 544.166 183.267C506.302 265.476 453.844 433.306 453.334 435.011Z" fill="url(#paint17_linear_104_9253)"/>
<path d="M430.88 226.615C430.88 226.526 430.166 224.102 429.145 219.794C422.716 198.255 409.55 178.42 395.568 157.509C381.382 136.328 366.685 114.34 356.989 87.9538C336.782 32.8482 341.578 1.07716 341.68 0.718167L342.395 0.807915C342.395 1.07716 337.496 32.7584 357.704 87.6845C367.399 114.071 381.994 135.969 396.18 157.15C408.529 175.638 420.368 193.319 427.41 212.166C424.349 197.896 420.164 174.202 418.939 146.649C417.204 105.096 422.307 46.1309 456.191 0.628418L456.804 0.987412C423.022 46.3104 418.021 105.275 419.756 146.649C421.083 179.856 426.9 207.409 429.962 219.615C430.676 221.859 431.187 224.192 431.697 226.436L430.88 226.615Z" fill="url(#paint18_linear_104_9253)"/>
<path d="M430.88 226.615C430.88 226.526 430.166 224.192 429.043 219.974C421.389 193.319 410.162 173.933 398.324 153.47C388.424 136.328 378.218 118.558 370.155 96.0312C352.295 45.8618 356.377 1.25675 356.479 0.80801L357.194 0.897759C357.194 1.3465 353.111 45.8618 370.972 95.9415C379.034 118.379 389.24 136.149 399.14 153.291C409.346 170.971 419.042 187.844 426.492 209.294C423.022 194.306 418.429 170.971 416.082 144.406C412.204 102.224 413.326 42.9898 440.27 0.718262L440.984 1.07726C414.143 43.1693 413.02 102.224 416.898 144.406C419.96 178.6 426.696 207.499 429.962 219.974C430.574 222.128 431.187 224.372 431.799 226.615H430.88Z" fill="url(#paint19_linear_104_9253)"/>
<path d="M429.656 222.128C429.554 221.948 426.9 215.128 423.43 203.64C418.021 189.19 411.387 174.112 404.958 159.304C394.343 135.072 383.423 110.122 377.402 87.5051C366.277 45.3233 368.727 1.25675 368.727 0.80801H369.441C369.441 1.25675 366.992 45.2335 378.116 87.3256C384.035 109.852 395.058 134.892 405.57 159.035C410.775 170.882 416.082 182.998 420.777 194.844C417.205 182.1 413.224 165.676 410.265 147.188C403.937 107.519 401.283 49.9902 424.247 0.718262L424.961 0.987507C401.998 50.1697 404.754 107.609 410.979 147.098C414.653 170.163 419.96 189.998 424.043 203.46C426.39 209.832 428.533 216.025 430.268 221.948L429.656 222.128Z" fill="url(#paint20_linear_104_9253)"/>
<path d="M427.41 214.499C427.206 214.14 411.489 178.869 401.589 135.072C392.506 94.5952 386.791 38.5023 411.081 0.628418L411.795 0.987412C387.607 38.6818 393.322 94.6849 402.406 134.982C412.203 178.69 428.023 213.961 428.125 214.32L427.41 214.499Z" fill="url(#paint21_linear_104_9253)"/>
<path d="M426.39 211.358C392.302 133.097 383.729 80.0559 382.505 49.2721C381.178 15.8857 388.016 0.807915 388.118 0.628418L388.832 0.897664C388.73 1.07716 381.994 16.0652 383.321 49.2721C384.546 79.9661 393.119 133.008 427.105 211.089L426.39 211.358Z" fill="url(#paint22_linear_104_9253)"/>
<path d="M372.703 261.617C334.9 165.766 272.761 115.417 191.137 69.1962C115.619 26.3861 102.24 1.25654 102.15 0.98729L102.778 0.718044C102.868 0.98729 116.248 26.0271 191.586 68.6577C224.361 87.2356 262.524 110.66 296.198 143.598C316.581 163.522 333.822 185.51 348.369 210.101C335.797 187.485 318.377 160.829 296.198 137.495C271.235 111.288 241.872 89.2999 213.406 68.0295C183.594 45.6821 155.399 24.5912 135.823 1.07704L136.362 0.628296C155.937 24.0527 184.043 45.1436 213.855 67.491C242.32 88.7614 271.684 110.84 296.737 137.046C347.471 190.357 373.063 260.72 373.332 261.348L372.703 261.617Z" fill="url(#paint23_linear_104_9253)"/>
<path d="M372.973 261.617L371.985 258.925C350.614 201.665 299.969 120.802 235.137 69.1064C174.705 21.0012 164.199 1.16679 164.109 0.897542L164.737 0.628296C164.827 0.807793 175.333 20.6422 235.586 68.568C264.5 91.6333 293.055 122.597 318.198 158.137C340.198 189.28 358.695 223.025 370.728 253.719C368.393 245.732 361.838 227.782 344.238 194.395C324.843 157.778 296.198 122.327 268.541 88.0434C243.578 57.0801 220.051 27.9119 205.954 0.98729L206.582 0.718044C220.68 27.6426 244.206 56.8109 269.169 87.6844C296.826 121.968 325.471 157.509 344.867 194.126C370.459 242.501 372.704 258.745 372.704 258.835L372.973 261.617Z" fill="url(#paint24_linear_104_9253)"/>
<path d="M370.189 254.258C360.132 209.742 329.691 164.868 302.842 125.199C288.744 104.467 275.545 84.8124 268.092 69.0166C247.169 24.6809 242.23 1.07698 242.23 0.897488L242.859 0.807739C242.949 1.07698 247.798 24.5911 268.63 68.7474C276.083 84.5431 289.283 104.108 303.381 124.84C330.23 164.509 360.671 209.473 370.817 254.078L370.189 254.258Z" fill="url(#paint25_linear_104_9253)"/>
<path d="M442.923 463.103L442.208 463.013C442.31 462.654 449.659 428.998 451.292 386.278C452.822 346.968 449.863 291.683 426.389 252.104C379.136 172.228 300.652 125.199 222.882 86.428C137.561 43.7077 106.739 1.43615 106.433 0.987412L107.045 0.628418C107.351 1.07716 138.071 43.259 223.291 85.7998C272.994 110.57 310.245 133.097 340.761 156.611C377.911 185.241 406.079 216.384 427.001 251.745C450.475 291.503 453.537 346.789 452.006 386.278C450.373 428.998 443.025 462.744 442.923 463.103Z" fill="url(#paint26_linear_104_9253)"/>
<path d="M422.715 463.013L422.001 462.923C424.042 438.063 415.061 405.754 396.894 371.829C379.238 338.891 354.131 307.748 328.106 286.388C308.307 270.144 279.424 252.912 248.806 234.693C196.756 203.73 137.867 168.548 111.638 129.956C70.7122 69.6453 61.6289 1.52612 61.5269 0.808132L62.2413 0.718384C62.3433 1.43637 71.4266 69.4658 112.148 129.597C138.276 168.099 197.164 203.191 249.112 234.154C279.73 252.373 308.613 269.605 328.514 285.939C354.642 307.389 379.748 338.622 397.507 371.559C415.775 405.574 424.757 438.063 422.715 463.013Z" fill="url(#paint27_linear_104_9253)"/>
<path d="M421.899 463.013C414.653 382.598 359.745 314.03 258.604 259.104C196.143 225.179 142.154 195.921 108.066 147.457L108.678 147.098C142.664 195.383 196.551 224.641 259.012 258.566C301.162 281.452 335.761 307.12 361.786 334.852C398.017 373.354 418.429 416.523 422.613 462.923L421.899 463.013Z" fill="url(#paint28_linear_104_9253)"/>
<path d="M425.062 463.013H424.246C424.552 383.227 399.343 329.377 337.087 277.054C310.348 254.617 278.505 236.039 247.683 217.999C211.86 197.088 174.813 175.459 145.215 147.547C106.433 110.929 86.5312 72.9658 76.6314 47.6567C65.9152 20.1936 64.4863 1.0772 64.4863 0.897705H65.2007C65.2007 1.0772 66.7316 20.1039 77.3458 47.4772C87.1435 72.7863 107.045 110.57 145.726 147.098C175.323 175.01 212.268 196.55 248.091 217.461C278.913 235.5 310.858 254.078 337.597 276.605C370.971 304.697 393.832 333.955 407.61 365.995C419.755 393.907 425.267 424.78 425.062 463.013Z" fill="url(#paint29_linear_104_9253)"/>
<path d="M440.882 463.103L440.168 463.013C440.27 462.654 445.883 425.857 443.638 379.188C441.495 336.109 432.003 275.708 398.732 232.18C349.233 167.561 296.57 139.021 245.54 111.468C229.925 103.032 213.8 94.326 197.981 84.6331C130.826 43.7976 104.188 1.43625 103.882 1.07726L104.596 0.718262C104.902 1.167 131.438 43.3488 198.389 84.0947C214.208 93.6977 230.334 102.403 245.949 110.84C296.978 138.482 349.743 167.022 399.344 231.821C432.717 275.439 442.311 336.019 444.352 379.188C446.598 425.857 440.984 462.654 440.882 463.103Z" fill="url(#paint30_linear_104_9253)"/>
<path d="M438.433 463.103L437.718 463.013C437.718 462.744 442.209 436.178 440.984 400.009C439.964 366.623 433.84 318.069 410.57 276.067C373.931 209.832 297.489 159.124 208.595 104.288C120.722 50.0799 100.003 1.43615 99.7993 0.897664L100.514 0.628418C100.718 1.07716 121.436 49.6311 209.105 103.66C250.235 129.059 293.406 156.252 329.637 185.062C367.705 215.397 394.445 245.103 411.285 275.618C434.554 317.71 440.678 366.443 441.699 399.83C442.821 436.178 438.433 462.833 438.433 463.103Z" fill="url(#paint31_linear_104_9253)"/>
<path d="M427.104 463.013L426.389 462.923C426.389 462.744 429.043 444.345 425.267 416.254C421.797 390.406 412.203 350.827 385.566 309.184C364.133 275.618 329.331 254.886 285.241 228.68C250.031 207.678 210.023 183.895 166.24 147.457C120.517 109.583 96.227 71.7991 83.7758 46.6695C70.3039 19.4757 67.6504 1.07726 67.6504 0.80801L68.3648 0.718262C68.3648 0.897759 71.1204 19.2962 84.4902 46.4003C96.8394 71.4401 121.232 109.135 166.75 147.008C210.534 183.357 250.439 207.14 285.649 228.141C329.739 254.437 364.643 275.169 386.178 308.915C412.816 350.648 422.511 390.317 425.981 416.254C429.757 444.345 427.104 462.834 427.104 463.013Z" fill="url(#paint32_linear_104_9253)"/>
<path d="M428.737 463.013L428.023 462.923C437.412 377.303 405.161 300.209 337.19 245.642C307.49 221.769 278.505 204.088 250.541 186.947C217.372 166.574 183.08 145.572 146.338 113.891C79.1833 55.9136 71.835 1.3465 71.7329 0.80801L72.4473 0.718262C72.5494 1.25675 79.8977 55.6444 146.849 113.353C183.488 145.034 217.78 166.035 250.949 186.318C278.914 203.46 307.899 221.23 337.7 245.104C405.876 299.94 438.228 377.213 428.737 463.013Z" fill="url(#paint33_linear_104_9253)"/>
<path d="M435.269 463.103L434.554 463.013C434.656 462.295 447.72 393.189 419.245 312.505C394.139 241.514 353.417 215.038 272.178 162.445C258.093 153.291 242.07 142.88 224.924 131.482C166.648 92.6208 134.499 59.2343 117.762 38.0537C99.5951 14.9883 95.2065 1.07726 95.2065 0.897759L95.921 0.718262C95.921 0.897759 100.31 14.719 118.374 37.6049C135.112 58.6958 167.158 92.0823 225.332 130.854C242.478 142.252 258.4 152.663 272.586 161.817C353.927 214.589 394.751 241.065 419.858 312.235C448.536 393.099 435.371 462.385 435.269 463.103Z" fill="url(#paint34_linear_104_9253)"/>
<path d="M430.676 463.013L429.962 462.923C439.964 390.676 424.859 329.647 382.504 270.951C356.275 234.693 300.244 200.947 240.846 165.227C216.249 150.419 190.734 135.072 167.363 119.455C126.743 92.2617 104.29 61.4779 92.6551 40.387C79.9998 17.5909 76.938 0.897664 76.938 0.718167L77.6524 0.628418C77.6524 0.807915 80.7142 17.3216 93.3696 40.1178C105.004 61.1189 127.355 91.8129 167.873 118.917C191.245 134.533 216.759 149.88 241.356 164.689C300.754 200.409 356.887 234.154 383.218 270.592C403.528 298.683 417.306 326.505 425.267 355.763C434.248 389.06 435.983 424.152 430.676 463.013Z" fill="url(#paint35_linear_104_9253)"/>
<path d="M432.615 463.103L431.901 463.013C432.105 462.116 447.822 374.7 406.998 294.914C373.013 228.59 295.856 185.421 227.782 147.367C212.677 138.931 198.389 130.943 184.713 122.776C140.929 96.7492 115.414 64.9782 101.841 42.9898C86.9398 19.027 82.4492 1.07726 82.4492 0.897759L83.1636 0.718262C83.1636 0.897759 87.6543 18.8475 102.453 42.6308C116.027 64.6192 141.44 96.2107 185.121 122.148C198.797 130.225 213.085 138.213 228.19 146.739C296.366 184.882 373.727 228.051 407.713 294.555C448.639 374.521 432.819 462.205 432.615 463.103Z" fill="url(#paint36_linear_104_9253)"/>
<path d="M219.821 142.88C162.158 107.519 129.499 70.8119 112.353 46.2208C93.6757 19.5655 88.5728 1.07726 88.5728 0.897759L89.2872 0.718262C89.2872 0.897759 94.3902 19.386 112.965 45.8618C130.111 70.3631 162.668 106.981 220.229 142.341L219.821 142.88Z" fill="url(#paint37_linear_104_9253)"/>
<path d="M194.001 244.475C193.898 244.386 190.633 242.86 184.917 239.18C168.077 228.5 129.499 200.14 82.4495 140.188C20.3974 60.9395 15.6006 1.43625 15.6006 0.80801H16.315C16.315 1.43625 21.1118 60.76 83.0619 139.739C115.925 181.651 144.706 208.127 164.709 223.833C147.768 209.384 124.906 185.78 99.7997 149.073C48.2596 73.5941 41.1155 1.526 41.1155 0.80801L41.8299 0.718262C41.9319 1.43625 49.0761 73.3248 100.412 148.624C137.664 203.281 170.119 228.59 185.223 238.462C191.041 242.142 194.205 243.668 194.307 243.757L194.001 244.475Z" fill="url(#paint38_linear_104_9253)"/>
<path d="M194 244.386C193.388 244.116 130.213 214.051 49.28 136.508C-17.3648 72.6069 -33.7964 1.61575 -33.8984 0.897759L-33.184 0.80801C-32.9799 1.526 -16.6504 72.3376 49.8924 136.149C110.107 193.947 160.525 225.269 182.468 237.565C159.198 223.025 104.902 186.139 61.5272 133.367C4.98621 64.5295 -1.23941 1.43625 -1.23941 0.80801L-0.524986 0.718262C-0.422928 1.3465 5.70064 64.2602 62.1395 132.918C118.578 201.665 193.592 243.398 194.409 243.757L194 244.386Z" fill="url(#paint39_linear_104_9253)"/>
<path d="M194.001 244.475C193.797 244.385 189.408 242.501 181.856 238.821C149.094 223.115 57.5471 176.715 -3.17824 119.994C-77.9878 50.2593 -88.9082 1.34635 -89.0103 0.89761L-88.2958 0.807861C-88.1938 1.2566 -77.2734 49.9901 -2.66795 119.545C44.9938 163.971 111.639 202.114 153.891 224.102C122.967 206.691 78.2652 178.151 34.4817 137.944C-43.1856 66.4141 -57.7801 1.52585 -57.8821 0.89761L-57.1677 0.807861C-57.0656 1.4361 -42.4711 66.1448 35.0941 137.495C94.9009 192.511 156.647 225.718 182.264 238.193C189.816 241.783 194.205 243.757 194.409 243.847L194.001 244.475Z" fill="url(#paint40_linear_104_9253)"/>
<path d="M194.102 244.475C192.674 243.937 45.5038 193.319 -33.7964 130.136C-113.097 66.7731 -141.775 1.61565 -142.082 0.897664L-141.367 0.628418C-141.061 1.34641 -112.382 66.4141 -33.2861 129.597C31.1134 181.023 140.521 224.102 179.814 238.642C126.743 216.653 62.1395 187.844 -13.3845 127.802C-93.7053 63.9011 -113.811 1.5259 -114.015 0.897664L-113.301 0.718167C-113.097 1.34641 -92.9909 63.5422 -12.8742 127.264C69.4878 192.78 138.786 221.051 194.409 243.847L194.102 244.475Z" fill="url(#paint41_linear_104_9253)"/>
<path d="M194.102 244.475C185.631 241.514 176.65 238.462 167.159 235.231C114.19 217.281 48.2594 194.844 -25.0193 152.393C-108.096 104.288 -141.775 34.374 -142.082 33.656L-141.367 33.3867C-141.061 34.1047 -107.381 103.75 -24.6111 151.675C48.6676 194.126 114.496 216.474 167.465 234.423C176.956 237.654 186.04 240.706 194.511 243.668L194.102 244.475Z" fill="url(#paint42_linear_104_9253)"/>
<path d="M194.102 244.475C164.811 235.231 140.827 230.026 117.558 225C75.7134 215.935 36.1143 207.319 -27.1626 176.625C-119.016 131.93 -141.877 87.5049 -142.082 87.146L-141.367 86.8767C-141.163 87.3255 -118.404 131.482 -26.7543 175.997C36.4205 206.691 75.9175 215.307 117.762 224.371C141.031 229.397 165.015 234.603 194.409 243.847L194.102 244.475Z" fill="url(#paint43_linear_104_9253)"/>
<path d="M194.102 244.475C167.465 237.295 138.99 231.372 111.536 225.628C57.2406 214.32 1.00584 202.563 -47.9827 180.215C-115.852 149.252 -141.775 112.006 -141.979 111.647L-141.367 111.288C-141.163 111.647 -115.24 148.713 -47.5745 179.587C1.41408 201.934 57.5468 213.691 111.842 225C139.296 230.744 167.771 236.667 194.511 243.847L194.102 244.475Z" fill="url(#paint44_linear_104_9253)"/>
<path d="M194.102 244.475C169.71 237.564 142.664 233.526 111.434 228.769C63.1601 221.499 8.55824 213.153 -53.0857 191.882C-114.423 170.612 -141.775 131.751 -142.082 131.392L-141.469 131.033C-141.163 131.392 -113.913 170.163 -52.8816 191.254C8.55824 212.525 63.2621 220.871 111.434 228.141C142.766 232.898 169.812 237.026 194.204 243.847L194.102 244.475Z" fill="url(#paint45_linear_104_9253)"/>
<path d="M189.204 243.129C155.83 236.129 128.07 233.616 98.5747 230.923C60.3024 227.423 20.7033 223.833 -33.5923 209.832C-120.037 187.485 -141.877 157.06 -142.082 156.791L-141.469 156.432C-141.265 156.701 -119.526 186.946 -33.4903 209.204C20.7033 223.205 60.3024 226.795 98.5747 230.295C128.07 232.987 155.932 235.5 189.306 242.501L189.204 243.129Z" fill="url(#paint46_linear_104_9253)"/>
<path d="M187.264 243.129C157.463 237.206 134.806 236.667 106.127 235.949C76.6319 235.231 39.8905 234.334 -17.3649 226.884C-67.272 220.423 -98.5021 208.037 -115.954 198.793C-134.733 188.741 -141.979 180.126 -142.082 180.036L-141.469 179.677C-141.163 180.036 -112.382 213.871 -17.1608 226.256C39.9926 233.705 76.734 234.603 106.229 235.321C135.01 236.039 157.667 236.577 187.571 242.501L187.264 243.129Z" fill="url(#paint47_linear_104_9253)"/>
<path d="M187.366 243.129C145.114 239.27 110.107 240.257 76.3257 241.244C40.5028 242.231 6.61909 243.219 -33.5923 238.552C-102.38 230.564 -141.571 205.524 -141.979 205.255L-141.571 204.717C-141.163 204.986 -102.074 229.936 -33.5923 237.834C6.51703 242.501 40.4008 241.513 76.2237 240.526C110.107 239.539 145.114 238.552 187.366 242.411V243.129Z" fill="url(#paint48_linear_104_9253)"/>
<path d="M-20.2225 255.873C-28.6935 255.873 -37.0624 255.424 -45.3292 254.527C-109.729 246.898 -141.673 227.064 -141.979 226.795L-141.571 226.256C-141.265 226.436 -109.525 246.27 -45.3292 253.809C-13.8949 257.489 19.0704 253.091 54.0768 248.424C91.5326 243.488 130.213 238.282 171.037 242.411L170.935 243.039C130.213 238.911 91.5326 244.116 54.1788 249.052C28.4598 252.552 3.65938 255.873 -20.2225 255.873Z" fill="url(#paint49_linear_104_9253)"/>
<path d="M-34.715 265.117C-102.176 265.117 -141.571 243.308 -141.979 243.039L-141.571 242.501C-141.163 242.77 -99.0125 266.105 -26.9585 264.31C15.4983 263.233 34.9916 258.655 55.7097 253.719C70.8145 250.129 86.3275 246.45 111.842 243.757L111.944 244.385C86.5317 247.078 71.0186 250.758 56.0159 254.348C35.2978 259.284 15.7024 263.951 -26.8564 264.938C-29.5099 265.028 -32.1635 265.117 -34.715 265.117Z" fill="url(#paint50_linear_104_9253)"/>
<path d="M71.1205 404.138C22.4381 404.138 -7.05709 396.33 -7.46533 396.15L-7.26122 395.522C-6.75092 395.612 46.32 407.01 116.231 395.522C136.336 392.201 159.3 385.201 183.692 377.841C245.846 358.994 316.369 337.634 375.87 364.02L375.564 364.648C316.369 338.352 246.05 359.712 183.998 378.559C159.606 385.919 136.541 392.919 116.435 396.24C69.1813 404.048 29.4802 401.356 8.558 398.753C29.2761 402.163 69.2834 406.382 121.742 400.727C145.216 398.214 169.608 391.483 195.429 384.393C225.741 376.046 257.175 367.431 289.732 364.918C326.677 362.046 359.541 367.879 390.158 382.508L389.75 383.137C321.574 350.378 254.623 368.777 195.633 385.021C169.71 392.111 145.318 398.843 121.742 401.356C103.269 403.33 86.2253 404.138 71.1205 404.138Z" fill="url(#paint51_linear_104_9253)"/>
<path d="M39.0737 400.458C26.3162 400.458 13.1506 399.65 -0.42334 397.766L-0.321274 397.137C70.9162 406.83 130.315 388.252 187.774 370.392C210.125 363.392 231.354 356.84 253.194 351.814C331.576 333.775 369.644 356.84 369.951 357.11L369.542 357.648C369.134 357.379 331.372 334.493 253.399 352.443C231.558 357.469 210.432 364.11 188.081 371.021C141.439 385.47 93.5734 400.458 39.0737 400.458Z" fill="url(#paint52_linear_104_9253)"/>
<path d="M361.48 350.468C360.765 349.84 293.304 286.567 209.105 271.131C155.524 261.348 104.392 270.502 54.9953 279.387C26.2145 284.593 -0.831253 289.439 -26.4482 289.978C-31.0409 290.067 -35.4294 290.157 -39.7159 290.157C-110.545 290.157 -141.571 276.336 -141.877 276.156L-141.571 275.528C-141.265 275.708 -106.463 291.144 -26.4482 289.26C-0.933319 288.631 26.2145 283.785 54.8932 278.669C104.392 269.784 155.524 260.63 209.309 270.413C267.381 281.003 317.39 314.21 343.313 334.224C335.046 327.403 324.228 318.967 311.369 310.171C283.2 290.875 239.417 265.925 191.245 257.04C146.032 248.693 104.392 257.579 60.3024 266.912C31.6237 273.015 2.02641 279.298 -28.8976 280.644C-113.709 284.234 -141.571 271.131 -141.877 271.041L-141.469 270.413C-141.163 270.502 -113.505 283.516 -28.8976 279.926C2.02641 278.669 31.6237 272.297 60.2003 266.194C104.392 256.771 146.134 247.886 191.551 256.322C239.927 265.297 283.711 290.247 311.981 309.633C342.599 330.634 361.99 349.75 362.194 349.93L361.48 350.468Z" fill="url(#paint53_linear_104_9253)"/>
<path d="M361.582 350.468C361.378 350.289 338.006 334.583 303 319.325C270.749 305.235 221.658 288.721 171.139 289.978C124.6 291.055 94.3903 297.517 65.0992 303.799C34.0731 310.44 4.67999 316.633 -38.8994 314.03C-117.485 309.453 -141.775 293.388 -141.979 293.209L-141.469 292.67C-141.265 292.85 -117.077 308.825 -38.8994 313.402C4.67999 315.915 33.9711 309.722 64.8951 303.171C92.8594 297.247 124.498 290.516 171.139 289.349C221.863 288.183 271.055 304.696 303.408 318.787C325.759 328.57 343.415 338.442 353.315 344.455C332.495 329.916 275.138 293.209 209.207 281.182C160.015 272.207 110.72 281.9 63.1601 291.234C30.501 297.696 -0.422989 303.709 -28.3873 302.901C-95.6445 300.927 -141.469 283.965 -141.877 283.785L-141.571 283.157C-141.163 283.336 -95.4404 300.209 -28.3873 302.183C-0.52504 302.991 30.2969 296.978 62.9559 290.516C110.72 281.093 160.014 271.4 209.411 280.464C292.079 295.542 361.48 349.391 362.194 349.93L361.582 350.468Z" fill="url(#paint54_linear_104_9253)"/>
<path d="M361.582 350.558C361.378 350.468 337.088 339.16 300.754 329.736C267.279 321.031 216.249 312.056 163.995 318.877C133.887 322.826 109.597 326.505 88.1646 329.826C35.9102 337.814 4.27173 342.57 -39.0015 340.058C-99.3186 336.378 -141.571 309.633 -141.979 309.364L-141.571 308.825C-141.163 309.094 -99.1145 335.75 -39.0015 339.34C4.27173 341.942 35.8081 337.096 87.9605 329.198C109.393 325.967 133.683 322.198 163.791 318.249C216.249 311.338 267.279 320.313 300.959 329.108C326.678 335.839 346.375 343.468 355.867 347.327C346.783 342.391 327.392 332.429 302.183 323.095C269.626 311.069 220.536 297.606 171.139 301.825C133.785 305.056 106.944 310.71 80.9184 316.184C45.8099 323.544 15.4983 329.916 -31.0408 328.031C-110.851 324.711 -141.673 301.914 -141.979 301.645L-141.469 301.107C-141.163 301.376 -110.545 323.993 -30.9388 327.223C15.4983 329.108 45.7079 322.736 80.8163 315.377C105.617 310.171 133.683 304.248 171.139 301.017C220.638 296.709 269.933 310.261 302.592 322.287C337.904 335.391 361.888 349.661 362.092 349.84L361.582 350.558Z" fill="url(#paint55_linear_104_9253)"/>
<path d="M11.9262 365.636C-49.1054 365.636 -100.543 350.917 -141.979 321.48L-141.469 320.941C-71.1502 370.931 28.4598 378.38 154.401 343.109C211.759 327.044 264.421 329.467 298.611 334.314C315.247 336.647 329.229 339.878 339.639 342.66C329.841 339.609 316.88 336.019 301.571 332.967C269.524 326.416 220.536 320.582 168.69 329.647C157.157 331.711 145.216 333.955 133.581 336.198C88.5729 344.724 42.1358 353.61 -3.99509 353.61C-4.40332 353.61 -4.81157 353.61 -5.2198 353.61C-57.9846 353.34 -102.687 341.135 -141.979 316.364L-141.571 315.825C-54.1063 371.111 41.2173 352.981 133.275 335.48C144.808 333.326 156.749 330.993 168.383 328.929C220.332 319.774 269.422 325.698 301.571 332.249C336.373 339.34 359.235 348.763 359.439 348.853L359.133 349.481C358.928 349.391 335.251 340.237 298.407 335.032C264.421 330.185 211.759 327.762 154.605 343.827C102.453 358.366 54.7912 365.636 11.9262 365.636Z" fill="url(#paint56_linear_104_9253)"/>
<path d="M18.3559 382.598C3.96556 382.598 -10.3228 381.252 -24.407 378.201C-101.258 361.687 -141.571 329.288 -141.979 328.929L-141.469 328.39C-141.061 328.749 -100.85 360.969 -24.3049 377.572C36.5225 390.765 100.82 371.739 168.792 351.635C178.385 348.763 188.285 345.891 198.083 343.109C274.933 321.12 353.723 346.43 354.438 346.699L354.132 347.327C353.315 347.058 274.831 321.838 198.287 343.737C188.489 346.519 178.589 349.481 168.996 352.263C116.639 367.79 66.4259 382.598 18.3559 382.598Z" fill="url(#paint57_linear_104_9253)"/>
<path d="M27.6433 390.406C27.031 390.406 26.5207 390.406 25.9083 390.406C-28.0811 390.137 -81.3562 374.431 -141.979 340.955L-141.571 340.416C-10.731 412.574 75.101 393.368 182.161 358.366C240.641 339.25 278.914 335.391 300.754 335.48C324.432 335.57 334.23 340.237 334.638 340.416L334.23 341.045C334.128 340.955 324.228 336.288 300.652 336.198C300.346 336.198 300.04 336.198 299.734 336.198C277.791 336.198 239.927 340.237 182.366 359.084C123.273 378.38 76.5298 390.406 27.6433 390.406Z" fill="url(#paint58_linear_104_9253)"/>
<path d="M638.673 288.631C563.251 308.825 515.794 349.84 489.258 380.713C473.847 398.573 463.539 415.267 457.212 426.934C462.621 412.484 473.439 387.175 491.708 358.007C517.733 316.453 564.578 258.655 639.694 219.256L638.367 217.371C562.741 257.04 515.59 315.197 489.462 357.02C473.337 382.867 462.927 405.753 456.905 420.831C465.58 374.79 463.233 338.98 456.803 307.389C455.987 303.35 455.068 299.311 454.048 295.273C450.476 280.464 446.087 266.374 441.801 252.463C440.882 249.591 440.066 246.809 439.147 244.026C429.758 213.243 421.593 183.356 423.838 146.47C427.104 92.5308 440.984 56.0928 452.007 35.0019C464.05 11.9366 475.378 1.70522 475.48 1.61547L473.643 0C473.133 0.448743 461.906 10.5006 449.863 33.6557C438.739 54.9261 424.757 91.723 421.389 146.111C419.756 173.484 423.736 197.088 429.758 219.884C416.898 191.254 401.385 169.086 386.28 147.457C358.622 108.057 332.597 70.9014 329.535 0.807737L326.984 0.897486C330.046 71.6193 356.275 109.044 384.035 148.713C403.018 175.817 422.613 203.819 436.8 244.475C437.616 247.257 438.535 250.039 439.351 252.911C439.657 253.809 439.964 254.796 440.27 255.694C429.962 233.167 415.98 211.717 398.323 191.613C365.868 154.727 320.86 122.058 264.625 94.5052C170.833 48.6437 113.373 0.448743 112.761 0L111.026 1.61547C111.638 2.06422 169.302 50.4387 263.401 96.4797C367.399 147.277 430.37 213.512 451.19 293.568C452.415 298.504 453.537 303.53 454.558 308.735C454.762 309.992 455.068 311.338 455.272 312.594C461.702 346.968 462.927 386.547 450.374 438.87C450.374 438.96 450.374 438.96 450.374 438.96C448.537 446.589 446.393 454.576 443.944 462.744L446.393 463.282C448.332 456.641 450.17 450.269 451.7 443.986C452.313 442.46 463.335 414.279 491.299 381.88C517.631 351.366 564.68 310.71 639.388 290.696L638.673 288.631Z" fill="url(#paint59_linear_104_9253)"/>
<path d="M284.935 285.131C255.848 266.643 227.476 254.347 198.797 244.475C197.47 243.757 170.629 228.051 140.317 191.075C111.74 156.252 74.1826 94.8643 57.6489 0.628296L55.0974 0.98729C71.6311 95.672 109.393 157.329 138.174 192.421C159.708 218.628 179.508 234.334 189.918 241.603C172.058 235.77 154.095 230.744 135.724 225.538C86.1235 211.627 34.8897 197.267 -24.3048 164.868C-79.6211 134.623 -108.3 107.698 -122.588 90.3769C-137.999 71.6194 -140.449 59.8623 -140.449 59.6828L-143 60.0418C-142.898 60.4906 -140.551 72.2477 -124.731 91.3641C-110.341 108.865 -81.3561 136.149 -25.5295 166.663C33.9711 199.152 85.307 213.602 135.01 227.513C151.748 232.18 168.179 236.846 184.407 242.052C138.786 236.218 96.3295 244.924 51.6274 254.168C-2.46411 265.297 -63.6998 277.951 -141.571 266.374L-141.979 268.617C-119.832 271.938 -99.1144 273.284 -79.417 273.284C-29.4078 273.284 13.2531 264.489 52.2398 256.412C101.126 246.36 147.257 236.846 197.674 246.539C226.251 256.412 254.522 268.617 283.404 286.926C314.839 306.94 339.945 327.762 359.745 348.224C301.367 326.954 249.419 344.186 189.51 363.93C158.484 374.162 126.437 384.842 90.1038 391.393C50.6068 398.573 13.4572 397.945 -19.6101 393.188C-20.1204 393.099 -20.5286 393.009 -21.0389 392.829V392.919C-75.5387 384.932 -118.506 365.456 -140.959 350.378L-142.49 352.173C-134.427 357.558 -104.319 376.136 -54.8206 388.522C-43.5941 391.304 -32.3675 393.547 -21.141 395.253C6.72125 401.715 33.767 405.843 59.8942 409.792C119.701 418.857 176.14 427.293 222.373 463.91L224.108 462.205C177.365 425.229 120.518 416.613 60.4045 407.548C41.6256 404.676 22.4384 401.804 2.74092 398.035C11.9263 398.753 21.1116 399.202 30.297 399.112C50.6068 399.112 70.8146 397.317 90.8183 393.637C127.356 386.996 159.504 376.405 190.632 366.084C251.562 345.891 304.225 328.48 363.623 352.084C402.508 393.637 419.348 433.755 421.185 463.103L423.736 463.013C420.776 417.869 382.81 347.417 284.935 285.131Z" fill="url(#paint60_linear_104_9253)"/>
</g>
<defs>
<linearGradient id="paint0_linear_104_9253" x1="-36.2127" y1="611.606" x2="743.928" y2="167.298" gradientUnits="userSpaceOnUse">
<stop stop-color="#F0CA62"/>
<stop offset="0.209" stop-color="#C59142"/>
<stop offset="0.4259" stop-color="#A76D0C"/>
<stop offset="0.4485" stop-color="#B27C1F"/>
<stop offset="0.5367" stop-color="#DBB666"/>
<stop offset="0.6002" stop-color="#F5D993"/>
<stop offset="0.6323" stop-color="#FFE7A4"/>
<stop offset="0.8017" stop-color="#B77C2B"/>
<stop offset="0.8598" stop-color="#9E5700"/>
<stop offset="0.8895" stop-color="#A15C04"/>
<stop offset="0.9223" stop-color="#AA6910"/>
<stop offset="0.9566" stop-color="#B97F23"/>
<stop offset="0.9917" stop-color="#CE9E3E"/>
<stop offset="1" stop-color="#D4A645"/>
</linearGradient>
<linearGradient id="paint1_linear_104_9253" x1="-40.2717" y1="604.477" x2="739.869" y2="160.169" gradientUnits="userSpaceOnUse">
<stop stop-color="#F0CA62"/>
<stop offset="0.209" stop-color="#C59142"/>
<stop offset="0.4259" stop-color="#A76D0C"/>
<stop offset="0.4485" stop-color="#B27C1F"/>
<stop offset="0.5367" stop-color="#DBB666"/>
<stop offset="0.6002" stop-color="#F5D993"/>
<stop offset="0.6323" stop-color="#FFE7A4"/>
<stop offset="0.8017" stop-color="#B77C2B"/>
<stop offset="0.8598" stop-color="#9E5700"/>
<stop offset="0.8895" stop-color="#A15C04"/>
<stop offset="0.9223" stop-color="#AA6910"/>
<stop offset="0.9566" stop-color="#B97F23"/>
<stop offset="0.9917" stop-color="#CE9E3E"/>
<stop offset="1" stop-color="#D4A645"/>
</linearGradient>
<linearGradient id="paint2_linear_104_9253" x1="-47.7553" y1="591.34" x2="732.384" y2="147.033" gradientUnits="userSpaceOnUse">
<stop stop-color="#F0CA62"/>
<stop offset="0.209" stop-color="#C59142"/>
<stop offset="0.4259" stop-color="#A76D0C"/>
<stop offset="0.4485" stop-color="#B27C1F"/>
<stop offset="0.5367" stop-color="#DBB666"/>
<stop offset="0.6002" stop-color="#F5D993"/>
<stop offset="0.6323" stop-color="#FFE7A4"/>
<stop offset="0.8017" stop-color="#B77C2B"/>
<stop offset="0.8598" stop-color="#9E5700"/>
<stop offset="0.8895" stop-color="#A15C04"/>
<stop offset="0.9223" stop-color="#AA6910"/>
<stop offset="0.9566" stop-color="#B97F23"/>
<stop offset="0.9917" stop-color="#CE9E3E"/>
<stop offset="1" stop-color="#D4A645"/>
</linearGradient>
<linearGradient id="paint3_linear_104_9253" x1="-26.3117" y1="628.988" x2="753.827" y2="184.681" gradientUnits="userSpaceOnUse">
<stop stop-color="#F0CA62"/>
<stop offset="0.209" stop-color="#C59142"/>
<stop offset="0.4259" stop-color="#A76D0C"/>
<stop offset="0.4485" stop-color="#B27C1F"/>
<stop offset="0.5367" stop-color="#DBB666"/>
<stop offset="0.6002" stop-color="#F5D993"/>
<stop offset="0.6323" stop-color="#FFE7A4"/>
<stop offset="0.8017" stop-color="#B77C2B"/>
<stop offset="0.8598" stop-color="#9E5700"/>
<stop offset="0.8895" stop-color="#A15C04"/>
<stop offset="0.9223" stop-color="#AA6910"/>
<stop offset="0.9566" stop-color="#B97F23"/>
<stop offset="0.9917" stop-color="#CE9E3E"/>
<stop offset="1" stop-color="#D4A645"/>
</linearGradient>
<linearGradient id="paint4_linear_104_9253" x1="-15.5442" y1="647.895" x2="764.595" y2="203.588" gradientUnits="userSpaceOnUse">
<stop stop-color="#F0CA62"/>
<stop offset="0.209" stop-color="#C59142"/>
<stop offset="0.4259" stop-color="#A76D0C"/>
<stop offset="0.4485" stop-color="#B27C1F"/>
<stop offset="0.5367" stop-color="#DBB666"/>
<stop offset="0.6002" stop-color="#F5D993"/>
<stop offset="0.6323" stop-color="#FFE7A4"/>
<stop offset="0.8017" stop-color="#B77C2B"/>
<stop offset="0.8598" stop-color="#9E5700"/>
<stop offset="0.8895" stop-color="#A15C04"/>
<stop offset="0.9223" stop-color="#AA6910"/>
<stop offset="0.9566" stop-color="#B97F23"/>
<stop offset="0.9917" stop-color="#CE9E3E"/>
<stop offset="1" stop-color="#D4A645"/>
</linearGradient>
<linearGradient id="paint5_linear_104_9253" x1="-24.0563" y1="632.953" x2="756.084" y2="188.646" gradientUnits="userSpaceOnUse">
<stop stop-color="#F0CA62"/>
<stop offset="0.209" stop-color="#C59142"/>
<stop offset="0.4259" stop-color="#A76D0C"/>
<stop offset="0.4485" stop-color="#B27C1F"/>
<stop offset="0.5367" stop-color="#DBB666"/>
<stop offset="0.6002" stop-color="#F5D993"/>
<stop offset="0.6323" stop-color="#FFE7A4"/>
<stop offset="0.8017" stop-color="#B77C2B"/>
<stop offset="0.8598" stop-color="#9E5700"/>
<stop offset="0.8895" stop-color="#A15C04"/>
<stop offset="0.9223" stop-color="#AA6910"/>
<stop offset="0.9566" stop-color="#B97F23"/>
<stop offset="0.9917" stop-color="#CE9E3E"/>
<stop offset="1" stop-color="#D4A645"/>
</linearGradient>
<linearGradient id="paint6_linear_104_9253" x1="-17.6715" y1="644.163" x2="762.468" y2="199.856" gradientUnits="userSpaceOnUse">
<stop stop-color="#F0CA62"/>
<stop offset="0.209" stop-color="#C59142"/>
<stop offset="0.4259" stop-color="#A76D0C"/>
<stop offset="0.4485" stop-color="#B27C1F"/>
<stop offset="0.5367" stop-color="#DBB666"/>
<stop offset="0.6002" stop-color="#F5D993"/>
<stop offset="0.6323" stop-color="#FFE7A4"/>
<stop offset="0.8017" stop-color="#B77C2B"/>
<stop offset="0.8598" stop-color="#9E5700"/>
<stop offset="0.8895" stop-color="#A15C04"/>
<stop offset="0.9223" stop-color="#AA6910"/>
<stop offset="0.9566" stop-color="#B97F23"/>
<stop offset="0.9917" stop-color="#CE9E3E"/>
<stop offset="1" stop-color="#D4A645"/>
</linearGradient>
<linearGradient id="paint7_linear_104_9253" x1="-19.7267" y1="640.553" x2="760.412" y2="196.246" gradientUnits="userSpaceOnUse">
<stop stop-color="#F0CA62"/>
<stop offset="0.209" stop-color="#C59142"/>
<stop offset="0.4259" stop-color="#A76D0C"/>
<stop offset="0.4485" stop-color="#B27C1F"/>
<stop offset="0.5367" stop-color="#DBB666"/>
<stop offset="0.6002" stop-color="#F5D993"/>
<stop offset="0.6323" stop-color="#FFE7A4"/>
<stop offset="0.8017" stop-color="#B77C2B"/>
<stop offset="0.8598" stop-color="#9E5700"/>
<stop offset="0.8895" stop-color="#A15C04"/>
<stop offset="0.9223" stop-color="#AA6910"/>
<stop offset="0.9566" stop-color="#B97F23"/>
<stop offset="0.9917" stop-color="#CE9E3E"/>
<stop offset="1" stop-color="#D4A645"/>
</linearGradient>
<linearGradient id="paint8_linear_104_9253" x1="-21.8267" y1="636.863" x2="758.312" y2="192.556" gradientUnits="userSpaceOnUse">
<stop stop-color="#F0CA62"/>
<stop offset="0.209" stop-color="#C59142"/>
<stop offset="0.4259" stop-color="#A76D0C"/>
<stop offset="0.4485" stop-color="#B27C1F"/>
<stop offset="0.5367" stop-color="#DBB666"/>
<stop offset="0.6002" stop-color="#F5D993"/>
<stop offset="0.6323" stop-color="#FFE7A4"/>
<stop offset="0.8017" stop-color="#B77C2B"/>
<stop offset="0.8598" stop-color="#9E5700"/>
<stop offset="0.8895" stop-color="#A15C04"/>
<stop offset="0.9223" stop-color="#AA6910"/>
<stop offset="0.9566" stop-color="#B97F23"/>
<stop offset="0.9917" stop-color="#CE9E3E"/>
<stop offset="1" stop-color="#D4A645"/>
</linearGradient>
<linearGradient id="paint9_linear_104_9253" x1="-14.2648" y1="650.142" x2="765.875" y2="205.835" gradientUnits="userSpaceOnUse">
<stop stop-color="#F0CA62"/>
<stop offset="0.209" stop-color="#C59142"/>
<stop offset="0.4259" stop-color="#A76D0C"/>
<stop offset="0.4485" stop-color="#B27C1F"/>
<stop offset="0.5367" stop-color="#DBB666"/>
<stop offset="0.6002" stop-color="#F5D993"/>
<stop offset="0.6323" stop-color="#FFE7A4"/>
<stop offset="0.8017" stop-color="#B77C2B"/>
<stop offset="0.8598" stop-color="#9E5700"/>
<stop offset="0.8895" stop-color="#A15C04"/>
<stop offset="0.9223" stop-color="#AA6910"/>
<stop offset="0.9566" stop-color="#B97F23"/>
<stop offset="0.9917" stop-color="#CE9E3E"/>
<stop offset="1" stop-color="#D4A645"/>
</linearGradient>
<linearGradient id="paint10_linear_104_9253" x1="-12.7291" y1="652.839" x2="767.411" y2="208.531" gradientUnits="userSpaceOnUse">
<stop stop-color="#F0CA62"/>
<stop offset="0.209" stop-color="#C59142"/>
<stop offset="0.4259" stop-color="#A76D0C"/>
<stop offset="0.4485" stop-color="#B27C1F"/>
<stop offset="0.5367" stop-color="#DBB666"/>
<stop offset="0.6002" stop-color="#F5D993"/>
<stop offset="0.6323" stop-color="#FFE7A4"/>
<stop offset="0.8017" stop-color="#B77C2B"/>
<stop offset="0.8598" stop-color="#9E5700"/>
<stop offset="0.8895" stop-color="#A15C04"/>
<stop offset="0.9223" stop-color="#AA6910"/>
<stop offset="0.9566" stop-color="#B97F23"/>
<stop offset="0.9917" stop-color="#CE9E3E"/>
<stop offset="1" stop-color="#D4A645"/>
</linearGradient>
<linearGradient id="paint11_linear_104_9253" x1="-11.0143" y1="655.849" x2="769.126" y2="211.541" gradientUnits="userSpaceOnUse">
<stop stop-color="#F0CA62"/>
<stop offset="0.209" stop-color="#C59142"/>
<stop offset="0.4259" stop-color="#A76D0C"/>
<stop offset="0.4485" stop-color="#B27C1F"/>
<stop offset="0.5367" stop-color="#DBB666"/>
<stop offset="0.6002" stop-color="#F5D993"/>
<stop offset="0.6323" stop-color="#FFE7A4"/>
<stop offset="0.8017" stop-color="#B77C2B"/>
<stop offset="0.8598" stop-color="#9E5700"/>
<stop offset="0.8895" stop-color="#A15C04"/>
<stop offset="0.9223" stop-color="#AA6910"/>
<stop offset="0.9566" stop-color="#B97F23"/>
<stop offset="0.9917" stop-color="#CE9E3E"/>
<stop offset="1" stop-color="#D4A645"/>
</linearGradient>
<linearGradient id="paint12_linear_104_9253" x1="-60.4302" y1="569.085" x2="719.71" y2="124.778" gradientUnits="userSpaceOnUse">
<stop stop-color="#F0CA62"/>
<stop offset="0.209" stop-color="#C59142"/>
<stop offset="0.4259" stop-color="#A76D0C"/>
<stop offset="0.4485" stop-color="#B27C1F"/>
<stop offset="0.5367" stop-color="#DBB666"/>
<stop offset="0.6002" stop-color="#F5D993"/>
<stop offset="0.6323" stop-color="#FFE7A4"/>
<stop offset="0.8017" stop-color="#B77C2B"/>
<stop offset="0.8598" stop-color="#9E5700"/>
<stop offset="0.8895" stop-color="#A15C04"/>
<stop offset="0.9223" stop-color="#AA6910"/>
<stop offset="0.9566" stop-color="#B97F23"/>
<stop offset="0.9917" stop-color="#CE9E3E"/>
<stop offset="1" stop-color="#D4A645"/>
</linearGradient>
<linearGradient id="paint13_linear_104_9253" x1="-115.025" y1="473.22" x2="665.113" y2="28.914" gradientUnits="userSpaceOnUse">
<stop stop-color="#F0CA62"/>
<stop offset="0.209" stop-color="#C59142"/>
<stop offset="0.4259" stop-color="#A76D0C"/>
<stop offset="0.4485" stop-color="#B27C1F"/>
<stop offset="0.5367" stop-color="#DBB666"/>
<stop offset="0.6002" stop-color="#F5D993"/>
<stop offset="0.6323" stop-color="#FFE7A4"/>
<stop offset="0.8017" stop-color="#B77C2B"/>
<stop offset="0.8598" stop-color="#9E5700"/>
<stop offset="0.8895" stop-color="#A15C04"/>
<stop offset="0.9223" stop-color="#AA6910"/>
<stop offset="0.9566" stop-color="#B97F23"/>
<stop offset="0.9917" stop-color="#CE9E3E"/>
<stop offset="1" stop-color="#D4A645"/>
</linearGradient>
<linearGradient id="paint14_linear_104_9253" x1="-109.917" y1="482.193" x2="670.222" y2="37.8864" gradientUnits="userSpaceOnUse">
<stop stop-color="#F0CA62"/>
<stop offset="0.209" stop-color="#C59142"/>
<stop offset="0.4259" stop-color="#A76D0C"/>
<stop offset="0.4485" stop-color="#B27C1F"/>
<stop offset="0.5367" stop-color="#DBB666"/>
<stop offset="0.6002" stop-color="#F5D993"/>
<stop offset="0.6323" stop-color="#FFE7A4"/>
<stop offset="0.8017" stop-color="#B77C2B"/>
<stop offset="0.8598" stop-color="#9E5700"/>
<stop offset="0.8895" stop-color="#A15C04"/>
<stop offset="0.9223" stop-color="#AA6910"/>
<stop offset="0.9566" stop-color="#B97F23"/>
<stop offset="0.9917" stop-color="#CE9E3E"/>
<stop offset="1" stop-color="#D4A645"/>
</linearGradient>
<linearGradient id="paint15_linear_104_9253" x1="-103.535" y1="493.398" x2="676.606" y2="49.0898" gradientUnits="userSpaceOnUse">
<stop stop-color="#F0CA62"/>
<stop offset="0.209" stop-color="#C59142"/>
<stop offset="0.4259" stop-color="#A76D0C"/>
<stop offset="0.4485" stop-color="#B27C1F"/>
<stop offset="0.5367" stop-color="#DBB666"/>
<stop offset="0.6002" stop-color="#F5D993"/>
<stop offset="0.6323" stop-color="#FFE7A4"/>
<stop offset="0.8017" stop-color="#B77C2B"/>
<stop offset="0.8598" stop-color="#9E5700"/>
<stop offset="0.8895" stop-color="#A15C04"/>
<stop offset="0.9223" stop-color="#AA6910"/>
<stop offset="0.9566" stop-color="#B97F23"/>
<stop offset="0.9917" stop-color="#CE9E3E"/>
<stop offset="1" stop-color="#D4A645"/>
</linearGradient>
<linearGradient id="paint16_linear_104_9253" x1="-96.4843" y1="505.779" x2="683.654" y2="61.4726" gradientUnits="userSpaceOnUse">
<stop stop-color="#F0CA62"/>
<stop offset="0.209" stop-color="#C59142"/>
<stop offset="0.4259" stop-color="#A76D0C"/>
<stop offset="0.4485" stop-color="#B27C1F"/>
<stop offset="0.5367" stop-color="#DBB666"/>
<stop offset="0.6002" stop-color="#F5D993"/>
<stop offset="0.6323" stop-color="#FFE7A4"/>
<stop offset="0.8017" stop-color="#B77C2B"/>
<stop offset="0.8598" stop-color="#9E5700"/>
<stop offset="0.8895" stop-color="#A15C04"/>
<stop offset="0.9223" stop-color="#AA6910"/>
<stop offset="0.9566" stop-color="#B97F23"/>
<stop offset="0.9917" stop-color="#CE9E3E"/>
<stop offset="1" stop-color="#D4A645"/>
</linearGradient>
<linearGradient id="paint17_linear_104_9253" x1="-83.2759" y1="528.97" x2="696.864" y2="84.663" gradientUnits="userSpaceOnUse">
<stop stop-color="#F0CA62"/>
<stop offset="0.209" stop-color="#C59142"/>
<stop offset="0.4259" stop-color="#A76D0C"/>
<stop offset="0.4485" stop-color="#B27C1F"/>
<stop offset="0.5367" stop-color="#DBB666"/>
<stop offset="0.6002" stop-color="#F5D993"/>
<stop offset="0.6323" stop-color="#FFE7A4"/>
<stop offset="0.8017" stop-color="#B77C2B"/>
<stop offset="0.8598" stop-color="#9E5700"/>
<stop offset="0.8895" stop-color="#A15C04"/>
<stop offset="0.9223" stop-color="#AA6910"/>
<stop offset="0.9566" stop-color="#B97F23"/>
<stop offset="0.9917" stop-color="#CE9E3E"/>
<stop offset="1" stop-color="#D4A645"/>
</linearGradient>
<linearGradient id="paint18_linear_104_9253" x1="-178.161" y1="362.365" x2="601.979" y2="-81.942" gradientUnits="userSpaceOnUse">
<stop stop-color="#F0CA62"/>
<stop offset="0.209" stop-color="#C59142"/>
<stop offset="0.4259" stop-color="#A76D0C"/>
<stop offset="0.4485" stop-color="#B27C1F"/>
<stop offset="0.5367" stop-color="#DBB666"/>
<stop offset="0.6002" stop-color="#F5D993"/>
<stop offset="0.6323" stop-color="#FFE7A4"/>
<stop offset="0.8017" stop-color="#B77C2B"/>
<stop offset="0.8598" stop-color="#9E5700"/>
<stop offset="0.8895" stop-color="#A15C04"/>
<stop offset="0.9223" stop-color="#AA6910"/>
<stop offset="0.9566" stop-color="#B97F23"/>
<stop offset="0.9917" stop-color="#CE9E3E"/>
<stop offset="1" stop-color="#D4A645"/>
</linearGradient>
<linearGradient id="paint19_linear_104_9253" x1="-176.675" y1="364.974" x2="603.465" y2="-79.3335" gradientUnits="userSpaceOnUse">
<stop stop-color="#F0CA62"/>
<stop offset="0.209" stop-color="#C59142"/>
<stop offset="0.4259" stop-color="#A76D0C"/>
<stop offset="0.4485" stop-color="#B27C1F"/>
<stop offset="0.5367" stop-color="#DBB666"/>
<stop offset="0.6002" stop-color="#F5D993"/>
<stop offset="0.6323" stop-color="#FFE7A4"/>
<stop offset="0.8017" stop-color="#B77C2B"/>
<stop offset="0.8598" stop-color="#9E5700"/>
<stop offset="0.8895" stop-color="#A15C04"/>
<stop offset="0.9223" stop-color="#AA6910"/>
<stop offset="0.9566" stop-color="#B97F23"/>
<stop offset="0.9917" stop-color="#CE9E3E"/>
<stop offset="1" stop-color="#D4A645"/>
</linearGradient>
<linearGradient id="paint20_linear_104_9253" x1="-176.597" y1="365.111" x2="603.543" y2="-79.1961" gradientUnits="userSpaceOnUse">
<stop stop-color="#F0CA62"/>
<stop offset="0.209" stop-color="#C59142"/>
<stop offset="0.4259" stop-color="#A76D0C"/>
<stop offset="0.4485" stop-color="#B27C1F"/>
<stop offset="0.5367" stop-color="#DBB666"/>
<stop offset="0.6002" stop-color="#F5D993"/>
<stop offset="0.6323" stop-color="#FFE7A4"/>
<stop offset="0.8017" stop-color="#B77C2B"/>
<stop offset="0.8598" stop-color="#9E5700"/>
<stop offset="0.8895" stop-color="#A15C04"/>
<stop offset="0.9223" stop-color="#AA6910"/>
<stop offset="0.9566" stop-color="#B97F23"/>
<stop offset="0.9917" stop-color="#CE9E3E"/>
<stop offset="1" stop-color="#D4A645"/>
</linearGradient>
<linearGradient id="paint21_linear_104_9253" x1="-174.354" y1="369.048" x2="605.786" y2="-75.2584" gradientUnits="userSpaceOnUse">
<stop stop-color="#F0CA62"/>
<stop offset="0.209" stop-color="#C59142"/>
<stop offset="0.4259" stop-color="#A76D0C"/>
<stop offset="0.4485" stop-color="#B27C1F"/>
<stop offset="0.5367" stop-color="#DBB666"/>
<stop offset="0.6002" stop-color="#F5D993"/>
<stop offset="0.6323" stop-color="#FFE7A4"/>
<stop offset="0.8017" stop-color="#B77C2B"/>
<stop offset="0.8598" stop-color="#9E5700"/>
<stop offset="0.8895" stop-color="#A15C04"/>
<stop offset="0.9223" stop-color="#AA6910"/>
<stop offset="0.9566" stop-color="#B97F23"/>
<stop offset="0.9917" stop-color="#CE9E3E"/>
<stop offset="1" stop-color="#D4A645"/>
</linearGradient>
<linearGradient id="paint22_linear_104_9253" x1="-177.466" y1="363.583" x2="602.676" y2="-80.7245" gradientUnits="userSpaceOnUse">
<stop stop-color="#F0CA62"/>
<stop offset="0.209" stop-color="#C59142"/>
<stop offset="0.4259" stop-color="#A76D0C"/>
<stop offset="0.4485" stop-color="#B27C1F"/>
<stop offset="0.5367" stop-color="#DBB666"/>
<stop offset="0.6002" stop-color="#F5D993"/>
<stop offset="0.6323" stop-color="#FFE7A4"/>
<stop offset="0.8017" stop-color="#B77C2B"/>
<stop offset="0.8598" stop-color="#9E5700"/>
<stop offset="0.8895" stop-color="#A15C04"/>
<stop offset="0.9223" stop-color="#AA6910"/>
<stop offset="0.9566" stop-color="#B97F23"/>
<stop offset="0.9917" stop-color="#CE9E3E"/>
<stop offset="1" stop-color="#D4A645"/>
</linearGradient>
<linearGradient id="paint23_linear_104_9253" x1="-183.933" y1="342.218" x2="542.66" y2="-21.8666" gradientUnits="userSpaceOnUse">
<stop stop-color="#F0CA62"/>
<stop offset="0.209" stop-color="#C59142"/>
<stop offset="0.4259" stop-color="#A76D0C"/>
<stop offset="0.4485" stop-color="#B27C1F"/>
<stop offset="0.5367" stop-color="#DBB666"/>
<stop offset="0.6002" stop-color="#F5D993"/>
<stop offset="0.6323" stop-color="#FFE7A4"/>
<stop offset="0.8017" stop-color="#B77C2B"/>
<stop offset="0.8598" stop-color="#9E5700"/>
<stop offset="0.8895" stop-color="#A15C04"/>
<stop offset="0.9223" stop-color="#AA6910"/>
<stop offset="0.9566" stop-color="#B97F23"/>
<stop offset="0.9917" stop-color="#CE9E3E"/>
<stop offset="1" stop-color="#D4A645"/>
</linearGradient>
<linearGradient id="paint24_linear_104_9253" x1="-177.697" y1="354.661" x2="548.898" y2="-9.42543" gradientUnits="userSpaceOnUse">
<stop stop-color="#F0CA62"/>
<stop offset="0.209" stop-color="#C59142"/>
<stop offset="0.4259" stop-color="#A76D0C"/>
<stop offset="0.4485" stop-color="#B27C1F"/>
<stop offset="0.5367" stop-color="#DBB666"/>
<stop offset="0.6002" stop-color="#F5D993"/>
<stop offset="0.6323" stop-color="#FFE7A4"/>
<stop offset="0.8017" stop-color="#B77C2B"/>
<stop offset="0.8598" stop-color="#9E5700"/>
<stop offset="0.8895" stop-color="#A15C04"/>
<stop offset="0.9223" stop-color="#AA6910"/>
<stop offset="0.9566" stop-color="#B97F23"/>
<stop offset="0.9917" stop-color="#CE9E3E"/>
<stop offset="1" stop-color="#D4A645"/>
</linearGradient>
<linearGradient id="paint25_linear_104_9253" x1="-171.614" y1="366.803" x2="554.978" y2="2.7187" gradientUnits="userSpaceOnUse">
<stop stop-color="#F0CA62"/>
<stop offset="0.209" stop-color="#C59142"/>
<stop offset="0.4259" stop-color="#A76D0C"/>
<stop offset="0.4485" stop-color="#B27C1F"/>
<stop offset="0.5367" stop-color="#DBB666"/>
<stop offset="0.6002" stop-color="#F5D993"/>
<stop offset="0.6323" stop-color="#FFE7A4"/>
<stop offset="0.8017" stop-color="#B77C2B"/>
<stop offset="0.8598" stop-color="#9E5700"/>
<stop offset="0.8895" stop-color="#A15C04"/>
<stop offset="0.9223" stop-color="#AA6910"/>
<stop offset="0.9566" stop-color="#B97F23"/>
<stop offset="0.9917" stop-color="#CE9E3E"/>
<stop offset="1" stop-color="#D4A645"/>
</linearGradient>
<linearGradient id="paint26_linear_104_9253" x1="-146.712" y1="417.586" x2="633.427" y2="-26.7211" gradientUnits="userSpaceOnUse">
<stop stop-color="#F0CA62"/>
<stop offset="0.209" stop-color="#C59142"/>
<stop offset="0.4259" stop-color="#A76D0C"/>
<stop offset="0.4485" stop-color="#B27C1F"/>
<stop offset="0.5367" stop-color="#DBB666"/>
<stop offset="0.6002" stop-color="#F5D993"/>
<stop offset="0.6323" stop-color="#FFE7A4"/>
<stop offset="0.8017" stop-color="#B77C2B"/>
<stop offset="0.8598" stop-color="#9E5700"/>
<stop offset="0.8895" stop-color="#A15C04"/>
<stop offset="0.9223" stop-color="#AA6910"/>
<stop offset="0.9566" stop-color="#B97F23"/>
<stop offset="0.9917" stop-color="#CE9E3E"/>
<stop offset="1" stop-color="#D4A645"/>
</linearGradient>
<linearGradient id="paint27_linear_104_9253" x1="-153.275" y1="406.062" x2="626.865" y2="-38.2452" gradientUnits="userSpaceOnUse">
<stop stop-color="#F0CA62"/>
<stop offset="0.209" stop-color="#C59142"/>
<stop offset="0.4259" stop-color="#A76D0C"/>
<stop offset="0.4485" stop-color="#B27C1F"/>
<stop offset="0.5367" stop-color="#DBB666"/>
<stop offset="0.6002" stop-color="#F5D993"/>
<stop offset="0.6323" stop-color="#FFE7A4"/>
<stop offset="0.8017" stop-color="#B77C2B"/>
<stop offset="0.8598" stop-color="#9E5700"/>
<stop offset="0.8895" stop-color="#A15C04"/>
<stop offset="0.9223" stop-color="#AA6910"/>
<stop offset="0.9566" stop-color="#B97F23"/>
<stop offset="0.9917" stop-color="#CE9E3E"/>
<stop offset="1" stop-color="#D4A645"/>
</linearGradient>
<linearGradient id="paint28_linear_104_9253" x1="-115.252" y1="472.825" x2="664.888" y2="28.518" gradientUnits="userSpaceOnUse">
<stop stop-color="#F0CA62"/>
<stop offset="0.209" stop-color="#C59142"/>
<stop offset="0.4259" stop-color="#A76D0C"/>
<stop offset="0.4485" stop-color="#B27C1F"/>
<stop offset="0.5367" stop-color="#DBB666"/>
<stop offset="0.6002" stop-color="#F5D993"/>
<stop offset="0.6323" stop-color="#FFE7A4"/>
<stop offset="0.8017" stop-color="#B77C2B"/>
<stop offset="0.8598" stop-color="#9E5700"/>
<stop offset="0.8895" stop-color="#A15C04"/>
<stop offset="0.9223" stop-color="#AA6910"/>
<stop offset="0.9566" stop-color="#B97F23"/>
<stop offset="0.9917" stop-color="#CE9E3E"/>
<stop offset="1" stop-color="#D4A645"/>
</linearGradient>
<linearGradient id="paint29_linear_104_9253" x1="-152.736" y1="407.007" x2="627.403" y2="-37.3004" gradientUnits="userSpaceOnUse">
<stop stop-color="#F0CA62"/>
<stop offset="0.209" stop-color="#C59142"/>
<stop offset="0.4259" stop-color="#A76D0C"/>
<stop offset="0.4485" stop-color="#B27C1F"/>
<stop offset="0.5367" stop-color="#DBB666"/>
<stop offset="0.6002" stop-color="#F5D993"/>
<stop offset="0.6323" stop-color="#FFE7A4"/>
<stop offset="0.8017" stop-color="#B77C2B"/>
<stop offset="0.8598" stop-color="#9E5700"/>
<stop offset="0.8895" stop-color="#A15C04"/>
<stop offset="0.9223" stop-color="#AA6910"/>
<stop offset="0.9566" stop-color="#B97F23"/>
<stop offset="0.9917" stop-color="#CE9E3E"/>
<stop offset="1" stop-color="#D4A645"/>
</linearGradient>
<linearGradient id="paint30_linear_104_9253" x1="-147.17" y1="416.779" x2="632.969" y2="-27.5277" gradientUnits="userSpaceOnUse">
<stop stop-color="#F0CA62"/>
<stop offset="0.209" stop-color="#C59142"/>
<stop offset="0.4259" stop-color="#A76D0C"/>
<stop offset="0.4485" stop-color="#B27C1F"/>
<stop offset="0.5367" stop-color="#DBB666"/>
<stop offset="0.6002" stop-color="#F5D993"/>
<stop offset="0.6323" stop-color="#FFE7A4"/>
<stop offset="0.8017" stop-color="#B77C2B"/>
<stop offset="0.8598" stop-color="#9E5700"/>
<stop offset="0.8895" stop-color="#A15C04"/>
<stop offset="0.9223" stop-color="#AA6910"/>
<stop offset="0.9566" stop-color="#B97F23"/>
<stop offset="0.9917" stop-color="#CE9E3E"/>
<stop offset="1" stop-color="#D4A645"/>
</linearGradient>
<linearGradient id="paint31_linear_104_9253" x1="-147.836" y1="415.612" x2="632.303" y2="-28.6949" gradientUnits="userSpaceOnUse">
<stop stop-color="#F0CA62"/>
<stop offset="0.209" stop-color="#C59142"/>
<stop offset="0.4259" stop-color="#A76D0C"/>
<stop offset="0.4485" stop-color="#B27C1F"/>
<stop offset="0.5367" stop-color="#DBB666"/>
<stop offset="0.6002" stop-color="#F5D993"/>
<stop offset="0.6323" stop-color="#FFE7A4"/>
<stop offset="0.8017" stop-color="#B77C2B"/>
<stop offset="0.8598" stop-color="#9E5700"/>
<stop offset="0.8895" stop-color="#A15C04"/>
<stop offset="0.9223" stop-color="#AA6910"/>
<stop offset="0.9566" stop-color="#B97F23"/>
<stop offset="0.9917" stop-color="#CE9E3E"/>
<stop offset="1" stop-color="#D4A645"/>
</linearGradient>
<linearGradient id="paint32_linear_104_9253" x1="-152.211" y1="407.929" x2="627.929" y2="-36.3778" gradientUnits="userSpaceOnUse">
<stop stop-color="#F0CA62"/>
<stop offset="0.209" stop-color="#C59142"/>
<stop offset="0.4259" stop-color="#A76D0C"/>
<stop offset="0.4485" stop-color="#B27C1F"/>
<stop offset="0.5367" stop-color="#DBB666"/>
<stop offset="0.6002" stop-color="#F5D993"/>
<stop offset="0.6323" stop-color="#FFE7A4"/>
<stop offset="0.8017" stop-color="#B77C2B"/>
<stop offset="0.8598" stop-color="#9E5700"/>
<stop offset="0.8895" stop-color="#A15C04"/>
<stop offset="0.9223" stop-color="#AA6910"/>
<stop offset="0.9566" stop-color="#B97F23"/>
<stop offset="0.9917" stop-color="#CE9E3E"/>
<stop offset="1" stop-color="#D4A645"/>
</linearGradient>
<linearGradient id="paint33_linear_104_9253" x1="-151.637" y1="408.936" x2="628.503" y2="-35.3711" gradientUnits="userSpaceOnUse">
<stop stop-color="#F0CA62"/>
<stop offset="0.209" stop-color="#C59142"/>
<stop offset="0.4259" stop-color="#A76D0C"/>
<stop offset="0.4485" stop-color="#B27C1F"/>
<stop offset="0.5367" stop-color="#DBB666"/>
<stop offset="0.6002" stop-color="#F5D993"/>
<stop offset="0.6323" stop-color="#FFE7A4"/>
<stop offset="0.8017" stop-color="#B77C2B"/>
<stop offset="0.8598" stop-color="#9E5700"/>
<stop offset="0.8895" stop-color="#A15C04"/>
<stop offset="0.9223" stop-color="#AA6910"/>
<stop offset="0.9566" stop-color="#B97F23"/>
<stop offset="0.9917" stop-color="#CE9E3E"/>
<stop offset="1" stop-color="#D4A645"/>
</linearGradient>
<linearGradient id="paint34_linear_104_9253" x1="-148.615" y1="414.243" x2="631.525" y2="-30.0641" gradientUnits="userSpaceOnUse">
<stop stop-color="#F0CA62"/>
<stop offset="0.209" stop-color="#C59142"/>
<stop offset="0.4259" stop-color="#A76D0C"/>
<stop offset="0.4485" stop-color="#B27C1F"/>
<stop offset="0.5367" stop-color="#DBB666"/>
<stop offset="0.6002" stop-color="#F5D993"/>
<stop offset="0.6323" stop-color="#FFE7A4"/>
<stop offset="0.8017" stop-color="#B77C2B"/>
<stop offset="0.8598" stop-color="#9E5700"/>
<stop offset="0.8895" stop-color="#A15C04"/>
<stop offset="0.9223" stop-color="#AA6910"/>
<stop offset="0.9566" stop-color="#B97F23"/>
<stop offset="0.9917" stop-color="#CE9E3E"/>
<stop offset="1" stop-color="#D4A645"/>
</linearGradient>
<linearGradient id="paint35_linear_104_9253" x1="-150.931" y1="410.175" x2="629.209" y2="-34.1321" gradientUnits="userSpaceOnUse">
<stop stop-color="#F0CA62"/>
<stop offset="0.209" stop-color="#C59142"/>
<stop offset="0.4259" stop-color="#A76D0C"/>
<stop offset="0.4485" stop-color="#B27C1F"/>
<stop offset="0.5367" stop-color="#DBB666"/>
<stop offset="0.6002" stop-color="#F5D993"/>
<stop offset="0.6323" stop-color="#FFE7A4"/>
<stop offset="0.8017" stop-color="#B77C2B"/>
<stop offset="0.8598" stop-color="#9E5700"/>
<stop offset="0.8895" stop-color="#A15C04"/>
<stop offset="0.9223" stop-color="#AA6910"/>
<stop offset="0.9566" stop-color="#B97F23"/>
<stop offset="0.9917" stop-color="#CE9E3E"/>
<stop offset="1" stop-color="#D4A645"/>
</linearGradient>
<linearGradient id="paint36_linear_104_9253" x1="-150.164" y1="411.522" x2="629.976" y2="-32.7851" gradientUnits="userSpaceOnUse">
<stop stop-color="#F0CA62"/>
<stop offset="0.209" stop-color="#C59142"/>
<stop offset="0.4259" stop-color="#A76D0C"/>
<stop offset="0.4485" stop-color="#B27C1F"/>
<stop offset="0.5367" stop-color="#DBB666"/>
<stop offset="0.6002" stop-color="#F5D993"/>
<stop offset="0.6323" stop-color="#FFE7A4"/>
<stop offset="0.8017" stop-color="#B77C2B"/>
<stop offset="0.8598" stop-color="#9E5700"/>
<stop offset="0.8895" stop-color="#A15C04"/>
<stop offset="0.9223" stop-color="#AA6910"/>
<stop offset="0.9566" stop-color="#B97F23"/>
<stop offset="0.9917" stop-color="#CE9E3E"/>
<stop offset="1" stop-color="#D4A645"/>
</linearGradient>
<linearGradient id="paint37_linear_104_9253" x1="-243.773" y1="247.158" x2="536.365" y2="-197.148" gradientUnits="userSpaceOnUse">
<stop stop-color="#F0CA62"/>
<stop offset="0.209" stop-color="#C59142"/>
<stop offset="0.4259" stop-color="#A76D0C"/>
<stop offset="0.4485" stop-color="#B27C1F"/>
<stop offset="0.5367" stop-color="#DBB666"/>
<stop offset="0.6002" stop-color="#F5D993"/>
<stop offset="0.6323" stop-color="#FFE7A4"/>
<stop offset="0.8017" stop-color="#B77C2B"/>
<stop offset="0.8598" stop-color="#9E5700"/>
<stop offset="0.8895" stop-color="#A15C04"/>
<stop offset="0.9223" stop-color="#AA6910"/>
<stop offset="0.9566" stop-color="#B97F23"/>
<stop offset="0.9917" stop-color="#CE9E3E"/>
<stop offset="1" stop-color="#D4A645"/>
</linearGradient>
<linearGradient id="paint38_linear_104_9253" x1="-230.574" y1="270.333" x2="549.564" y2="-173.974" gradientUnits="userSpaceOnUse">
<stop stop-color="#F0CA62"/>
<stop offset="0.209" stop-color="#C59142"/>
<stop offset="0.4259" stop-color="#A76D0C"/>
<stop offset="0.4485" stop-color="#B27C1F"/>
<stop offset="0.5367" stop-color="#DBB666"/>
<stop offset="0.6002" stop-color="#F5D993"/>
<stop offset="0.6323" stop-color="#FFE7A4"/>
<stop offset="0.8017" stop-color="#B77C2B"/>
<stop offset="0.8598" stop-color="#9E5700"/>
<stop offset="0.8895" stop-color="#A15C04"/>
<stop offset="0.9223" stop-color="#AA6910"/>
<stop offset="0.9566" stop-color="#B97F23"/>
<stop offset="0.9917" stop-color="#CE9E3E"/>
<stop offset="1" stop-color="#D4A645"/>
</linearGradient>
<linearGradient id="paint39_linear_104_9253" x1="-235.528" y1="261.636" x2="544.613" y2="-182.673" gradientUnits="userSpaceOnUse">
<stop stop-color="#F0CA62"/>
<stop offset="0.209" stop-color="#C59142"/>
<stop offset="0.4259" stop-color="#A76D0C"/>
<stop offset="0.4485" stop-color="#B27C1F"/>
<stop offset="0.5367" stop-color="#DBB666"/>
<stop offset="0.6002" stop-color="#F5D993"/>
<stop offset="0.6323" stop-color="#FFE7A4"/>
<stop offset="0.8017" stop-color="#B77C2B"/>
<stop offset="0.8598" stop-color="#9E5700"/>
<stop offset="0.8895" stop-color="#A15C04"/>
<stop offset="0.9223" stop-color="#AA6910"/>
<stop offset="0.9566" stop-color="#B97F23"/>
<stop offset="0.9917" stop-color="#CE9E3E"/>
<stop offset="1" stop-color="#D4A645"/>
</linearGradient>
<linearGradient id="paint40_linear_104_9253" x1="-241.051" y1="251.936" x2="539.089" y2="-192.371" gradientUnits="userSpaceOnUse">
<stop stop-color="#F0CA62"/>
<stop offset="0.209" stop-color="#C59142"/>
<stop offset="0.4259" stop-color="#A76D0C"/>
<stop offset="0.4485" stop-color="#B27C1F"/>
<stop offset="0.5367" stop-color="#DBB666"/>
<stop offset="0.6002" stop-color="#F5D993"/>
<stop offset="0.6323" stop-color="#FFE7A4"/>
<stop offset="0.8017" stop-color="#B77C2B"/>
<stop offset="0.8598" stop-color="#9E5700"/>
<stop offset="0.8895" stop-color="#A15C04"/>
<stop offset="0.9223" stop-color="#AA6910"/>
<stop offset="0.9566" stop-color="#B97F23"/>
<stop offset="0.9917" stop-color="#CE9E3E"/>
<stop offset="1" stop-color="#D4A645"/>
</linearGradient>
<linearGradient id="paint41_linear_104_9253" x1="-246.352" y1="242.628" x2="533.787" y2="-201.678" gradientUnits="userSpaceOnUse">
<stop stop-color="#F0CA62"/>
<stop offset="0.209" stop-color="#C59142"/>
<stop offset="0.4259" stop-color="#A76D0C"/>
<stop offset="0.4485" stop-color="#B27C1F"/>
<stop offset="0.5367" stop-color="#DBB666"/>
<stop offset="0.6002" stop-color="#F5D993"/>
<stop offset="0.6323" stop-color="#FFE7A4"/>
<stop offset="0.8017" stop-color="#B77C2B"/>
<stop offset="0.8598" stop-color="#9E5700"/>
<stop offset="0.8895" stop-color="#A15C04"/>
<stop offset="0.9223" stop-color="#AA6910"/>
<stop offset="0.9566" stop-color="#B97F23"/>
<stop offset="0.9917" stop-color="#CE9E3E"/>
<stop offset="1" stop-color="#D4A645"/>
</linearGradient>
<linearGradient id="paint42_linear_104_9253" x1="-238.894" y1="255.727" x2="541.245" y2="-188.58" gradientUnits="userSpaceOnUse">
<stop stop-color="#F0CA62"/>
<stop offset="0.209" stop-color="#C59142"/>
<stop offset="0.4259" stop-color="#A76D0C"/>
<stop offset="0.4485" stop-color="#B27C1F"/>
<stop offset="0.5367" stop-color="#DBB666"/>
<stop offset="0.6002" stop-color="#F5D993"/>
<stop offset="0.6323" stop-color="#FFE7A4"/>
<stop offset="0.8017" stop-color="#B77C2B"/>
<stop offset="0.8598" stop-color="#9E5700"/>
<stop offset="0.8895" stop-color="#A15C04"/>
<stop offset="0.9223" stop-color="#AA6910"/>
<stop offset="0.9566" stop-color="#B97F23"/>
<stop offset="0.9917" stop-color="#CE9E3E"/>
<stop offset="1" stop-color="#D4A645"/>
</linearGradient>
<linearGradient id="paint43_linear_104_9253" x1="-226.732" y1="277.08" x2="553.407" y2="-167.227" gradientUnits="userSpaceOnUse">
<stop stop-color="#F0CA62"/>
<stop offset="0.209" stop-color="#C59142"/>
<stop offset="0.4259" stop-color="#A76D0C"/>
<stop offset="0.4485" stop-color="#B27C1F"/>
<stop offset="0.5367" stop-color="#DBB666"/>
<stop offset="0.6002" stop-color="#F5D993"/>
<stop offset="0.6323" stop-color="#FFE7A4"/>
<stop offset="0.8017" stop-color="#B77C2B"/>
<stop offset="0.8598" stop-color="#9E5700"/>
<stop offset="0.8895" stop-color="#A15C04"/>
<stop offset="0.9223" stop-color="#AA6910"/>
<stop offset="0.9566" stop-color="#B97F23"/>
<stop offset="0.9917" stop-color="#CE9E3E"/>
<stop offset="1" stop-color="#D4A645"/>
</linearGradient>
<linearGradient id="paint44_linear_104_9253" x1="-221.164" y1="286.856" x2="558.974" y2="-157.45" gradientUnits="userSpaceOnUse">
<stop stop-color="#F0CA62"/>
<stop offset="0.209" stop-color="#C59142"/>
<stop offset="0.4259" stop-color="#A76D0C"/>
<stop offset="0.4485" stop-color="#B27C1F"/>
<stop offset="0.5367" stop-color="#DBB666"/>
<stop offset="0.6002" stop-color="#F5D993"/>
<stop offset="0.6323" stop-color="#FFE7A4"/>
<stop offset="0.8017" stop-color="#B77C2B"/>
<stop offset="0.8598" stop-color="#9E5700"/>
<stop offset="0.8895" stop-color="#A15C04"/>
<stop offset="0.9223" stop-color="#AA6910"/>
<stop offset="0.9566" stop-color="#B97F23"/>
<stop offset="0.9917" stop-color="#CE9E3E"/>
<stop offset="1" stop-color="#D4A645"/>
</linearGradient>
<linearGradient id="paint45_linear_104_9253" x1="-216.678" y1="294.733" x2="563.461" y2="-149.574" gradientUnits="userSpaceOnUse">
<stop stop-color="#F0CA62"/>
<stop offset="0.209" stop-color="#C59142"/>
<stop offset="0.4259" stop-color="#A76D0C"/>
<stop offset="0.4485" stop-color="#B27C1F"/>
<stop offset="0.5367" stop-color="#DBB666"/>
<stop offset="0.6002" stop-color="#F5D993"/>
<stop offset="0.6323" stop-color="#FFE7A4"/>
<stop offset="0.8017" stop-color="#B77C2B"/>
<stop offset="0.8598" stop-color="#9E5700"/>
<stop offset="0.8895" stop-color="#A15C04"/>
<stop offset="0.9223" stop-color="#AA6910"/>
<stop offset="0.9566" stop-color="#B97F23"/>
<stop offset="0.9917" stop-color="#CE9E3E"/>
<stop offset="1" stop-color="#D4A645"/>
</linearGradient>
<linearGradient id="paint46_linear_104_9253" x1="-211.683" y1="303.504" x2="568.456" y2="-140.803" gradientUnits="userSpaceOnUse">
<stop stop-color="#F0CA62"/>
<stop offset="0.209" stop-color="#C59142"/>
<stop offset="0.4259" stop-color="#A76D0C"/>
<stop offset="0.4485" stop-color="#B27C1F"/>
<stop offset="0.5367" stop-color="#DBB666"/>
<stop offset="0.6002" stop-color="#F5D993"/>
<stop offset="0.6323" stop-color="#FFE7A4"/>
<stop offset="0.8017" stop-color="#B77C2B"/>
<stop offset="0.8598" stop-color="#9E5700"/>
<stop offset="0.8895" stop-color="#A15C04"/>
<stop offset="0.9223" stop-color="#AA6910"/>
<stop offset="0.9566" stop-color="#B97F23"/>
<stop offset="0.9917" stop-color="#CE9E3E"/>
<stop offset="1" stop-color="#D4A645"/>
</linearGradient>
<linearGradient id="paint47_linear_104_9253" x1="-206.577" y1="312.469" x2="573.562" y2="-131.838" gradientUnits="userSpaceOnUse">
<stop stop-color="#F0CA62"/>
<stop offset="0.209" stop-color="#C59142"/>
<stop offset="0.4259" stop-color="#A76D0C"/>
<stop offset="0.4485" stop-color="#B27C1F"/>
<stop offset="0.5367" stop-color="#DBB666"/>
<stop offset="0.6002" stop-color="#F5D993"/>
<stop offset="0.6323" stop-color="#FFE7A4"/>
<stop offset="0.8017" stop-color="#B77C2B"/>
<stop offset="0.8598" stop-color="#9E5700"/>
<stop offset="0.8895" stop-color="#A15C04"/>
<stop offset="0.9223" stop-color="#AA6910"/>
<stop offset="0.9566" stop-color="#B97F23"/>
<stop offset="0.9917" stop-color="#CE9E3E"/>
<stop offset="1" stop-color="#D4A645"/>
</linearGradient>
<linearGradient id="paint48_linear_104_9253" x1="-200.875" y1="322.481" x2="579.264" y2="-121.826" gradientUnits="userSpaceOnUse">
<stop stop-color="#F0CA62"/>
<stop offset="0.209" stop-color="#C59142"/>
<stop offset="0.4259" stop-color="#A76D0C"/>
<stop offset="0.4485" stop-color="#B27C1F"/>
<stop offset="0.5367" stop-color="#DBB666"/>
<stop offset="0.6002" stop-color="#F5D993"/>
<stop offset="0.6323" stop-color="#FFE7A4"/>
<stop offset="0.8017" stop-color="#B77C2B"/>
<stop offset="0.8598" stop-color="#9E5700"/>
<stop offset="0.8895" stop-color="#A15C04"/>
<stop offset="0.9223" stop-color="#AA6910"/>
<stop offset="0.9566" stop-color="#B97F23"/>
<stop offset="0.9917" stop-color="#CE9E3E"/>
<stop offset="1" stop-color="#D4A645"/>
</linearGradient>
<linearGradient id="paint49_linear_104_9253" x1="-197.604" y1="328.224" x2="582.535" y2="-116.083" gradientUnits="userSpaceOnUse">
<stop stop-color="#F0CA62"/>
<stop offset="0.209" stop-color="#C59142"/>
<stop offset="0.4259" stop-color="#A76D0C"/>
<stop offset="0.4485" stop-color="#B27C1F"/>
<stop offset="0.5367" stop-color="#DBB666"/>
<stop offset="0.6002" stop-color="#F5D993"/>
<stop offset="0.6323" stop-color="#FFE7A4"/>
<stop offset="0.8017" stop-color="#B77C2B"/>
<stop offset="0.8598" stop-color="#9E5700"/>
<stop offset="0.8895" stop-color="#A15C04"/>
<stop offset="0.9223" stop-color="#AA6910"/>
<stop offset="0.9566" stop-color="#B97F23"/>
<stop offset="0.9917" stop-color="#CE9E3E"/>
<stop offset="1" stop-color="#D4A645"/>
</linearGradient>
<linearGradient id="paint50_linear_104_9253" x1="-199.532" y1="324.839" x2="580.608" y2="-119.469" gradientUnits="userSpaceOnUse">
<stop stop-color="#F0CA62"/>
<stop offset="0.209" stop-color="#C59142"/>
<stop offset="0.4259" stop-color="#A76D0C"/>
<stop offset="0.4485" stop-color="#B27C1F"/>
<stop offset="0.5367" stop-color="#DBB666"/>
<stop offset="0.6002" stop-color="#F5D993"/>
<stop offset="0.6323" stop-color="#FFE7A4"/>
<stop offset="0.8017" stop-color="#B77C2B"/>
<stop offset="0.8598" stop-color="#9E5700"/>
<stop offset="0.8895" stop-color="#A15C04"/>
<stop offset="0.9223" stop-color="#AA6910"/>
<stop offset="0.9566" stop-color="#B97F23"/>
<stop offset="0.9917" stop-color="#CE9E3E"/>
<stop offset="1" stop-color="#D4A645"/>
</linearGradient>
<linearGradient id="paint51_linear_104_9253" x1="-91.8109" y1="513.983" x2="688.328" y2="69.6761" gradientUnits="userSpaceOnUse">
<stop stop-color="#F0CA62"/>
<stop offset="0.209" stop-color="#C59142"/>
<stop offset="0.4259" stop-color="#A76D0C"/>
<stop offset="0.4485" stop-color="#B27C1F"/>
<stop offset="0.5367" stop-color="#DBB666"/>
<stop offset="0.6002" stop-color="#F5D993"/>
<stop offset="0.6323" stop-color="#FFE7A4"/>
<stop offset="0.8017" stop-color="#B77C2B"/>
<stop offset="0.8598" stop-color="#9E5700"/>
<stop offset="0.8895" stop-color="#A15C04"/>
<stop offset="0.9223" stop-color="#AA6910"/>
<stop offset="0.9566" stop-color="#B97F23"/>
<stop offset="0.9917" stop-color="#CE9E3E"/>
<stop offset="1" stop-color="#D4A645"/>
</linearGradient>
<linearGradient id="paint52_linear_104_9253" x1="-98.6039" y1="502.055" x2="681.535" y2="57.7491" gradientUnits="userSpaceOnUse">
<stop stop-color="#F0CA62"/>
<stop offset="0.209" stop-color="#C59142"/>
<stop offset="0.4259" stop-color="#A76D0C"/>
<stop offset="0.4485" stop-color="#B27C1F"/>
<stop offset="0.5367" stop-color="#DBB666"/>
<stop offset="0.6002" stop-color="#F5D993"/>
<stop offset="0.6323" stop-color="#FFE7A4"/>
<stop offset="0.8017" stop-color="#B77C2B"/>
<stop offset="0.8598" stop-color="#9E5700"/>
<stop offset="0.8895" stop-color="#A15C04"/>
<stop offset="0.9223" stop-color="#AA6910"/>
<stop offset="0.9566" stop-color="#B97F23"/>
<stop offset="0.9917" stop-color="#CE9E3E"/>
<stop offset="1" stop-color="#D4A645"/>
</linearGradient>
<linearGradient id="paint53_linear_104_9253" x1="-144.005" y1="422.338" x2="636.135" y2="-21.9696" gradientUnits="userSpaceOnUse">
<stop stop-color="#F0CA62"/>
<stop offset="0.209" stop-color="#C59142"/>
<stop offset="0.4259" stop-color="#A76D0C"/>
<stop offset="0.4485" stop-color="#B27C1F"/>
<stop offset="0.5367" stop-color="#DBB666"/>
<stop offset="0.6002" stop-color="#F5D993"/>
<stop offset="0.6323" stop-color="#FFE7A4"/>
<stop offset="0.8017" stop-color="#B77C2B"/>
<stop offset="0.8598" stop-color="#9E5700"/>
<stop offset="0.8895" stop-color="#A15C04"/>
<stop offset="0.9223" stop-color="#AA6910"/>
<stop offset="0.9566" stop-color="#B97F23"/>
<stop offset="0.9917" stop-color="#CE9E3E"/>
<stop offset="1" stop-color="#D4A645"/>
</linearGradient>
<linearGradient id="paint54_linear_104_9253" x1="-141.106" y1="427.427" x2="639.032" y2="-16.8789" gradientUnits="userSpaceOnUse">
<stop stop-color="#F0CA62"/>
<stop offset="0.209" stop-color="#C59142"/>
<stop offset="0.4259" stop-color="#A76D0C"/>
<stop offset="0.4485" stop-color="#B27C1F"/>
<stop offset="0.5367" stop-color="#DBB666"/>
<stop offset="0.6002" stop-color="#F5D993"/>
<stop offset="0.6323" stop-color="#FFE7A4"/>
<stop offset="0.8017" stop-color="#B77C2B"/>
<stop offset="0.8598" stop-color="#9E5700"/>
<stop offset="0.8895" stop-color="#A15C04"/>
<stop offset="0.9223" stop-color="#AA6910"/>
<stop offset="0.9566" stop-color="#B97F23"/>
<stop offset="0.9917" stop-color="#CE9E3E"/>
<stop offset="1" stop-color="#D4A645"/>
</linearGradient>
<linearGradient id="paint55_linear_104_9253" x1="-136.993" y1="434.649" x2="643.147" y2="-9.65788" gradientUnits="userSpaceOnUse">
<stop stop-color="#F0CA62"/>
<stop offset="0.209" stop-color="#C59142"/>
<stop offset="0.4259" stop-color="#A76D0C"/>
<stop offset="0.4485" stop-color="#B27C1F"/>
<stop offset="0.5367" stop-color="#DBB666"/>
<stop offset="0.6002" stop-color="#F5D993"/>
<stop offset="0.6323" stop-color="#FFE7A4"/>
<stop offset="0.8017" stop-color="#B77C2B"/>
<stop offset="0.8598" stop-color="#9E5700"/>
<stop offset="0.8895" stop-color="#A15C04"/>
<stop offset="0.9223" stop-color="#AA6910"/>
<stop offset="0.9566" stop-color="#B97F23"/>
<stop offset="0.9917" stop-color="#CE9E3E"/>
<stop offset="1" stop-color="#D4A645"/>
</linearGradient>
<linearGradient id="paint56_linear_104_9253" x1="-134.164" y1="439.617" x2="645.976" y2="-4.68996" gradientUnits="userSpaceOnUse">
<stop stop-color="#F0CA62"/>
<stop offset="0.209" stop-color="#C59142"/>
<stop offset="0.4259" stop-color="#A76D0C"/>
<stop offset="0.4485" stop-color="#B27C1F"/>
<stop offset="0.5367" stop-color="#DBB666"/>
<stop offset="0.6002" stop-color="#F5D993"/>
<stop offset="0.6323" stop-color="#FFE7A4"/>
<stop offset="0.8017" stop-color="#B77C2B"/>
<stop offset="0.8598" stop-color="#9E5700"/>
<stop offset="0.8895" stop-color="#A15C04"/>
<stop offset="0.9223" stop-color="#AA6910"/>
<stop offset="0.9566" stop-color="#B97F23"/>
<stop offset="0.9917" stop-color="#CE9E3E"/>
<stop offset="1" stop-color="#D4A645"/>
</linearGradient>
<linearGradient id="paint57_linear_104_9253" x1="-132.259" y1="442.962" x2="647.879" y2="-1.34462" gradientUnits="userSpaceOnUse">
<stop stop-color="#F0CA62"/>
<stop offset="0.209" stop-color="#C59142"/>
<stop offset="0.4259" stop-color="#A76D0C"/>
<stop offset="0.4485" stop-color="#B27C1F"/>
<stop offset="0.5367" stop-color="#DBB666"/>
<stop offset="0.6002" stop-color="#F5D993"/>
<stop offset="0.6323" stop-color="#FFE7A4"/>
<stop offset="0.8017" stop-color="#B77C2B"/>
<stop offset="0.8598" stop-color="#9E5700"/>
<stop offset="0.8895" stop-color="#A15C04"/>
<stop offset="0.9223" stop-color="#AA6910"/>
<stop offset="0.9566" stop-color="#B97F23"/>
<stop offset="0.9917" stop-color="#CE9E3E"/>
<stop offset="1" stop-color="#D4A645"/>
</linearGradient>
<linearGradient id="paint58_linear_104_9253" x1="-132.972" y1="441.71" x2="647.169" y2="-2.59832" gradientUnits="userSpaceOnUse">
<stop stop-color="#F0CA62"/>
<stop offset="0.209" stop-color="#C59142"/>
<stop offset="0.4259" stop-color="#A76D0C"/>
<stop offset="0.4485" stop-color="#B27C1F"/>
<stop offset="0.5367" stop-color="#DBB666"/>
<stop offset="0.6002" stop-color="#F5D993"/>
<stop offset="0.6323" stop-color="#FFE7A4"/>
<stop offset="0.8017" stop-color="#B77C2B"/>
<stop offset="0.8598" stop-color="#9E5700"/>
<stop offset="0.8895" stop-color="#A15C04"/>
<stop offset="0.9223" stop-color="#AA6910"/>
<stop offset="0.9566" stop-color="#B97F23"/>
<stop offset="0.9917" stop-color="#CE9E3E"/>
<stop offset="1" stop-color="#D4A645"/>
</linearGradient>
<linearGradient id="paint59_linear_104_9253" x1="-145.889" y1="419.028" x2="634.25" y2="-25.2783" gradientUnits="userSpaceOnUse">
<stop stop-color="#F0CA62"/>
<stop offset="0.209" stop-color="#C59142"/>
<stop offset="0.4259" stop-color="#A76D0C"/>
<stop offset="0.4485" stop-color="#B27C1F"/>
<stop offset="0.5367" stop-color="#DBB666"/>
<stop offset="0.6002" stop-color="#F5D993"/>
<stop offset="0.6323" stop-color="#FFE7A4"/>
<stop offset="0.8017" stop-color="#B77C2B"/>
<stop offset="0.8598" stop-color="#9E5700"/>
<stop offset="0.8895" stop-color="#A15C04"/>
<stop offset="0.9223" stop-color="#AA6910"/>
<stop offset="0.9566" stop-color="#B97F23"/>
<stop offset="0.9917" stop-color="#CE9E3E"/>
<stop offset="1" stop-color="#D4A645"/>
</linearGradient>
<linearGradient id="paint60_linear_104_9253" x1="-160.222" y1="393.863" x2="619.919" y2="-50.4448" gradientUnits="userSpaceOnUse">
<stop stop-color="#F0CA62"/>
<stop offset="0.209" stop-color="#C59142"/>
<stop offset="0.4259" stop-color="#A76D0C"/>
<stop offset="0.4485" stop-color="#B27C1F"/>
<stop offset="0.5367" stop-color="#DBB666"/>
<stop offset="0.6002" stop-color="#F5D993"/>
<stop offset="0.6323" stop-color="#FFE7A4"/>
<stop offset="0.8017" stop-color="#B77C2B"/>
<stop offset="0.8598" stop-color="#9E5700"/>
<stop offset="0.8895" stop-color="#A15C04"/>
<stop offset="0.9223" stop-color="#AA6910"/>
<stop offset="0.9566" stop-color="#B97F23"/>
<stop offset="0.9917" stop-color="#CE9E3E"/>
<stop offset="1" stop-color="#D4A645"/>
</linearGradient>
<clipPath id="clip0_104_9253">
<rect width="783" height="464" fill="white" transform="translate(-143)"/>
</clipPath>
</defs>
</svg>
