<svg width="665" height="57" viewBox="0 0 665 57" fill="none" xmlns="http://www.w3.org/2000/svg">
<path d="M17.3871 6.54302H0V1.29614H42.3122V6.54302H24.8151V49.1164H17.3871V6.54302Z" fill="url(#paint0_linear_268_3)"/>
<path d="M97.5544 24.7232C97.5544 41.2002 85.6146 49.899 70.9786 49.899C55.9025 49.899 45.2832 40.0956 45.2832 25.6437C45.2832 10.4554 56.5628 0.513916 71.859 0.513916C87.4303 0.513916 97.5544 10.5474 97.5544 24.7232ZM53.1514 25.5056C53.1514 35.7232 59.7541 44.8823 71.3638 44.8823C83.0836 44.8823 89.6862 35.8613 89.6862 24.9993C89.6862 15.4721 83.7438 5.57669 71.4738 5.57669C59.2589 5.57669 53.1514 15.0119 53.1514 25.5056Z" fill="url(#paint1_linear_268_3)"/>
<path d="M107.128 1.89463C110.704 1.38835 115.381 0.974121 121.269 0.974121C128.587 0.974121 133.924 2.4009 137.28 4.93229C140.416 7.18753 142.287 10.6854 142.287 14.9198C142.287 19.2461 140.747 22.652 137.885 25.1374C133.979 28.6353 127.596 30.3843 120.388 30.3843C118.187 30.3843 116.152 30.2922 114.446 29.97V49.1165H107.128V1.89463ZM114.501 24.9533C116.097 25.3215 118.132 25.4596 120.608 25.4596C129.522 25.4596 134.969 21.8236 134.969 15.2419C134.969 8.93649 129.632 5.89882 121.489 5.89882C118.242 5.89882 115.821 6.12895 114.556 6.4051V24.9533H114.501Z" fill="url(#paint2_linear_268_3)"/>
<path d="M151.367 41.9825C153.513 43.1331 158.41 44.8821 163.582 44.8821C173.156 44.8821 176.127 39.7733 176.072 35.9532C175.962 29.5096 169.029 26.7481 161.821 26.7481H157.639V22.0075H161.821C167.268 22.0075 174.146 19.6602 174.146 14.1832C174.146 10.5012 171.34 7.23343 164.462 7.23343C160.06 7.23343 155.824 8.84431 153.458 10.2711L151.532 5.7146C154.393 3.91961 160.005 2.17065 165.948 2.17065C176.787 2.17065 181.739 7.55561 181.739 13.1707C181.739 17.9113 178.328 21.9615 171.56 24.0326V24.1707C178.328 25.3214 183.885 29.5557 183.885 35.9992C183.885 43.3632 177.007 49.8528 163.802 49.8528C157.584 49.8528 152.192 48.2419 149.441 46.7231L151.367 41.9825Z" fill="url(#paint3_linear_268_3)"/>
<path d="M224.601 6.54302H207.214V1.29614H249.527V6.54302H232.029V49.1164H224.546V6.54302H224.601Z" fill="url(#paint4_linear_268_3)"/>
<path d="M285.511 26.7021H263.282V43.9615H288.042V49.1624H255.909V1.29614H286.776V6.497H263.282V21.5933H285.511V26.7021Z" fill="url(#paint5_linear_268_3)"/>
<path d="M337.562 47.5516C334.866 48.7022 329.419 49.8068 322.486 49.8068C306.364 49.8068 294.259 41.2922 294.259 25.5976C294.259 10.6394 306.364 0.467773 324.136 0.467773C331.289 0.467773 335.746 1.75648 337.727 2.58494L335.966 7.60169C333.16 6.45106 329.198 5.6226 324.412 5.6226C310.986 5.6226 302.127 12.8025 302.127 25.3674C302.127 37.0578 310.161 44.606 324.081 44.606C328.593 44.606 333.16 43.8236 336.131 42.6269L337.562 47.5516Z" fill="url(#paint6_linear_268_3)"/>
<path d="M354.179 1.29614V21.3171H381.855V1.29614H389.338V49.1164H381.855V26.7021H354.179V49.1164H346.806V1.29614H354.179Z" fill="url(#paint7_linear_268_3)"/>
<path d="M402.104 49.1164V1.29614H410.137L428.459 25.5054C432.696 31.1205 435.997 36.1373 438.748 41.062L438.913 40.9699C438.253 34.5724 438.088 28.7732 438.088 21.3171V1.29614H445.021V49.1164H437.538L419.381 24.8611C415.419 19.5221 411.567 14.0912 408.706 8.89031L408.431 8.98236C408.871 15.0117 409.036 20.7648 409.036 28.7272V49.1624H402.104V49.1164Z" fill="url(#paint8_linear_268_3)"/>
<path d="M465.324 1.29614V49.1164H457.951V1.29614H465.324Z" fill="url(#paint9_linear_268_3)"/>
<path d="M525.354 56.1583C517.65 54.4554 510.112 52.5223 503.455 50.6353C502.244 50.2671 501.089 49.9449 499.988 49.9449C486.398 49.5307 474.788 41.1541 474.788 25.7356C474.788 10.4092 485.958 0.559814 501.419 0.559814C516.935 0.559814 527.059 10.6393 527.059 24.7691C527.059 37.0578 520.292 44.9282 510.773 47.6897V47.9658C516.44 49.1625 522.658 50.3131 527.499 51.0035L525.354 56.1583ZM519.246 24.9992C519.246 15.426 513.304 5.57657 501.199 5.57657C488.709 5.57657 482.601 15.2419 482.711 25.5975C482.601 35.7231 489.314 44.8821 500.869 44.8821C512.643 44.8821 519.246 35.9532 519.246 24.9992Z" fill="url(#paint10_linear_268_3)"/>
<path d="M544.006 1.29614V29.6017C544.006 40.3256 549.673 44.836 557.322 44.836C565.795 44.836 571.242 40.1414 571.242 29.6017V1.29614H578.725V29.1874C578.725 43.8695 569.482 49.8988 557.101 49.8988C545.382 49.8988 536.578 44.2837 536.578 29.4636V1.29614H544.006Z" fill="url(#paint11_linear_268_3)"/>
<path d="M621.092 26.7021H598.863V43.9615H623.623V49.1624H591.49V1.29614H622.358V6.497H598.863V21.5933H621.092V26.7021Z" fill="url(#paint12_linear_268_3)"/>
<path d="M632.207 41.6143C635.508 43.3173 640.35 44.744 645.412 44.744C652.95 44.744 657.352 41.4302 657.352 36.5976C657.352 32.1331 654.326 29.5557 646.568 27.0704C637.214 24.3088 631.492 20.2586 631.492 13.5389C631.492 6.08284 638.865 0.559814 649.979 0.559814C655.811 0.559814 660.048 1.71045 662.634 2.9071L660.653 7.92385C658.783 7.0954 654.986 5.66862 649.814 5.66862C642.001 5.66862 639.03 9.58076 639.03 12.8486C639.03 17.313 642.496 19.5222 650.419 22.0536C660.103 25.1833 665 29.0955 665 36.0913C665 43.4553 658.453 49.8529 644.972 49.8529C639.47 49.8529 633.417 48.5181 630.391 46.8152L632.207 41.6143Z" fill="url(#paint13_linear_268_3)"/>
<defs>
<linearGradient id="paint0_linear_268_3" x1="254.51" y1="-97.8993" x2="381.003" y2="164.022" gradientUnits="userSpaceOnUse">
<stop stop-color="#D69C47"/>
<stop offset="0.2352" stop-color="#FFE68F"/>
<stop offset="0.3166" stop-color="#E8BD67"/>
<stop offset="0.3893" stop-color="#D69C47"/>
<stop offset="0.5328" stop-color="#ECC676"/>
<stop offset="0.6687" stop-color="#FFEB9E"/>
<stop offset="0.806" stop-color="#987A44"/>
<stop offset="0.8855" stop-color="#603D13"/>
<stop offset="0.9232" stop-color="#7B5118"/>
<stop offset="0.954" stop-color="#8C5E1C"/>
<stop offset="1" stop-color="#D69C47"/>
</linearGradient>
<linearGradient id="paint1_linear_268_3" x1="254.51" y1="-97.8991" x2="381.003" y2="164.022" gradientUnits="userSpaceOnUse">
<stop stop-color="#D69C47"/>
<stop offset="0.2352" stop-color="#FFE68F"/>
<stop offset="0.3166" stop-color="#E8BD67"/>
<stop offset="0.3893" stop-color="#D69C47"/>
<stop offset="0.5328" stop-color="#ECC676"/>
<stop offset="0.6687" stop-color="#FFEB9E"/>
<stop offset="0.806" stop-color="#987A44"/>
<stop offset="0.8855" stop-color="#603D13"/>
<stop offset="0.9232" stop-color="#7B5118"/>
<stop offset="0.954" stop-color="#8C5E1C"/>
<stop offset="1" stop-color="#D69C47"/>
</linearGradient>
<linearGradient id="paint2_linear_268_3" x1="254.51" y1="-97.8991" x2="381.003" y2="164.022" gradientUnits="userSpaceOnUse">
<stop stop-color="#D69C47"/>
<stop offset="0.2352" stop-color="#FFE68F"/>
<stop offset="0.3166" stop-color="#E8BD67"/>
<stop offset="0.3893" stop-color="#D69C47"/>
<stop offset="0.5328" stop-color="#ECC676"/>
<stop offset="0.6687" stop-color="#FFEB9E"/>
<stop offset="0.806" stop-color="#987A44"/>
<stop offset="0.8855" stop-color="#603D13"/>
<stop offset="0.9232" stop-color="#7B5118"/>
<stop offset="0.954" stop-color="#8C5E1C"/>
<stop offset="1" stop-color="#D69C47"/>
</linearGradient>
<linearGradient id="paint3_linear_268_3" x1="254.511" y1="-97.8992" x2="381.004" y2="164.022" gradientUnits="userSpaceOnUse">
<stop stop-color="#D69C47"/>
<stop offset="0.2352" stop-color="#FFE68F"/>
<stop offset="0.3166" stop-color="#E8BD67"/>
<stop offset="0.3893" stop-color="#D69C47"/>
<stop offset="0.5328" stop-color="#ECC676"/>
<stop offset="0.6687" stop-color="#FFEB9E"/>
<stop offset="0.806" stop-color="#987A44"/>
<stop offset="0.8855" stop-color="#603D13"/>
<stop offset="0.9232" stop-color="#7B5118"/>
<stop offset="0.954" stop-color="#8C5E1C"/>
<stop offset="1" stop-color="#D69C47"/>
</linearGradient>
<linearGradient id="paint4_linear_268_3" x1="254.511" y1="-97.8993" x2="381.004" y2="164.022" gradientUnits="userSpaceOnUse">
<stop stop-color="#D69C47"/>
<stop offset="0.2352" stop-color="#FFE68F"/>
<stop offset="0.3166" stop-color="#E8BD67"/>
<stop offset="0.3893" stop-color="#D69C47"/>
<stop offset="0.5328" stop-color="#ECC676"/>
<stop offset="0.6687" stop-color="#FFEB9E"/>
<stop offset="0.806" stop-color="#987A44"/>
<stop offset="0.8855" stop-color="#603D13"/>
<stop offset="0.9232" stop-color="#7B5118"/>
<stop offset="0.954" stop-color="#8C5E1C"/>
<stop offset="1" stop-color="#D69C47"/>
</linearGradient>
<linearGradient id="paint5_linear_268_3" x1="254.51" y1="-97.8993" x2="381.003" y2="164.022" gradientUnits="userSpaceOnUse">
<stop stop-color="#D69C47"/>
<stop offset="0.2352" stop-color="#FFE68F"/>
<stop offset="0.3166" stop-color="#E8BD67"/>
<stop offset="0.3893" stop-color="#D69C47"/>
<stop offset="0.5328" stop-color="#ECC676"/>
<stop offset="0.6687" stop-color="#FFEB9E"/>
<stop offset="0.806" stop-color="#987A44"/>
<stop offset="0.8855" stop-color="#603D13"/>
<stop offset="0.9232" stop-color="#7B5118"/>
<stop offset="0.954" stop-color="#8C5E1C"/>
<stop offset="1" stop-color="#D69C47"/>
</linearGradient>
<linearGradient id="paint6_linear_268_3" x1="254.51" y1="-97.8992" x2="381.003" y2="164.022" gradientUnits="userSpaceOnUse">
<stop stop-color="#D69C47"/>
<stop offset="0.2352" stop-color="#FFE68F"/>
<stop offset="0.3166" stop-color="#E8BD67"/>
<stop offset="0.3893" stop-color="#D69C47"/>
<stop offset="0.5328" stop-color="#ECC676"/>
<stop offset="0.6687" stop-color="#FFEB9E"/>
<stop offset="0.806" stop-color="#987A44"/>
<stop offset="0.8855" stop-color="#603D13"/>
<stop offset="0.9232" stop-color="#7B5118"/>
<stop offset="0.954" stop-color="#8C5E1C"/>
<stop offset="1" stop-color="#D69C47"/>
</linearGradient>
<linearGradient id="paint7_linear_268_3" x1="254.511" y1="-97.8993" x2="381.004" y2="164.022" gradientUnits="userSpaceOnUse">
<stop stop-color="#D69C47"/>
<stop offset="0.2352" stop-color="#FFE68F"/>
<stop offset="0.3166" stop-color="#E8BD67"/>
<stop offset="0.3893" stop-color="#D69C47"/>
<stop offset="0.5328" stop-color="#ECC676"/>
<stop offset="0.6687" stop-color="#FFEB9E"/>
<stop offset="0.806" stop-color="#987A44"/>
<stop offset="0.8855" stop-color="#603D13"/>
<stop offset="0.9232" stop-color="#7B5118"/>
<stop offset="0.954" stop-color="#8C5E1C"/>
<stop offset="1" stop-color="#D69C47"/>
</linearGradient>
<linearGradient id="paint8_linear_268_3" x1="254.511" y1="-97.8993" x2="381.004" y2="164.022" gradientUnits="userSpaceOnUse">
<stop stop-color="#D69C47"/>
<stop offset="0.2352" stop-color="#FFE68F"/>
<stop offset="0.3166" stop-color="#E8BD67"/>
<stop offset="0.3893" stop-color="#D69C47"/>
<stop offset="0.5328" stop-color="#ECC676"/>
<stop offset="0.6687" stop-color="#FFEB9E"/>
<stop offset="0.806" stop-color="#987A44"/>
<stop offset="0.8855" stop-color="#603D13"/>
<stop offset="0.9232" stop-color="#7B5118"/>
<stop offset="0.954" stop-color="#8C5E1C"/>
<stop offset="1" stop-color="#D69C47"/>
</linearGradient>
<linearGradient id="paint9_linear_268_3" x1="254.51" y1="-97.8992" x2="381.003" y2="164.022" gradientUnits="userSpaceOnUse">
<stop stop-color="#D69C47"/>
<stop offset="0.2352" stop-color="#FFE68F"/>
<stop offset="0.3166" stop-color="#E8BD67"/>
<stop offset="0.3893" stop-color="#D69C47"/>
<stop offset="0.5328" stop-color="#ECC676"/>
<stop offset="0.6687" stop-color="#FFEB9E"/>
<stop offset="0.806" stop-color="#987A44"/>
<stop offset="0.8855" stop-color="#603D13"/>
<stop offset="0.9232" stop-color="#7B5118"/>
<stop offset="0.954" stop-color="#8C5E1C"/>
<stop offset="1" stop-color="#D69C47"/>
</linearGradient>
<linearGradient id="paint10_linear_268_3" x1="254.511" y1="-97.8992" x2="381.004" y2="164.022" gradientUnits="userSpaceOnUse">
<stop stop-color="#D69C47"/>
<stop offset="0.2352" stop-color="#FFE68F"/>
<stop offset="0.3166" stop-color="#E8BD67"/>
<stop offset="0.3893" stop-color="#D69C47"/>
<stop offset="0.5328" stop-color="#ECC676"/>
<stop offset="0.6687" stop-color="#FFEB9E"/>
<stop offset="0.806" stop-color="#987A44"/>
<stop offset="0.8855" stop-color="#603D13"/>
<stop offset="0.9232" stop-color="#7B5118"/>
<stop offset="0.954" stop-color="#8C5E1C"/>
<stop offset="1" stop-color="#D69C47"/>
</linearGradient>
<linearGradient id="paint11_linear_268_3" x1="254.511" y1="-97.8993" x2="381.004" y2="164.022" gradientUnits="userSpaceOnUse">
<stop stop-color="#D69C47"/>
<stop offset="0.2352" stop-color="#FFE68F"/>
<stop offset="0.3166" stop-color="#E8BD67"/>
<stop offset="0.3893" stop-color="#D69C47"/>
<stop offset="0.5328" stop-color="#ECC676"/>
<stop offset="0.6687" stop-color="#FFEB9E"/>
<stop offset="0.806" stop-color="#987A44"/>
<stop offset="0.8855" stop-color="#603D13"/>
<stop offset="0.9232" stop-color="#7B5118"/>
<stop offset="0.954" stop-color="#8C5E1C"/>
<stop offset="1" stop-color="#D69C47"/>
</linearGradient>
<linearGradient id="paint12_linear_268_3" x1="254.511" y1="-97.8993" x2="381.004" y2="164.021" gradientUnits="userSpaceOnUse">
<stop stop-color="#D69C47"/>
<stop offset="0.2352" stop-color="#FFE68F"/>
<stop offset="0.3166" stop-color="#E8BD67"/>
<stop offset="0.3893" stop-color="#D69C47"/>
<stop offset="0.5328" stop-color="#ECC676"/>
<stop offset="0.6687" stop-color="#FFEB9E"/>
<stop offset="0.806" stop-color="#987A44"/>
<stop offset="0.8855" stop-color="#603D13"/>
<stop offset="0.9232" stop-color="#7B5118"/>
<stop offset="0.954" stop-color="#8C5E1C"/>
<stop offset="1" stop-color="#D69C47"/>
</linearGradient>
<linearGradient id="paint13_linear_268_3" x1="254.51" y1="-97.8992" x2="381.003" y2="164.022" gradientUnits="userSpaceOnUse">
<stop stop-color="#D69C47"/>
<stop offset="0.2352" stop-color="#FFE68F"/>
<stop offset="0.3166" stop-color="#E8BD67"/>
<stop offset="0.3893" stop-color="#D69C47"/>
<stop offset="0.5328" stop-color="#ECC676"/>
<stop offset="0.6687" stop-color="#FFEB9E"/>
<stop offset="0.806" stop-color="#987A44"/>
<stop offset="0.8855" stop-color="#603D13"/>
<stop offset="0.9232" stop-color="#7B5118"/>
<stop offset="0.954" stop-color="#8C5E1C"/>
<stop offset="1" stop-color="#D69C47"/>
</linearGradient>
</defs>
</svg>
